<?xml version="1.0" encoding="UTF-8" standalone="no"?>
<!-- Created with Inkscape (http://www.inkscape.org/) -->

<svg
   width="130.33189mm"
   height="25.651962mm"
   viewBox="0 0 130.33189 25.651962"
   version="1.1"
   id="svg5"
   inkscape:version="1.2.2 (732a01da63, 2022-12-09)"
   sodipodi:docname="vlaskolaska.svg"
   xmlns:inkscape="http://www.inkscape.org/namespaces/inkscape"
   xmlns:sodipodi="http://sodipodi.sourceforge.net/DTD/sodipodi-0.dtd"
   xmlns="http://www.w3.org/2000/svg"
   xmlns:svg="http://www.w3.org/2000/svg">
  <sodipodi:namedview
     id="namedview7"
     pagecolor="#ffffff"
     bordercolor="#000000"
     borderopacity="0.25"
     inkscape:showpageshadow="2"
     inkscape:pageopacity="0.0"
     inkscape:pagecheckerboard="0"
     inkscape:deskcolor="#d1d1d1"
     inkscape:document-units="mm"
     showgrid="false"
     inkscape:zoom="1.0444209"
     inkscape:cx="15.319494"
     inkscape:cy="300.64508"
     inkscape:window-width="1920"
     inkscape:window-height="1009"
     inkscape:window-x="-8"
     inkscape:window-y="-8"
     inkscape:window-maximized="1"
     inkscape:current-layer="layer2" />
  <defs
     id="defs2" />
  <g
     inkscape:groupmode="layer"
     id="layer2"
     inkscape:label="logo"
     transform="translate(-42.148512,-79.329561)">
    <g
       id="g1298"
       transform="matrix(1.6342254,0,0,1.6342254,-62.323574,-63.403538)">
      <g
         aria-label="vlaskolaska"
         id="text677"
         style="font-size:16.0498px;line-height:0px;font-family:'Un Jour Merveilleux Demo';-inkscape-font-specification:'Un Jour Merveilleux Demo, Normal';display:inline;fill:#805f46;stroke-width:0.182033;stroke-linecap:square">
        <path
           d="m 65.115273,98.976016 q -0.609893,0 -0.898789,-0.898789 -0.288897,-0.914839 -0.288897,-2.150674 0,-0.513593 0.04815,-0.946938 0.04815,-0.417295 0.353095,-0.738291 0.320996,-0.320996 0.577793,-0.320996 0.192598,0 0.192598,0.192598 0,0.0963 -0.01605,0.144448 -0.240747,0.962988 -0.240747,2.43957 0,0.80249 0.08025,1.348183 0.08025,0.545693 0.192598,0.545693 0.04815,0 0.176547,-0.449394 0.337046,-0.995088 0.706192,-1.65313 0.369145,-0.674091 0.979037,-0.75434 0.128399,-0.01605 1.235835,-0.112349 1.123486,-0.0963 2.198823,-0.401245 1.091386,-0.320996 1.444482,-0.78644 0.0963,-0.112349 0.160498,-0.112349 0.08025,0 0.08025,0.128399 0,0.0963 -0.0642,0.208647 -0.353096,0.625942 -1.492632,0.914839 -1.123486,0.272846 -2.680317,0.433344 -0.80249,0.0963 -0.866689,0.112349 -0.385195,0.08025 -0.625942,0.513594 -0.240747,0.417295 -0.529643,1.187685 -0.224698,0.609892 -0.369146,0.882739 -0.144448,0.272847 -0.353095,0.272847 z"
           id="path677" />
        <path
           d="m 79.158859,94.433922 q 0.08025,-0.144448 0.160498,-0.144448 0.0642,0 0.0642,0.128398 0,0.0963 -0.04815,0.240747 -0.81854,2.038325 -2.263022,4.413695 -1.444482,2.391416 -3.001313,2.391416 -0.898789,0 -1.540781,-0.62594 -0.625942,-0.60989 -0.946938,-1.621027 -0.320996,-0.995088 -0.320996,-2.150674 0,-2.279071 1.011137,-4.542093 1.011138,-2.263022 2.42352,-3.723554 1.412383,-1.460532 2.47167,-1.460532 0.641992,0 0.979037,0.369145 0.337046,0.353096 0.337046,0.995088 0,0.898789 -0.946938,2.054375 -0.946938,1.155585 -2.343271,2.182773 -1.396333,1.011137 -2.664267,1.476581 -0.385195,1.412383 -0.385195,2.648217 0,1.66918 0.481494,2.872915 0.481494,1.219786 1.444482,1.219786 0.81854,0 1.685229,-0.96299 0.866689,-0.962988 1.540781,-2.150673 0.674092,-1.203735 1.412382,-2.712416 0.369146,-0.78644 0.449395,-0.898789 z m -1.909926,-6.692767 q -0.561743,0 -1.460532,0.882739 -0.898789,0.882739 -1.765478,2.343271 -0.86669,1.444482 -1.364233,3.049462 1.219784,-0.561743 2.455619,-1.508681 1.251885,-0.962988 2.054375,-2.022275 0.818539,-1.059287 0.818539,-1.893877 0,-0.449394 -0.192597,-0.641992 -0.176548,-0.208647 -0.545693,-0.208647 z"
           id="path679" />
        <path
           d="m 81.646563,98.976016 q -0.577793,0 -0.882739,-0.722241 -0.304947,-0.722241 -0.304947,-1.717329 0,-0.545693 0.112349,-1.155586 -0.561743,0.738291 -0.995088,1.171636 -0.433344,0.433344 -0.834589,0.433344 -0.256797,0 -0.417295,-0.192597 -0.160498,-0.192598 -0.160498,-0.545694 0,-0.593842 0.385195,-1.251884 0.385195,-0.658042 0.979038,-1.091386 0.609892,-0.449395 1.203735,-0.449395 0.128398,0 0.208648,0.0642 0.0963,0.04815 0.08025,0.112349 0,0.0642 -0.08025,0.0642 -0.529644,0 -1.027188,0.561743 -0.497544,0.545693 -0.834589,1.251885 -0.320996,0.690141 -0.320996,0.995087 0,0.112349 0.0642,0.112349 0.176548,0 0.545693,-0.369146 0.385195,-0.385195 0.866689,-1.139535 0.497544,-0.754341 0.995088,-1.829678 0.0642,-0.144448 0.272847,-0.240747 0.224697,-0.0963 0.433344,-0.0963 0.353096,0 0.272847,0.240747 -0.577793,1.380282 -0.78644,2.35932 -0.192598,0.979038 -0.192598,1.893877 0,0.561743 0.128398,0.866689 0.128399,0.288896 0.304947,0.288896 0.433344,0 1.380282,-0.77039 0.946939,-0.78644 1.893877,-1.797578 0.946938,-1.027187 1.283984,-1.58893 0.0642,-0.128398 0.160498,-0.128398 0.0642,0 0.0642,0.128398 0,0.08025 -0.04815,0.224697 -0.176548,0.417295 -1.123486,1.508681 -0.930889,1.075337 -1.974126,1.942026 -1.043237,0.86669 -1.65313,0.86669 z"
           id="path686" />
        <path
           d="m 84.728134,103.03662 q -0.417295,0 -0.674091,-0.2247 -0.272847,-0.20865 -0.272847,-0.57779 0,-0.56175 0.78644,-1.38029 0.770391,-0.81854 1.749428,-1.44448 0.995088,-0.625942 1.508682,-0.625942 0.112348,0 0.208647,0.04815 0.112349,0.04815 0.128399,0.112349 0.01605,0.04815 -0.08025,0.04815 -0.674092,0 -1.572881,0.609893 -0.898789,0.60989 -1.556831,1.39633 -0.674091,0.78644 -0.674091,1.23584 0,0.49754 0.449394,0.49754 0.979038,0 2.47167,-1.07534 1.508681,-1.07533 2.616117,-2.567964 1.123486,-1.492631 1.123486,-2.648217 0,-0.497544 -0.337046,-0.81854 -0.320996,-0.337046 -0.81854,-0.337046 -0.320996,0 -0.674091,0.08025 -0.337046,0.0642 -0.930889,0.224698 -0.385195,0.112348 -0.78644,0.208647 -0.385195,0.08025 -0.658042,0.08025 -0.369145,0 -0.641992,-0.224697 -0.256797,-0.224697 -0.256797,-0.529644 0,-0.561743 0.353096,-1.139535 0.369145,-0.593843 0.898789,-0.979038 0.529643,-0.401245 0.979038,-0.401245 0.417295,0 0.625942,0.160498 0.224697,0.160498 0.240747,0.320996 0.0321,0.160498 -0.08025,0.08025 -0.112349,-0.0963 -0.288896,-0.0963 -0.369146,0 -0.86669,0.401245 -0.497543,0.401245 -0.866689,0.930888 -0.353096,0.529644 -0.353096,0.882739 0,0.240747 0.208648,0.240747 0.449394,0 1.219785,-0.256796 0.545693,-0.160498 0.962988,-0.240747 0.433344,-0.0963 0.914838,-0.0963 0.81854,0 1.348184,0.529643 0.545693,0.529644 0.545693,1.283984 0,1.396333 -1.203735,2.872915 -1.187685,1.476579 -2.856865,2.439569 -1.653129,0.97904 -2.888964,0.97904 z"
           id="path688" />
        <path
           d="m 95.17656,89.76343 q 0.112349,-0.208647 0.385195,-0.369145 0.288897,-0.176548 0.481494,-0.176548 0.08025,0 0.112349,0.04815 0.04815,0.04815 0.01605,0.128399 -0.674092,1.765478 -1.219785,4.349496 -0.545693,2.584017 -0.545693,4.076649 0,0.369145 -0.112349,0.369145 -0.160498,0 -0.304946,-0.529643 -0.112349,-0.449394 -0.112349,-1.300034 0,-0.690141 0.04815,-1.412382 0.08025,-1.091387 0.449394,-2.728467 0.369146,-1.653129 0.80249,-2.455619 z m 3.27416,8.715042 q 0.0642,0 0.0642,0.04815 0,0.0321 -0.112349,0.0963 -0.112348,0.04815 -0.240747,0.04815 -0.401245,0 -1.332133,-0.577792 -0.930889,-0.593843 -1.65313,-1.251885 -0.722241,-0.658042 -0.561743,-0.81854 l 0.369146,-0.337046 q 0.979037,-0.914838 1.54078,-1.621029 0.577793,-0.706192 0.465445,-1.300034 -0.01605,-0.112349 0.144448,-0.08025 0.160498,0.0321 0.304946,0.224697 0.144448,0.176548 0.144448,0.465444 0,0.256797 -0.288896,0.722241 -0.272847,0.465444 -0.81854,1.011138 -0.529643,0.545693 -1.251884,1.011137 0.914838,0.882739 1.845727,1.572881 0.930888,0.690141 1.380283,0.78644 z"
           id="path690" />
        <path
           d="m 101.09894,97.916729 q -0.49754,0 -0.75434,-0.385195 -0.27284,-0.401245 -0.27284,-0.930889 0,-0.722241 0.35309,-1.492631 0.33705,-0.786441 0.91484,-1.300034 0.59384,-0.529644 1.28399,-0.529644 0.19259,0 0.30494,0.0642 0.11235,0.0642 0.11235,0.128398 0,0.0642 -0.11235,0.0642 -0.11235,0 -0.20865,0.04815 -0.0802,0.04815 -0.17654,0.128398 -0.0963,0.0642 -0.14445,0.112349 -0.64199,0.529643 -1.02719,1.476581 -0.38519,0.946938 -0.38519,1.813628 0,0.192597 0.0642,0.320996 0.0642,0.128398 0.14444,0.128398 0.33705,0 0.59385,-0.609892 0.27284,-0.609893 0.27284,-1.203735 0,-0.112349 -0.0321,-0.304947 -0.0161,-0.0321 -0.0161,-0.0963 0,-0.240747 0.2247,-0.288897 0.17655,-0.04815 0.33705,-0.04815 0.25679,0 0.99508,0.160498 0.72224,0.192597 1.20374,0.208647 0.80249,0.0321 1.34818,-0.128398 0.5457,-0.176548 0.99509,-0.81854 0.0802,-0.128398 0.17655,-0.128398 0.0803,0 0.0803,0.112348 0,0.0963 -0.0803,0.240747 -0.40125,0.641992 -1.02719,0.914839 -0.62594,0.256797 -1.30003,0.256797 -0.4173,0 -1.15559,-0.192598 -0.41729,-0.0963 -0.72224,-0.144448 -0.30495,-0.04815 -0.62594,-0.01605 l 0.0161,0.192598 q 0,0.433344 -0.17655,0.962988 -0.17655,0.529643 -0.49754,0.914838 -0.30495,0.369146 -0.7062,0.369146 z"
           id="path692" />
        <path
           d="m 114.53263,94.433922 q 0.0803,-0.144448 0.1605,-0.144448 0.0642,0 0.0642,0.128398 0,0.0963 -0.0481,0.240747 -0.81854,2.038325 -2.26303,4.413695 -1.44448,2.391416 -3.00131,2.391416 -0.89879,0 -1.54078,-0.62594 -0.62594,-0.60989 -0.94694,-1.621027 -0.32099,-0.995088 -0.32099,-2.150674 0,-2.279071 1.01113,-4.542093 1.01114,-2.263022 2.42352,-3.723554 1.41239,-1.460532 2.47167,-1.460532 0.64199,0 0.97904,0.369145 0.33705,0.353096 0.33705,0.995088 0,0.898789 -0.94694,2.054375 -0.94694,1.155585 -2.34327,2.182773 -1.39634,1.011137 -2.66427,1.476581 -0.3852,1.412383 -0.3852,2.648217 0,1.66918 0.4815,2.872915 0.48149,1.219786 1.44448,1.219786 0.81854,0 1.68523,-0.96299 0.86669,-0.962988 1.54078,-2.150673 0.67409,-1.203735 1.41238,-2.712416 0.36915,-0.78644 0.4494,-0.898789 z m -1.90993,-6.692767 q -0.56174,0 -1.46053,0.882739 -0.89879,0.882739 -1.76548,2.343271 -0.86669,1.444482 -1.36423,3.049462 1.21978,-0.561743 2.45562,-1.508681 1.25188,-0.962988 2.05437,-2.022275 0.81854,-1.059287 0.81854,-1.893877 0,-0.449394 -0.1926,-0.641992 -0.17654,-0.208647 -0.54569,-0.208647 z"
           id="path694" />
        <path
           d="m 117.02033,98.976016 q -0.57779,0 -0.88274,-0.722241 -0.30494,-0.722241 -0.30494,-1.717329 0,-0.545693 0.11234,-1.155586 -0.56174,0.738291 -0.99508,1.171636 -0.43335,0.433344 -0.83459,0.433344 -0.2568,0 -0.4173,-0.192597 -0.1605,-0.192598 -0.1605,-0.545694 0,-0.593842 0.3852,-1.251884 0.38519,-0.658042 0.97904,-1.091386 0.60989,-0.449395 1.20373,-0.449395 0.1284,0 0.20865,0.0642 0.0963,0.04815 0.0803,0.112349 0,0.0642 -0.0803,0.0642 -0.52964,0 -1.02719,0.561743 -0.49754,0.545693 -0.83459,1.251885 -0.32099,0.690141 -0.32099,0.995087 0,0.112349 0.0642,0.112349 0.17654,0 0.54569,-0.369146 0.38519,-0.385195 0.86669,-1.139535 0.49754,-0.754341 0.99509,-1.829678 0.0642,-0.144448 0.27284,-0.240747 0.2247,-0.0963 0.43335,-0.0963 0.35309,0 0.27284,0.240747 -0.57779,1.380282 -0.78644,2.35932 -0.19259,0.979038 -0.19259,1.893877 0,0.561743 0.12839,0.866689 0.1284,0.288896 0.30495,0.288896 0.43335,0 1.38028,-0.77039 0.94694,-0.78644 1.89388,-1.797578 0.94694,-1.027187 1.28398,-1.58893 0.0642,-0.128398 0.1605,-0.128398 0.0642,0 0.0642,0.128398 0,0.08025 -0.0482,0.224697 -0.17655,0.417295 -1.12348,1.508681 -0.93089,1.075337 -1.97413,1.942026 -1.04324,0.86669 -1.65313,0.86669 z"
           id="path696" />
        <path
           d="m 120.1019,103.03662 q -0.41729,0 -0.67409,-0.2247 -0.27284,-0.20865 -0.27284,-0.57779 0,-0.56175 0.78644,-1.38029 0.77039,-0.81854 1.74942,-1.44448 0.99509,-0.625942 1.50869,-0.625942 0.11234,0 0.20864,0.04815 0.11235,0.04815 0.1284,0.112349 0.0161,0.04815 -0.0802,0.04815 -0.67409,0 -1.57288,0.609893 -0.89879,0.60989 -1.55683,1.39633 -0.67409,0.78644 -0.67409,1.23584 0,0.49754 0.44939,0.49754 0.97904,0 2.47167,-1.07534 1.50868,-1.07533 2.61612,-2.567964 1.12349,-1.492631 1.12349,-2.648217 0,-0.497544 -0.33705,-0.81854 -0.32099,-0.337046 -0.81854,-0.337046 -0.32099,0 -0.67409,0.08025 -0.33705,0.0642 -0.93089,0.224698 -0.38519,0.112348 -0.78644,0.208647 -0.38519,0.08025 -0.65804,0.08025 -0.36915,0 -0.64199,-0.224697 -0.2568,-0.224697 -0.2568,-0.529644 0,-0.561743 0.3531,-1.139535 0.36914,-0.593843 0.89878,-0.979038 0.52965,-0.401245 0.97904,-0.401245 0.4173,0 0.62594,0.160498 0.2247,0.160498 0.24075,0.320996 0.0321,0.160498 -0.0803,0.08025 -0.11235,-0.0963 -0.28889,-0.0963 -0.36915,0 -0.86669,0.401245 -0.49755,0.401245 -0.86669,0.930888 -0.3531,0.529644 -0.3531,0.882739 0,0.240747 0.20865,0.240747 0.44939,0 1.21978,-0.256796 0.5457,-0.160498 0.96299,-0.240747 0.43335,-0.0963 0.91484,-0.0963 0.81854,0 1.34818,0.529643 0.5457,0.529644 0.5457,1.283984 0,1.396333 -1.20374,2.872915 -1.18768,1.476579 -2.85686,2.439569 -1.65313,0.97904 -2.88897,0.97904 z"
           id="path698" />
        <path
           d="m 130.55033,89.76343 q 0.11235,-0.208647 0.38519,-0.369145 0.2889,-0.176548 0.4815,-0.176548 0.0802,0 0.11235,0.04815 0.0481,0.04815 0.0161,0.128399 -0.6741,1.765478 -1.21979,4.349496 -0.54569,2.584017 -0.54569,4.076649 0,0.369145 -0.11235,0.369145 -0.1605,0 -0.30495,-0.529643 -0.11235,-0.449394 -0.11235,-1.300034 0,-0.690141 0.0481,-1.412382 0.0803,-1.091387 0.4494,-2.728467 0.36914,-1.653129 0.80249,-2.455619 z m 3.27416,8.715042 q 0.0642,0 0.0642,0.04815 0,0.0321 -0.11235,0.0963 -0.11235,0.04815 -0.24075,0.04815 -0.40124,0 -1.33213,-0.577792 -0.93089,-0.593843 -1.65313,-1.251885 -0.72224,-0.658042 -0.56175,-0.81854 l 0.36915,-0.337046 q 0.97904,-0.914838 1.54078,-1.621029 0.57779,-0.706192 0.46545,-1.300034 -0.016,-0.112349 0.14444,-0.08025 0.1605,0.0321 0.30495,0.224697 0.14445,0.176548 0.14445,0.465444 0,0.256797 -0.2889,0.722241 -0.27284,0.465444 -0.81854,1.011138 -0.52964,0.545693 -1.25188,1.011137 0.91484,0.882739 1.84572,1.572881 0.93089,0.690141 1.38029,0.78644 z"
           id="path700" />
        <path
           d="m 138.88018,98.976016 q -0.57779,0 -0.88274,-0.722241 -0.30494,-0.722241 -0.30494,-1.717329 0,-0.545693 0.11235,-1.155586 -0.56175,0.738291 -0.99509,1.171636 -0.43335,0.433344 -0.83459,0.433344 -0.2568,0 -0.4173,-0.192597 -0.16049,-0.192598 -0.16049,-0.545694 0,-0.593842 0.38519,-1.251884 0.3852,-0.658042 0.97904,-1.091386 0.60989,-0.449395 1.20373,-0.449395 0.1284,0 0.20865,0.0642 0.0963,0.04815 0.0803,0.112349 0,0.0642 -0.0803,0.0642 -0.52964,0 -1.02719,0.561743 -0.49754,0.545693 -0.83459,1.251885 -0.32099,0.690141 -0.32099,0.995087 0,0.112349 0.0642,0.112349 0.17655,0 0.54569,-0.369146 0.3852,-0.385195 0.86669,-1.139535 0.49754,-0.754341 0.99509,-1.829678 0.0642,-0.144448 0.27284,-0.240747 0.2247,-0.0963 0.43335,-0.0963 0.35309,0 0.27285,0.240747 -0.5778,1.380282 -0.78644,2.35932 -0.1926,0.979038 -0.1926,1.893877 0,0.561743 0.1284,0.866689 0.12839,0.288896 0.30494,0.288896 0.43335,0 1.38029,-0.77039 0.94693,-0.78644 1.89387,-1.797578 0.94694,-1.027187 1.28399,-1.58893 0.0642,-0.128398 0.16049,-0.128398 0.0642,0 0.0642,0.128398 0,0.08025 -0.0481,0.224697 -0.17654,0.417295 -1.12348,1.508681 -0.93089,1.075337 -1.97413,1.942026 -1.04324,0.86669 -1.65313,0.86669 z"
           id="path702" />
      </g>
      <path
         style="fill:#805f46;stroke-width:0.182033;stroke-linecap:square"
         d="m 81.191345,90.931621 2.373492,-2.060012 c 0,0 0.671743,-0.246306 0.515004,0.425437 -0.156739,0.671743 -2.328709,1.88088 -2.328709,1.88088 z"
         id="path682" />
      <path
         style="fill:#805f46;stroke-width:0.182033;stroke-linecap:square"
         d="m 116.08757,91.02662 2.3735,-2.060012 c 0,0 0.67174,-0.246306 0.515,0.425437 -0.15674,0.671743 -2.32871,1.88088 -2.32871,1.88088 z"
         id="path684" />
    </g>
  </g>
</svg>
