<?xml version="1.0" encoding="UTF-8" standalone="no"?>
<!-- Created with Inkscape (http://www.inkscape.org/) -->

<svg
   width="144.23318mm"
   height="141.32182mm"
   viewBox="0 0 144.23318 141.32182"
   version="1.1"
   id="svg5"
   inkscape:version="1.2.2 (732a01da63, 2022-12-09)"
   sodipodi:docname="vlaskolaska.svg"
   inkscape:export-filename="4.svg"
   inkscape:export-xdpi="96"
   inkscape:export-ydpi="96"
   xmlns:inkscape="http://www.inkscape.org/namespaces/inkscape"
   xmlns:sodipodi="http://sodipodi.sourceforge.net/DTD/sodipodi-0.dtd"
   xmlns="http://www.w3.org/2000/svg"
   xmlns:svg="http://www.w3.org/2000/svg">
  <sodipodi:namedview
     id="namedview7"
     pagecolor="#ffffff"
     bordercolor="#000000"
     borderopacity="0.25"
     inkscape:showpageshadow="2"
     inkscape:pageopacity="0.0"
     inkscape:pagecheckerboard="0"
     inkscape:deskcolor="#d1d1d1"
     inkscape:document-units="mm"
     showgrid="false"
     inkscape:zoom="1.0444209"
     inkscape:cx="15.319494"
     inkscape:cy="300.64508"
     inkscape:window-width="1920"
     inkscape:window-height="1009"
     inkscape:window-x="-8"
     inkscape:window-y="-8"
     inkscape:window-maximized="1"
     inkscape:current-layer="layer2" />
  <defs
     id="defs2" />
  <g
     inkscape:groupmode="layer"
     id="layer2"
     inkscape:label="logo"
     transform="translate(-31.735465,-24.052341)">
    <g
       aria-label="účes &amp; makeup"
       transform="matrix(1.224091,0,0,0.99838246,-9.3589108,-9.2572546)"
       id="text4031"
       style="font-size:7.89704px;line-height:0px;font-family:Anton;-inkscape-font-specification:'Anton, Normal';fill:#828f92;fill-opacity:1;stroke-width:0.0895664;stroke-linecap:square"
       inkscape:export-filename="4.svg"
       inkscape:export-xdpi="96"
       inkscape:export-ydpi="96">
      <path
         d="m 75.674636,121.25388 h 0.426519 v -2.74698 h -0.472217 v 1.97011 q -0.03808,0.0889 -0.09647,0.16502 -0.05585,0.0736 -0.132018,0.12694 -0.0914,0.066 -0.215798,0.10409 -0.124401,0.0356 -0.281806,0.0356 -0.134557,0 -0.238648,-0.0356 -0.101551,-0.0355 -0.172638,-0.1244 -0.07109,-0.0863 -0.106629,-0.23357 -0.03554,-0.14725 -0.03554,-0.37066 v -1.63753 h -0.469677 v 1.63245 q 0,0.3072 0.06601,0.52807 0.06855,0.21834 0.192949,0.36051 0.124401,0.14217 0.299578,0.21072 0.175178,0.066 0.390975,0.066 0.269113,0 0.474756,-0.11171 0.205643,-0.11424 0.342738,-0.31735 z m -0.446828,-3.7625 -0.467139,0.67532 h 0.355432 l 0.680398,-0.67532 z"
         style="font-size:5.19946px;font-family:'Roboto Mono';-inkscape-font-specification:'Roboto Mono, Normal';fill:#828f92;fill-opacity:1"
         id="path705" />
      <path
         d="m 78.155043,120.92384 q -0.220876,0 -0.370665,-0.0863 -0.14725,-0.0889 -0.236108,-0.23103 -0.0914,-0.13963 -0.132018,-0.31481 -0.03808,-0.17772 -0.03808,-0.35797 v -0.10663 q 0,-0.17772 0.03808,-0.35289 0.04062,-0.17518 0.132018,-0.31735 0.0914,-0.13964 0.238647,-0.22596 0.149789,-0.0889 0.368126,-0.0889 0.142173,0 0.264035,0.0482 0.124401,0.0482 0.213259,0.13202 0.08886,0.0838 0.139634,0.19549 0.05332,0.10917 0.05585,0.23357 h 0.444289 q 0,-0.20819 -0.08378,-0.39098 -0.08378,-0.18279 -0.231031,-0.31735 -0.149789,-0.13202 -0.355432,-0.20818 -0.203103,-0.0787 -0.446828,-0.0787 -0.312272,0 -0.545842,0.1117 -0.233569,0.11171 -0.388436,0.29958 -0.157406,0.19041 -0.236108,0.43921 -0.0787,0.24881 -0.0787,0.52046 v 0.10663 q 0,0.27419 0.0787,0.52299 0.0787,0.24626 0.236108,0.43414 0.154867,0.19041 0.388436,0.30211 0.23357,0.11171 0.545842,0.11171 0.218337,0 0.418902,-0.0736 0.200565,-0.0762 0.355431,-0.2031 0.154867,-0.1244 0.246264,-0.28942 0.09394,-0.16756 0.09647,-0.35036 h -0.444289 q -0.0025,0.11425 -0.06093,0.21326 -0.05585,0.0965 -0.149789,0.16756 -0.09394,0.0736 -0.215798,0.11425 -0.119323,0.0406 -0.246263,0.0406 z m 0.01777,-3.20143 -0.383358,-0.38589 h -0.398592 v 0.0533 l 0.637239,0.62201 h 0.289423 l 0.644855,-0.62962 v -0.0457 h -0.406208 z"
         style="font-size:5.19946px;font-family:'Roboto Mono';-inkscape-font-specification:'Roboto Mono, Normal';fill:#828f92;fill-opacity:1"
         id="path707" />
      <path
         d="m 81.318386,121.30466 q 0.40113,0 0.672782,-0.15994 0.27419,-0.16249 0.411285,-0.37067 l -0.286884,-0.22341 q -0.129479,0.16756 -0.324966,0.26911 -0.195488,0.10155 -0.446829,0.10155 -0.19041,0 -0.347815,-0.0711 -0.157406,-0.0711 -0.269113,-0.19548 -0.109168,-0.11679 -0.172638,-0.26912 -0.06093,-0.15232 -0.0787,-0.35289 v -0.0178 h 1.962491 v -0.21072 q 0,-0.28689 -0.07362,-0.53315 -0.07109,-0.24626 -0.218336,-0.42906 -0.147251,-0.18025 -0.370665,-0.2818 -0.220876,-0.10409 -0.517915,-0.10409 -0.236108,0 -0.462061,0.0965 -0.223415,0.0965 -0.398592,0.27673 -0.177716,0.18279 -0.284345,0.44683 -0.10663,0.2615 -0.10663,0.59408 v 0.10663 q 0,0.28688 0.09647,0.53061 0.09647,0.24372 0.269113,0.42144 0.172638,0.17771 0.413824,0.27673 0.243725,0.099 0.533148,0.099 z m -0.06093,-2.46264 q 0.180255,0 0.309733,0.066 0.132018,0.066 0.218337,0.17264 0.08632,0.10663 0.134556,0.25388 0.04824,0.14471 0.04824,0.27165 v 0.0229 h -1.477581 q 0.02793,-0.19041 0.09647,-0.33512 0.07109,-0.14725 0.172638,-0.2488 0.101552,-0.099 0.228492,-0.14979 0.12694,-0.0533 0.269113,-0.0533 z"
         style="font-size:5.19946px;font-family:'Roboto Mono';-inkscape-font-specification:'Roboto Mono, Normal';fill:#828f92;fill-opacity:1"
         id="path709" />
      <path
         d="m 85.05042,120.52525 q 0,0.066 -0.02539,0.1244 -0.02539,0.0584 -0.07362,0.10663 -0.0787,0.0787 -0.218337,0.1244 -0.139634,0.0432 -0.327505,0.0432 -0.119323,0 -0.241186,-0.0254 -0.121862,-0.0254 -0.220875,-0.0863 -0.101552,-0.0609 -0.1701,-0.15994 -0.06601,-0.099 -0.07616,-0.24373 H 83.22757 q 0,0.17518 0.0787,0.33766 0.08124,0.16249 0.23357,0.28435 0.149789,0.1244 0.368126,0.20056 0.218336,0.0736 0.497604,0.0736 0.243725,0 0.449368,-0.0584 0.205642,-0.0584 0.352893,-0.16502 0.14725,-0.10663 0.228492,-0.25642 0.08378,-0.14979 0.08378,-0.33259 0,-0.1701 -0.07363,-0.29957 -0.07109,-0.12948 -0.208182,-0.2285 -0.137095,-0.0965 -0.33766,-0.16502 -0.200565,-0.0711 -0.454445,-0.1244 -0.192949,-0.0381 -0.319889,-0.0787 -0.124401,-0.0406 -0.198026,-0.0914 -0.07616,-0.0508 -0.10663,-0.11424 -0.03047,-0.0635 -0.03047,-0.14472 0,-0.0787 0.03808,-0.15232 0.03808,-0.0736 0.114246,-0.12948 0.07362,-0.0559 0.185332,-0.0889 0.114246,-0.033 0.264035,-0.033 0.144712,0 0.258958,0.0406 0.116784,0.0406 0.198026,0.10662 0.08124,0.066 0.12694,0.15233 0.0457,0.0838 0.0457,0.17264 h 0.469678 q 0,-0.18025 -0.0787,-0.33512 -0.07616,-0.15741 -0.218336,-0.27419 -0.142173,-0.11679 -0.345277,-0.18279 -0.203104,-0.066 -0.456984,-0.066 -0.236108,0 -0.434134,0.0635 -0.195488,0.0635 -0.337661,0.17264 -0.142172,0.10916 -0.220875,0.25641 -0.0787,0.14472 -0.0787,0.31228 0,0.1701 0.07616,0.29957 0.07616,0.12694 0.215798,0.22088 0.137095,0.0965 0.330044,0.16502 0.195487,0.0686 0.431596,0.11679 0.192948,0.0381 0.322427,0.0863 0.129479,0.0457 0.208182,0.10155 0.0787,0.0559 0.111707,0.1244 0.033,0.066 0.033,0.14979 z"
         style="font-size:5.19946px;font-family:'Roboto Mono';-inkscape-font-specification:'Roboto Mono, Normal';fill:#828f92;fill-opacity:1"
         id="path711" />
      <path
         d="m 89.295292,120.30691 q 0,0.21834 0.07616,0.40367 0.0787,0.18279 0.220876,0.31481 0.142172,0.13202 0.345276,0.20564 0.203104,0.0736 0.454445,0.0736 0.154867,0 0.299578,-0.033 0.147251,-0.033 0.281807,-0.0965 0.08124,-0.0381 0.157406,-0.0889 0.0787,-0.0508 0.149789,-0.1117 l 0.21072,0.27926 h 0.561075 l -0.459523,-0.60169 q 0.177716,-0.22342 0.269113,-0.50015 0.09393,-0.27926 0.09393,-0.60423 h -0.423979 q -0.0025,0.22341 -0.05332,0.41636 -0.05078,0.19295 -0.139634,0.35544 l -0.779411,-1.02314 0.238647,-0.2031 q 0.111707,-0.0838 0.208182,-0.1701 0.09647,-0.0863 0.16756,-0.1828 0.06855,-0.0965 0.10663,-0.20564 0.04062,-0.11171 0.04062,-0.24626 0,-0.15741 -0.05585,-0.29958 -0.05585,-0.14217 -0.157406,-0.25134 -0.10409,-0.10663 -0.251341,-0.1701 -0.14725,-0.0635 -0.327505,-0.0635 -0.208181,0 -0.375742,0.0584 -0.167561,0.0584 -0.286884,0.1701 -0.119324,0.11425 -0.185332,0.28181 -0.06347,0.16502 -0.06347,0.38082 0,0.10155 0.02031,0.19802 0.02285,0.0965 0.06093,0.19041 0.04824,0.11425 0.121862,0.23357 0.07363,0.11679 0.167561,0.24373 l -0.0914,0.066 q -0.124401,0.0939 -0.228491,0.1904 -0.101552,0.0965 -0.180255,0.20311 -0.0914,0.12694 -0.142173,0.27165 -0.05078,0.14471 -0.05078,0.31481 z m 1.096761,0.61693 q -0.154867,0 -0.271651,-0.0482 -0.116785,-0.0482 -0.195488,-0.13202 -0.0787,-0.0838 -0.119323,-0.19548 -0.04062,-0.11171 -0.04062,-0.24119 0,-0.0482 0.01269,-0.11932 0.01523,-0.0736 0.05839,-0.16249 0.04062,-0.0863 0.119324,-0.18533 0.0787,-0.099 0.205643,-0.2031 l 0.07109,-0.0609 0.820032,1.09422 q -0.06093,0.0508 -0.12694,0.0939 -0.06347,0.0406 -0.132018,0.0711 -0.09394,0.0432 -0.195487,0.066 -0.101552,0.0229 -0.205643,0.0229 z m -0.302117,-2.53372 q 0,-0.10155 0.02793,-0.19041 0.02793,-0.0914 0.08378,-0.15995 0.05331,-0.0685 0.134557,-0.10916 0.08378,-0.0406 0.192948,-0.0406 0.08378,0 0.149789,0.0356 0.06601,0.033 0.114246,0.0863 0.0457,0.0558 0.06855,0.12948 0.02539,0.0711 0.02539,0.14725 0,0.0584 -0.01269,0.11932 -0.01015,0.0609 -0.03808,0.11932 -0.02793,0.0609 -0.0787,0.11933 -0.05078,0.0584 -0.129478,0.1117 l -0.29704,0.23611 q -0.06347,-0.0914 -0.111707,-0.17771 -0.04824,-0.0863 -0.0787,-0.1701 -0.02539,-0.0635 -0.03808,-0.12694 -0.01269,-0.066 -0.01269,-0.12948 z"
         style="font-size:5.19946px;font-family:'Roboto Mono';-inkscape-font-specification:'Roboto Mono, Normal';fill:#828f92;fill-opacity:1"
         id="path713" />
      <path
         d="m 95.921556,118.5069 h -0.42144 v 2.74698 h 0.446828 v -2.1859 q 0.01523,-0.0406 0.03808,-0.0762 0.02539,-0.0355 0.05839,-0.0635 0.04316,-0.0355 0.104091,-0.0533 0.06347,-0.0203 0.14725,-0.0203 0.07616,0 0.132017,0.0203 0.05839,0.0178 0.09647,0.0584 0.04062,0.0432 0.05839,0.10917 0.02031,0.066 0.02031,0.15233 v 2.05896 h 0.446828 v -2.05642 q 0,-0.0152 0,-0.0254 0,-0.0127 0,-0.0254 0.0076,-0.0635 0.03047,-0.11425 0.02285,-0.0533 0.06347,-0.0939 0.04062,-0.0381 0.101552,-0.0609 0.06093,-0.0229 0.144711,-0.0229 0.0787,0 0.137095,0.0203 0.06093,0.0203 0.101552,0.0609 0.03808,0.0432 0.05839,0.10917 0.02031,0.066 0.02031,0.15233 v 2.05642 h 0.446829 v -2.05135 q 0,-0.19802 -0.0457,-0.34273 -0.0457,-0.14725 -0.132017,-0.23865 -0.0787,-0.0812 -0.192949,-0.12186 -0.114246,-0.0432 -0.256419,-0.0432 -0.10409,0.003 -0.192948,0.0279 -0.08632,0.0254 -0.157406,0.0686 -0.05585,0.0381 -0.104091,0.0889 -0.04824,0.0508 -0.08378,0.10917 -0.02793,-0.0635 -0.06855,-0.11425 -0.03808,-0.0508 -0.08632,-0.0863 -0.06601,-0.0457 -0.154866,-0.0685 -0.08632,-0.0254 -0.195488,-0.0254 -0.192949,0.003 -0.330044,0.0838 -0.134556,0.0812 -0.218337,0.22595 z"
         style="font-size:5.19946px;font-family:'Roboto Mono';-inkscape-font-specification:'Roboto Mono, Normal';fill:#828f92;fill-opacity:1"
         id="path715" />
      <path
         d="m 100.63103,121.25388 h 0.48999 v -0.0406 q -0.0457,-0.11424 -0.0711,-0.26657 -0.0254,-0.15487 -0.0254,-0.29196 v -1.27702 q 0,-0.23103 -0.0838,-0.40367 -0.0838,-0.17264 -0.22849,-0.28942 -0.14725,-0.11425 -0.34782,-0.1701 -0.20056,-0.0584 -0.43413,-0.0584 -0.256419,0 -0.459523,0.0711 -0.200565,0.0711 -0.340199,0.18534 -0.142172,0.11678 -0.218336,0.26149 -0.07362,0.14471 -0.07616,0.2945 h 0.472216 q 0,-0.0863 0.04062,-0.16502 0.04316,-0.0812 0.119324,-0.13963 0.07616,-0.0584 0.185332,-0.0939 0.111707,-0.0355 0.251341,-0.0355 0.149785,0 0.269105,0.0381 0.12187,0.0381 0.20565,0.10663 0.0838,0.0711 0.12948,0.1701 0.0457,0.099 0.0457,0.22341 v 0.2158 H 100.042 q -0.286884,0 -0.520454,0.0558 -0.23103,0.0559 -0.396052,0.16757 -0.165022,0.11424 -0.256419,0.28434 -0.08886,0.1701 -0.08886,0.39605 0,0.17264 0.06601,0.32243 0.06855,0.14725 0.192949,0.25388 0.121862,0.10917 0.297039,0.17264 0.177716,0.0635 0.396053,0.0635 0.134556,0 0.25388,-0.0279 0.119324,-0.0279 0.225954,-0.0762 0.10409,-0.0482 0.19041,-0.11171 0.0888,-0.0635 0.15994,-0.13455 0.008,0.0863 0.0229,0.16756 0.0178,0.0787 0.0457,0.13201 z m -0.830189,-0.35797 q -0.137095,0 -0.241186,-0.0355 -0.10409,-0.0355 -0.172638,-0.099 -0.06855,-0.0609 -0.104091,-0.14725 -0.033,-0.0863 -0.033,-0.18788 0,-0.10662 0.03808,-0.1904 0.04062,-0.0838 0.116785,-0.14472 0.106629,-0.0863 0.286884,-0.12694 0.182793,-0.0432 0.426515,-0.0432 h 0.43667 v 0.556 q -0.0406,0.0812 -0.1117,0.15741 -0.0711,0.0736 -0.16756,0.13201 -0.099,0.0584 -0.21834,0.0939 -0.119322,0.0355 -0.256417,0.0355 z"
         style="font-size:5.19946px;font-family:'Roboto Mono';-inkscape-font-specification:'Roboto Mono, Normal';fill:#828f92;fill-opacity:1"
         id="path717" />
      <path
         d="m 102.7687,119.97179 1.0079,1.28209 h 0.59662 l -1.2821,-1.60198 1.112,-1.145 h -0.57123 l -0.90127,0.90382 -0.3072,0.33004 v -2.38647 h -0.47222 v 3.89959 h 0.47222 v -0.94951 z"
         style="font-size:5.19946px;font-family:'Roboto Mono';-inkscape-font-specification:'Roboto Mono, Normal';fill:#828f92;fill-opacity:1"
         id="path719" />
      <path
         d="m 106.27986,121.30466 q 0.40113,0 0.67278,-0.15994 0.27419,-0.16249 0.41128,-0.37067 l -0.28688,-0.22341 q -0.12948,0.16756 -0.32497,0.26911 -0.19548,0.10155 -0.44683,0.10155 -0.19041,0 -0.34781,-0.0711 -0.15741,-0.0711 -0.26911,-0.19548 -0.10917,-0.11679 -0.17264,-0.26912 -0.0609,-0.15232 -0.0787,-0.35289 v -0.0178 h 1.96249 v -0.21072 q 0,-0.28689 -0.0736,-0.53315 -0.0711,-0.24626 -0.21834,-0.42906 -0.14725,-0.18025 -0.37066,-0.2818 -0.22088,-0.10409 -0.51791,-0.10409 -0.23611,0 -0.46207,0.0965 -0.22341,0.0965 -0.39859,0.27673 -0.17771,0.18279 -0.28434,0.44683 -0.10663,0.2615 -0.10663,0.59408 v 0.10663 q 0,0.28688 0.0965,0.53061 0.0965,0.24372 0.26911,0.42144 0.17264,0.17771 0.41383,0.27673 0.24372,0.099 0.53315,0.099 z m -0.0609,-2.46264 q 0.18025,0 0.30973,0.066 0.13202,0.066 0.21834,0.17264 0.0863,0.10663 0.13455,0.25388 0.0482,0.14471 0.0482,0.27165 v 0.0229 h -1.47758 q 0.0279,-0.19041 0.0965,-0.33512 0.0711,-0.14725 0.17264,-0.2488 0.10155,-0.099 0.22849,-0.14979 0.12694,-0.0533 0.26912,-0.0533 z"
         style="font-size:5.19946px;font-family:'Roboto Mono';-inkscape-font-specification:'Roboto Mono, Normal';fill:#828f92;fill-opacity:1"
         id="path721" />
      <path
         d="m 109.99666,121.25388 h 0.42652 v -2.74698 h -0.47222 v 1.97011 q -0.0381,0.0889 -0.0965,0.16502 -0.0559,0.0736 -0.13202,0.12694 -0.0914,0.066 -0.2158,0.10409 -0.1244,0.0356 -0.28181,0.0356 -0.13455,0 -0.23864,-0.0356 -0.10156,-0.0355 -0.17264,-0.1244 -0.0711,-0.0863 -0.10663,-0.23357 -0.0356,-0.14725 -0.0356,-0.37066 v -1.63753 h -0.46967 v 1.63245 q 0,0.3072 0.066,0.52807 0.0685,0.21834 0.19294,0.36051 0.12441,0.14217 0.29958,0.21072 0.17518,0.066 0.39098,0.066 0.26911,0 0.47475,-0.11171 0.20565,-0.11424 0.34274,-0.31735 z"
         style="font-size:5.19946px;font-family:'Roboto Mono';-inkscape-font-specification:'Roboto Mono, Normal';fill:#828f92;fill-opacity:1"
         id="path723" />
      <path
         d="m 111.30414,122.31002 h 0.46968 v -1.32017 q 0.0508,0.0558 0.10916,0.10409 0.0584,0.0457 0.1244,0.0838 0.10917,0.0609 0.24373,0.0939 0.13709,0.033 0.2945,0.033 0.25896,0 0.45952,-0.10663 0.20311,-0.10663 0.3402,-0.2945 0.1371,-0.18787 0.20818,-0.44175 0.0711,-0.25642 0.0711,-0.55092 v -0.0533 q 0,-0.30719 -0.0711,-0.56361 -0.0711,-0.25896 -0.20818,-0.44429 -0.13709,-0.18533 -0.3402,-0.28942 -0.2031,-0.10409 -0.46714,-0.10409 -0.14979,0 -0.2818,0.033 -0.12948,0.0305 -0.23611,0.0914 -0.0762,0.0406 -0.14217,0.099 -0.066,0.0558 -0.12187,0.12694 l -0.0229,-0.29958 h -0.42905 z m 1.85078,-2.45248 v 0.0533 q 0,0.20056 -0.0457,0.38336 -0.0432,0.18279 -0.13455,0.32242 -0.0914,0.13964 -0.23357,0.22342 -0.14218,0.0812 -0.33766,0.0812 -0.12186,0 -0.22342,-0.0305 -0.099,-0.0305 -0.18025,-0.0838 -0.0711,-0.0457 -0.12694,-0.1117 -0.0559,-0.066 -0.099,-0.14218 v -1.32271 q 0.0482,-0.0863 0.1117,-0.1574 0.0635,-0.0711 0.14471,-0.11933 0.0736,-0.0482 0.16503,-0.0736 0.0939,-0.0254 0.2031,-0.0254 0.19803,0 0.3402,0.0812 0.14217,0.0812 0.23611,0.21834 0.0914,0.13963 0.13455,0.32242 0.0457,0.18026 0.0457,0.38082 z"
         style="font-size:5.19946px;font-family:'Roboto Mono';-inkscape-font-specification:'Roboto Mono, Normal';fill:#828f92;fill-opacity:1"
         id="path725" />
    </g>
  </g>
</svg>
