<?xml version="1.0" encoding="UTF-8" standalone="no"?>
<!-- Created with Inkscape (http://www.inkscape.org/) -->

<svg
   width="297.39688mm"
   height="211.19063mm"
   viewBox="0 0 297.39688 211.19063"
   version="1.1"
   id="svg5"
   inkscape:version="1.2.2 (732a01da63, 2022-12-09)"
   sodipodi:docname="bg1.svg"
   xml:space="preserve"
   xmlns:inkscape="http://www.inkscape.org/namespaces/inkscape"
   xmlns:sodipodi="http://sodipodi.sourceforge.net/DTD/sodipodi-0.dtd"
   xmlns="http://www.w3.org/2000/svg"
   xmlns:svg="http://www.w3.org/2000/svg"><sodipodi:namedview
     id="namedview7"
     pagecolor="#ffffff"
     bordercolor="#000000"
     borderopacity="0.25"
     inkscape:showpageshadow="2"
     inkscape:pageopacity="0.0"
     inkscape:pagecheckerboard="0"
     inkscape:deskcolor="#d1d1d1"
     inkscape:document-units="mm"
     showgrid="false"
     inkscape:zoom="0.36925855"
     inkscape:cx="838.1661"
     inkscape:cy="1122.5197"
     inkscape:window-width="1920"
     inkscape:window-height="991"
     inkscape:window-x="-9"
     inkscape:window-y="-9"
     inkscape:window-maximized="1"
     inkscape:current-layer="layer2" /><defs
     id="defs2" /><g
     inkscape:groupmode="layer"
     id="layer2"
     inkscape:label="logo"
     transform="translate(0.19843751,0.39687575)"><path
       style="fill:#d3b498;fill-opacity:1;stroke:#000000;stroke-width:0.396875;stroke-linecap:round;stroke-linejoin:round;stroke-opacity:0"
       d="m 183.71765,-0.39687575 h 113.48079 l 0,211.19062575 -12.42688,0 -75.90425,-119.436693 z"
       id="path1804"
       sodipodi:nodetypes="cccccc" /><path
       style="fill:#dcc2ab;fill-opacity:1;stroke:#000000;stroke-width:0.396875;stroke-linecap:round;stroke-linejoin:round;stroke-opacity:0"
       d="m 156.48175,-0.39687575 h 27.27548 c 0,0 12.21262,44.10495675 23.31877,61.30157975 11.10615,17.196623 50.15681,76.183556 53.73944,91.293826 3.58263,15.11028 24.03529,58.59522 24.03529,58.59522 l -31.20055,0 -93.50663,-155.979516 z"
       id="path1748"
       sodipodi:nodetypes="ccsscccc" /><path
       style="fill:#dfc9b4;fill-opacity:1;stroke:#000000;stroke-width:0.396875;stroke-linecap:round;stroke-linejoin:round;stroke-opacity:0"
       d="m 125.64738,-0.39687575 30.90562,7.6e-7 c 0,0 37.26727,91.98909899 44.07426,102.50182499 6.807,10.51272 26.1532,15.96267 31.88541,29.73582 5.7322,13.77316 11.10615,24.36189 16.12183,33.67672 5.01568,9.31484 26.60647,45.27626 26.60647,45.27626 l -49.89356,0 L 123.60072,26.153197 Z"
       id="path1692"
       sodipodi:nodetypes="ccssscccc" /><path
       style="fill:#eadacb;fill-opacity:1;stroke:#000000;stroke-width:0.396875;stroke-linecap:round;stroke-linejoin:round;stroke-opacity:0"
       d="m 99.430858,-0.39687575 26.319442,7.6e-7 c 0,0 15.76357,42.31364299 22.7497,52.70326899 6.98613,10.389626 53.20205,102.104946 55.35163,106.762366 2.14958,4.65742 21.6973,51.72499 21.6973,51.72499 H 213.72315 L 79.892643,60.188178 Z"
       id="path1690"
       sodipodi:nodetypes="ccsscccc" /><path
       style="fill:#efe3d7;fill-opacity:1;stroke:#000000;stroke-width:0.396875;stroke-linecap:round;stroke-linejoin:round;stroke-opacity:0"
       d="m 99.56544,-0.39687488 -99.76387751,-8.7e-7 0,211.19062575 H 213.90538 c 0,0 -90.74209,-162.481928 -114.38744,-211.19062488"
       id="path1482"
       sodipodi:nodetypes="ccccc" /></g></svg>
