<?xml version="1.0" encoding="UTF-8" standalone="no"?>
<!-- Created with Inkscape (http://www.inkscape.org/) -->

<svg
   width="297.39688mm"
   height="211.19063mm"
   viewBox="0 0 297.39688 211.19063"
   version="1.1"
   id="svg5"
   inkscape:version="1.2.2 (732a01da63, 2022-12-09)"
   sodipodi:docname="background.svg"
   xml:space="preserve"
   xmlns:inkscape="http://www.inkscape.org/namespaces/inkscape"
   xmlns:sodipodi="http://sodipodi.sourceforge.net/DTD/sodipodi-0.dtd"
   xmlns="http://www.w3.org/2000/svg"
   xmlns:svg="http://www.w3.org/2000/svg"><sodipodi:namedview
     id="namedview7"
     pagecolor="#ffffff"
     bordercolor="#000000"
     borderopacity="0.25"
     inkscape:showpageshadow="2"
     inkscape:pageopacity="0.0"
     inkscape:pagecheckerboard="0"
     inkscape:deskcolor="#d1d1d1"
     inkscape:document-units="mm"
     showgrid="false"
     inkscape:zoom="1.0444209"
     inkscape:cx="272.39976"
     inkscape:cy="299.68761"
     inkscape:window-width="1920"
     inkscape:window-height="1009"
     inkscape:window-x="-8"
     inkscape:window-y="-8"
     inkscape:window-maximized="1"
     inkscape:current-layer="layer2" /><defs
     id="defs2" /><g
     inkscape:groupmode="layer"
     id="layer2"
     inkscape:label="logo"
     transform="translate(0.19843751,0.39687575)"><path
       style="fill:#d3b498;fill-opacity:1;stroke:#000000;stroke-width:0.396875;stroke-linecap:round;stroke-linejoin:round;stroke-opacity:0"
       d="M 183.7889,-0.1984383 297,-2.9978486e-7 V 210 l -12.18094,0.59531 -75.95175,-119.238253 z"
       id="path1804"
       inkscape:export-filename="bg2.svg"
       inkscape:export-xdpi="96"
       inkscape:export-ydpi="96" /><path
       style="fill:#dcc2ab;fill-opacity:1;stroke:#000000;stroke-width:0.396875;stroke-linecap:round;stroke-linejoin:round;stroke-opacity:0"
       d="m 156.56092,-0.19843749 h 27.22798 c 0,0 12.18095,43.90651849 23.2871,61.10314149 11.10615,17.196623 50.15681,76.183556 53.73944,91.293826 3.58263,15.11028 24.00362,58.39678 24.00362,58.39678 L 253.65018,210 160.14355,54.814234 Z"
       id="path1748" /><path
       style="fill:#dacdc0;fill-opacity:1;stroke:#000000;stroke-width:0.396875;stroke-linecap:round;stroke-linejoin:round;stroke-opacity:0"
       d="m 125.7503,-0.19843749 h 30.81062 c 0,0 37.25935,91.79066149 44.06634,102.30338749 6.807,10.51272 26.1532,15.96267 31.88541,29.73582 5.7322,13.77316 11.10615,24.36189 16.12183,33.67672 5.01568,9.31484 26.51147,44.87938 26.51147,44.87938 L 225.34741,210.19844 123.60072,26.153197 Z"
       id="path1692" /><path
       style="fill:#cbdfe1;fill-opacity:1;stroke:#000000;stroke-width:0.396875;stroke-linecap:round;stroke-linejoin:round;stroke-opacity:0"
       d="M 99.597106,0 125.7503,-0.19843749 c 0,0 15.76357,42.11520549 22.7497,52.50483149 6.98613,10.389626 53.20205,102.104946 55.35163,106.762366 2.14958,4.65742 21.49578,51.12968 21.49578,51.12968 L 213.52473,209.99999 79.892643,60.188178 Z"
       id="path1690" /><path
       style="fill:#dff1f3;fill-opacity:1;stroke:#000000;stroke-width:0.396875;stroke-linecap:round;stroke-linejoin:round;stroke-opacity:0"
       d="M 99.597106,0 H 0 v 210 l 213.52473,-1e-5 c 0,0 -90.28227,-160.948098 -113.927624,-209.65679507"
       id="path1482" /></g></svg>
