<?xml version="1.0" encoding="UTF-8" standalone="no"?>
<!-- Created with Inkscape (http://www.inkscape.org/) -->

<svg
   width="71.899155mm"
   height="36.429157mm"
   viewBox="0 0 71.899145 36.429156"
   version="1.1"
   id="svg5"
   inkscape:version="1.2.2 (732a01da63, 2022-12-09)"
   sodipodi:docname="gallery.svg"
   inkscape:export-filename="vlaskolaska-about.svg"
   inkscape:export-xdpi="96"
   inkscape:export-ydpi="96"
   xmlns:inkscape="http://www.inkscape.org/namespaces/inkscape"
   xmlns:sodipodi="http://sodipodi.sourceforge.net/DTD/sodipodi-0.dtd"
   xmlns="http://www.w3.org/2000/svg"
   xmlns:svg="http://www.w3.org/2000/svg">
  <sodipodi:namedview
     id="namedview7"
     pagecolor="#ffffff"
     bordercolor="#000000"
     borderopacity="0.25"
     inkscape:showpageshadow="2"
     inkscape:pageopacity="0.0"
     inkscape:pagecheckerboard="0"
     inkscape:deskcolor="#d1d1d1"
     inkscape:document-units="mm"
     showgrid="false"
     inkscape:zoom="1.0444209"
     inkscape:cx="106.75773"
     inkscape:cy="213.03672"
     inkscape:window-width="1920"
     inkscape:window-height="991"
     inkscape:window-x="-9"
     inkscape:window-y="-9"
     inkscape:window-maximized="1"
     inkscape:current-layer="layer2" />
  <defs
     id="defs2" />
  <g
     inkscape:groupmode="layer"
     id="layer2"
     inkscape:label="logo"
     transform="translate(-78.669739,-64.01887)"
     inkscape:export-filename="gallery.svg"
     inkscape:export-xdpi="96"
     inkscape:export-ydpi="96">
    <g
       inkscape:groupmode="layer"
       id="layer3"
       inkscape:label="štetec" />
    <g
       inkscape:groupmode="layer"
       id="layer4"
       inkscape:label="hřeben" />
    <g
       aria-label="O mne"
       id="text1032"
       style="font-size:16.0498px;line-height:0px;font-family:'Un Jour Merveilleux Demo';-inkscape-font-specification:'Un Jour Merveilleux Demo, Normal';fill:#dbb09b;stroke:#000000;stroke-width:0.396875;stroke-linecap:round;stroke-linejoin:round;stroke-opacity:0">
      <g
         id="g2246"
         transform="matrix(1.200033,0,0,1.1652089,-16.522309,-12.64063)">
        <g
           id="g2447"
           style="fill:#805f46;fill-opacity:1">
          <g
             aria-label="Galerie  "
             transform="scale(0.85403514,1.170912)"
             id="text471"
             style="font-size:21.28px;stroke:#ffffff;stroke-width:0.526204">
            <path
               d="m 108.87106,68.473573 q 0.27664,-0.14896 0.57456,-0.14896 0.57456,0 1.12784,0.57456 0.55328,0.55328 0.89376,1.53216 0.34048,0.9576 0.34048,2.128 0,2.128 -1.42576,4.49008 -1.42576,2.38336 -3.68144,3.97936 -2.25568,1.596 -4.61776,1.596 -1.14912,0 -2.00032,-0.59584 -0.851197,-0.59584 -0.851197,-1.68112 0,-1.31936 1.234237,-2.4472 1.25552,-1.10656 3.06432,-1.76624 1.83008,-0.6384 3.42608,-0.6384 0.55328,0 1.12784,0.1064 0.19152,0.04256 0.29792,0.12768 0.12768,0.1064 0.12768,0.2128 0,0.12768 -0.19152,0.12768 -0.1064,0 -0.17024,-0.02128 -0.44688,-0.1064 -1.1704,-0.1064 -1.53216,0 -3.23456,0.59584 -1.7024,0.59584 -2.85152,1.596 -1.149117,1.02144 -1.149117,2.21312 0,0.80864 0.638397,1.2768 0.65968,0.48944 1.7024,0.48944 2.08544,0 4.08576,-1.596 2.00032,-1.57472 3.25584,-4.00064 1.25552,-2.40464 1.25552,-4.72416 0,-0.9576 -0.17024,-1.68112 -0.17024,-0.72352 -0.46816,-1.04272 -0.27664,-0.34048 -0.59584,-0.23408 -0.14896,0.06384 -0.9576,0.72352 -1.87264,1.51088 -3.57504,2.5536 -1.68112,1.02144 -3.34096,1.02144 -2.149277,0 -3.340957,-1.08528 -1.19168,-1.10656 -1.19168,-3.17072 0,-1.53216 0.44688,-3.10688 -1.44704,-0.04256 -2.42592,-0.51072 -0.97888,-0.48944 -1.44704,-1.23424 -0.46816,-0.76608 -0.46816,-1.61728 0,-0.78736 0.38304,-1.574721 0.38304,-0.78736 0.9576,-1.36192 0.57456,-0.57456 1.1704,-0.78736 0.25536,-0.08512 0.38304,-0.08512 0.17024,0 0.17024,0.08512 0,0.08512 -0.14896,0.2128 -0.87248,0.70224 -1.36192,1.57472 -0.48944,0.851201 -0.48944,1.659841 0,3.02176 3.44736,3.0856 0.8512,-2.46848 2.638717,-4.468801 1.8088,-2.0216 3.9368,-3.14944 2.128,-1.14912 3.91552,-1.14912 1.08528,0 1.7024,0.55328 0.6384,0.532 0.6384,1.42576 0,1.3832 -1.46832,3.021761 -1.44704,1.61728 -4.06448,2.85152 -2.59616,1.21296 -5.873277,1.42576 -0.4256,1.51088 -0.4256,3.10688 0,1.72368 0.70224,2.68128 0.723517,0.93632 2.213117,0.93632 1.3832,0 2.74512,-0.76608 1.36192,-0.78736 3.06432,-2.128 1.04272,-0.8512 1.4896,-1.08528 z m -0.72352,-11.342241 q -1.46832,0 -3.25584,1.04272 -1.78752,1.02144 -3.34096,2.8728 -1.53216,1.830081 -2.298237,4.107041 3.000477,-0.23408 5.405117,-1.3832 2.40464,-1.14912 3.74528,-2.638721 1.34064,-1.4896 1.34064,-2.70256 0,-0.61712 -0.4256,-0.9576 -0.40432,-0.34048 -1.1704,-0.34048 z"
               id="path1205" />
            <path
               d="m 118.76628,72.750853 q -0.76608,0 -1.1704,-0.9576 -0.40432,-0.9576 -0.40432,-2.27696 0,-0.72352 0.14896,-1.53216 -0.7448,0.97888 -1.31936,1.55344 -0.57456,0.57456 -1.10656,0.57456 -0.34048,0 -0.55328,-0.25536 -0.2128,-0.25536 -0.2128,-0.72352 0,-0.78736 0.51072,-1.65984 0.51072,-0.87248 1.29808,-1.44704 0.80864,-0.59584 1.596,-0.59584 0.17024,0 0.27664,0.08512 0.12768,0.06384 0.1064,0.14896 0,0.08512 -0.1064,0.08512 -0.70224,0 -1.36192,0.7448 -0.65968,0.72352 -1.10656,1.65984 -0.4256,0.91504 -0.4256,1.31936 0,0.14896 0.0851,0.14896 0.23408,0 0.72352,-0.48944 0.51072,-0.51072 1.14912,-1.51088 0.65968,-1.00016 1.31936,-2.42592 0.0851,-0.19152 0.36176,-0.3192 0.29792,-0.12768 0.57456,-0.12768 0.46816,0 0.36176,0.3192 -0.76608,1.83008 -1.04272,3.12816 -0.25536,1.29808 -0.25536,2.51104 0,0.7448 0.17024,1.14912 0.17024,0.38304 0.40432,0.38304 0.57456,0 1.83008,-1.02144 1.25552,-1.04272 2.51104,-2.38336 1.25552,-1.36192 1.7024,-2.10672 0.0851,-0.17024 0.2128,-0.17024 0.0851,0 0.0851,0.17024 0,0.1064 -0.0638,0.29792 -0.23408,0.55328 -1.4896,2.00032 -1.23424,1.42576 -2.61744,2.57488 -1.3832,1.14912 -2.19184,1.14912 z"
               id="path1207" />
            <path
               d="m 134.61989,66.728613 q 0.1064,-0.19152 0.2128,-0.19152 0.0851,0 0.0851,0.17024 0,0.12768 -0.0638,0.3192 -1.08528,2.70256 -3.00048,5.852 -1.9152,3.17072 -3.97936,3.17072 -1.19168,0 -2.04288,-0.82992 -0.82992,-0.80864 -1.25552,-2.14928 -0.4256,-1.31936 -0.4256,-2.85152 0,-3.02176 1.34064,-6.02224 1.34064,-3.00048 3.21328,-4.936961 1.87264,-1.93648 3.27712,-1.93648 0.8512,0 1.29808,0.48944 0.44688,0.46816 0.44688,1.31936 0,1.19168 -1.25552,2.723841 -1.25552,1.53216 -3.10688,2.89408 -1.85136,1.34064 -3.53248,1.95776 -0.51072,1.87264 -0.51072,3.5112 0,2.21312 0.6384,3.80912 0.6384,1.61728 1.9152,1.61728 1.08528,0 2.2344,-1.2768 1.14912,-1.2768 2.04288,-2.85152 0.89376,-1.596 1.87264,-3.59632 0.48944,-1.04272 0.59584,-1.19168 z m -2.53232,-8.873761 q -0.7448,0 -1.93648,1.1704 -1.19168,1.1704 -2.3408,3.106881 -1.14912,1.9152 -1.8088,4.0432 1.61728,-0.7448 3.25584,-2.00032 1.65984,-1.2768 2.72384,-2.68128 1.08528,-1.404481 1.08528,-2.511041 0,-0.59584 -0.25536,-0.8512 -0.23408,-0.27664 -0.72352,-0.27664 z"
               id="path1209" />
            <path
               d="m 141.17411,66.835013 q 0.14896,-0.27664 0.36176,-0.27664 0.12768,0 0.12768,0.19152 0,0.19152 -0.12768,0.40432 -0.40432,0.70224 -1.2768,1.55344 -0.87248,0.8512 -1.93648,1.44704 -1.064,0.59584 -2.04288,0.59584 -1.08528,0 -1.7024,-0.65968 -0.59584,-0.68096 -0.59584,-1.596 0,-1.00016 0.46816,-1.8088 0.48944,-0.82992 1.19168,-1.29808 0.72352,-0.46816 1.34064,-0.46816 0.34048,0 0.57456,0.19152 0.25536,0.17024 0.25536,0.4256 0,0.57456 -0.7448,1.04272 -0.72352,0.44688 -1.76624,0.72352 -0.14896,0.51072 -0.14896,0.9576 0,1.93648 1.2768,1.93648 0.80864,0 1.72368,-0.532 0.91504,-0.532 1.72368,-1.29808 0.80864,-0.78736 1.29808,-1.53216 z m -4.17088,-1.44704 q -0.36176,0 -0.80864,0.40432 -0.44688,0.40432 -0.72352,1.04272 0.72352,-0.23408 1.21296,-0.55328 0.51072,-0.3192 0.51072,-0.68096 0,-0.2128 -0.19152,-0.2128 z"
               id="path1211" />
            <path
               d="m 150.32453,66.728613 q 0.0851,-0.17024 0.17024,-0.17024 0.12768,0 0.12768,0.19152 0,0.1064 -0.0638,0.27664 -0.93632,1.97904 -2.68128,4.19216 -1.72368,2.19184 -3.5112,3.66016 -1.78752,1.4896 -2.8728,1.4896 -1.12784,0 -1.12784,-1.76624 0,-1.25552 0.532,-2.61744 0.51072,-1.36192 1.34064,-2.9792 0.51072,-1.02144 0.51072,-1.1704 0,-0.14896 -0.2128,-0.29792 -0.2128,-0.14896 -0.68096,-0.38304 -0.72352,-0.36176 -1.23424,-0.72352 -0.532,-0.36176 -0.91504,-0.97888 -0.40432,-0.6384 -0.40432,-1.53216 0,-1.00016 0.532,-1.61728 0.532,-0.6384 1.3832,-0.6384 0.70224,0 1.10656,0.51072 0.4256,0.51072 0.4256,1.42576 0,0.68096 -0.19152,1.34064 -0.19152,0.6384 -0.6384,1.40448 l 0.7448,0.40432 q 0.70224,0.38304 1.02144,0.6384 0.3192,0.23408 0.3192,0.57456 0,0.36176 -0.27664,0.93632 -0.25536,0.57456 -0.89376,1.74496 -0.87248,1.596 -1.34064,2.66 -0.44688,1.064 -0.44688,1.87264 0,0.80864 0.44688,0.80864 0.91504,0 2.74512,-1.63856 1.83008,-1.61728 3.59632,-3.8304 1.76624,-2.2344 2.48976,-3.78784 z m -10.02288,-2.80896 q 0,0.7448 0.36176,1.2768 0.34048,0.51072 0.9576,0.93632 0.532,-1.00016 0.532,-2.27696 0,-0.72352 -0.25536,-1.19168 -0.25536,-0.46816 -0.68096,-0.46816 -0.4256,0 -0.65968,0.48944 -0.25536,0.48944 -0.25536,1.23424 z"
               id="path1213" />
            <path
               d="m 152.09077,63.749413 q -0.12768,0.12768 -0.29792,0.23408 -0.14896,0.08512 -0.27664,0.08512 -0.25536,0 -0.25536,-0.34048 0,-0.59584 0.38304,-1.40448 0.0426,-0.1064 0.25536,-0.17024 0.2128,-0.08512 0.44688,-0.08512 0.34048,0 0.532,0.12768 0.2128,0.12768 0.12768,0.36176 -0.0638,0.17024 -0.532,0.70224 z m -1.78752,7.49056 q -0.59584,-0.59584 -0.59584,-1.83008 0,-1.19168 0.59584,-2.85152 0.0851,-0.23408 0.36176,-0.38304 0.29792,-0.17024 0.55328,-0.17024 0.29792,0 0.2128,0.27664 -0.91504,2.57488 -0.91504,3.97936 0,0.46816 0.1064,0.78736 0.0213,0.04256 0.0213,0.12768 0,0.19152 -0.12768,0.19152 -0.0851,0 -0.2128,-0.12768 z"
               id="path1215" />
            <path
               d="m 162.28389,66.835013 q 0.14896,-0.27664 0.36176,-0.27664 0.12768,0 0.12768,0.19152 0,0.19152 -0.12768,0.40432 -0.40432,0.70224 -1.2768,1.55344 -0.87248,0.8512 -1.93648,1.44704 -1.064,0.59584 -2.04288,0.59584 -1.08528,0 -1.7024,-0.65968 -0.59584,-0.68096 -0.59584,-1.596 0,-1.00016 0.46816,-1.8088 0.48944,-0.82992 1.19168,-1.29808 0.72352,-0.46816 1.34064,-0.46816 0.34048,0 0.57456,0.19152 0.25536,0.17024 0.25536,0.4256 0,0.57456 -0.7448,1.04272 -0.72352,0.44688 -1.76624,0.72352 -0.14896,0.51072 -0.14896,0.9576 0,1.93648 1.2768,1.93648 0.80864,0 1.72368,-0.532 0.91504,-0.532 1.72368,-1.29808 0.80864,-0.78736 1.29808,-1.53216 z m -4.17088,-1.44704 q -0.36176,0 -0.80864,0.40432 -0.44688,0.40432 -0.72352,1.04272 0.72352,-0.23408 1.21296,-0.55328 0.51072,-0.3192 0.51072,-0.68096 0,-0.2128 -0.19152,-0.2128 z"
               id="path1217" />
          </g>
        </g>
      </g>
    </g>
  </g>
</svg>
