<?xml version="1.0" encoding="UTF-8" standalone="no"?>
<!-- Created with Inkscape (http://www.inkscape.org/) -->

<svg
   width="32.257088mm"
   height="3.614212mm"
   viewBox="0 0 32.257088 3.614212"
   version="1.1"
   id="svg5"
   inkscape:version="1.2.2 (732a01da63, 2022-12-09)"
   sodipodi:docname="logo.svg"
   xmlns:inkscape="http://www.inkscape.org/namespaces/inkscape"
   xmlns:sodipodi="http://sodipodi.sourceforge.net/DTD/sodipodi-0.dtd"
   xmlns="http://www.w3.org/2000/svg"
   xmlns:svg="http://www.w3.org/2000/svg">
  <sodipodi:namedview
     id="namedview7"
     pagecolor="#ffffff"
     bordercolor="#000000"
     borderopacity="0.25"
     inkscape:showpageshadow="2"
     inkscape:pageopacity="0.0"
     inkscape:pagecheckerboard="0"
     inkscape:deskcolor="#d1d1d1"
     inkscape:document-units="mm"
     showgrid="false"
     inkscape:zoom="1.0444209"
     inkscape:cx="272.39976"
     inkscape:cy="299.68761"
     inkscape:window-width="1920"
     inkscape:window-height="1009"
     inkscape:window-x="-8"
     inkscape:window-y="-8"
     inkscape:window-maximized="1"
     inkscape:current-layer="layer2" />
  <defs
     id="defs2" />
  <g
     inkscape:groupmode="layer"
     id="layer2"
     inkscape:label="logo"
     transform="translate(-64.292528,-211.969)">
    <path
       style="fill:#000000;fill-opacity:1;stroke:#000000;stroke-width:0.182033;stroke-linecap:square;stroke-dasharray:none"
       d="m 92.771351,213.39804 c 0,0 1.512906,-0.12776 1.624067,-0.55459 0.111152,-0.42682 0.08246,-0.87597 -0.580329,-0.76665 -0.662795,0.10932 -1.230838,0.79306 -1.230838,0.79306 0,0 -1.422156,0.73383 -2.320451,0.79122 -0.898292,0.0574 -1.671312,0.0487 -1.847599,-0.19454 -0.176285,-0.24324 -1.111022,-0.4068 -1.678142,-0.26786 -0.567128,0.13894 -1.142006,0.50607 -2.164652,0.0847 -1.022646,-0.42138 -1.287307,-0.65004 -2.017062,-0.12119 -0.729753,0.52885 -1.370674,0.77073 -1.818914,0.2546 -0.448225,-0.51611 -1.125587,-0.49517 -1.663567,-0.1795 -0.537979,0.31568 -1.326492,0.76345 -1.826205,0.2104 -0.499698,-0.55302 -1.147451,-0.62773 -2.171475,-0.23189 -1.024022,0.39584 -5.138767,-0.0602 -5.138767,-0.0602 l -3.304815,-0.49885 c 0,0 -2.421561,-0.37219 -2.23982,1.00486 0.181721,1.37706 1.757388,1.29872 1.757388,1.29872 0,0 9.866196,-0.4472 14.739844,-0.3433 4.873651,0.10392 12.71412,0.30855 12.71412,0.30855 0,0 0.896917,0.75982 1.53784,0.51795 0.640932,-0.24188 2.048046,-0.79168 0.848203,-0.9115 -1.199854,-0.11981 -2.392875,0.077 -2.392875,0.077 l -13.892099,-0.2958 c 0,0 -10.9476,-0.0553 -11.926984,0.0609 -0.979377,0.11613 -2.835183,0.42222 -2.671637,-0.51249 0.163544,-0.93474 1.738745,-0.74067 3.129914,-0.56165 1.391162,0.17905 5.167454,0.50934 5.167454,0.50934 0,0 1.346977,0.18632 2.068987,-0.11431 0.72201,-0.30064 1.766519,0.25328 1.766519,0.25328 0,0 1.015358,0.37719 1.884959,-0.12933 0.869599,-0.50654 1.766518,0.25328 1.766518,0.25328 0,0 1.84031,0.15035 2.260765,-0.32748 0.420453,-0.47783 2.00203,0.30523 2.00203,0.30523 0,0 1.391162,0.17904 1.76014,-0.33572 0.368981,-0.51474 2.340483,0.43096 2.340483,0.43096 0,0 1.148602,0.24782 3.516988,-0.74725 z"
       id="path2500" />
  </g>
</svg>
