<?xml version="1.0" encoding="UTF-8" standalone="no"?>
<!-- Created with Inkscape (http://www.inkscape.org/) -->

<svg
   width="296.28394mm"
   height="225.01753mm"
   viewBox="0 0 296.28394 225.01753"
   version="1.1"
   id="svg5"
   xml:space="preserve"
   xmlns:inkscape="http://www.inkscape.org/namespaces/inkscape"
   xmlns:sodipodi="http://sodipodi.sourceforge.net/DTD/sodipodi-0.dtd"
   xmlns="http://www.w3.org/2000/svg"
   xmlns:svg="http://www.w3.org/2000/svg"><sodipodi:namedview
     id="namedview7"
     pagecolor="#ffffff"
     bordercolor="#000000"
     borderopacity="0.25"
     inkscape:showpageshadow="2"
     inkscape:pageopacity="0.0"
     inkscape:pagecheckerboard="0"
     inkscape:deskcolor="#ffffff"
     inkscape:document-units="mm"
     showgrid="false"
     showborder="false" /><defs
     id="defs2" /><g
     inkscape:label="Vrstva 1"
     inkscape:groupmode="layer"
     id="layer1"
     transform="translate(52.977857,-151.96855)"><path
       style="fill:#b49990;fill-opacity:1;stroke-width:0.264583"
       d="m 179.25491,157.81624 v -2.08095 l 4.0349,-1.82718 c 2.21919,-1.00495 4.12419,-1.87422 4.23333,-1.93172 0.10914,-0.0575 0.19844,1.30668 0.19844,3.03151 v 3.13604 l -3.90261,0.75559 c -2.14643,0.41558 -4.05143,0.81006 -4.23333,0.87663 -0.24681,0.0903 -0.33073,-0.40699 -0.33073,-1.95992 z"
       id="path346"
       inkscape:export-filename="path346.png"
       inkscape:export-xdpi="96"
       inkscape:export-ydpi="96" /><path
       style="fill:#b49990;fill-opacity:1;stroke-width:0.264583"
       d="m 100.14749,157.81824 0.003,-2.07882 4.03189,-1.83547 c 2.21754,-1.0095 4.12119,-1.87973 4.23033,-1.93384 0.10914,-0.0541 0.19844,1.31284 0.19844,3.03767 v 3.13604 l -3.90261,0.75559 c -2.14643,0.41557 -4.05143,0.81006 -4.23333,0.87663 -0.24694,0.0904 -0.32996,-0.40561 -0.32772,-1.9578 z"
       id="path344" /><path
       style="fill:#b49990;fill-opacity:1;stroke-width:0.264583"
       d="m 210.47575,171.74671 v -15.61042 h 3.175 3.175 l 0.0209,6.54844 0.0209,6.54844 1.38994,-4.10105 1.38996,-4.10104 3.35169,-0.074 c 1.84345,-0.0407 3.35171,-0.0397 3.35171,0.002 0,0.0419 -0.88315,2.62967 -1.96254,5.75051 l -1.96253,5.67428 2.49169,7.39261 c 1.37044,4.06594 2.49172,7.43489 2.49172,7.48656 0,0.0517 -1.53522,0.0939 -3.41157,0.0939 h -3.41159 l -1.10096,-3.50573 c -0.60555,-1.92815 -1.44219,-4.51776 -1.8592,-5.75468 l -0.75824,-2.24896 -0.0209,5.75468 -0.0209,5.75469 h -3.175 -3.17501 v -15.6104 z"
       id="path342" /><path
       style="fill:#b49990;fill-opacity:1;stroke-width:0.264583"
       d="m 166.98861,186.76181 c -0.0865,-0.32742 -0.15792,-7.35211 -0.15881,-15.61042 l -0.002,-15.0151 h 3.30295 3.30295 v 15.61042 15.61041 h -3.14414 c -3.03763,0 -3.14947,-0.0202 -3.30133,-0.59531 z"
       id="path340" /><path
       style="fill:#b49990;fill-opacity:1;stroke-width:0.264583"
       d="m 131.36533,171.74671 v -15.61042 h 3.175 3.175 l 0.0208,6.54844 0.0208,6.54844 1.38995,-4.10105 1.38995,-4.10104 3.35171,-0.074 c 1.84344,-0.0407 3.3517,-0.0397 3.3517,0.002 0,0.0419 -0.88314,2.62967 -1.96253,5.75051 l -1.96254,5.67428 2.4917,7.39261 c 1.37043,4.06602 2.4917,7.43497 2.4917,7.48664 0,0.0517 -1.53521,0.0939 -3.41158,0.0939 h -3.41157 l -1.10097,-3.50573 c -0.60553,-1.92815 -1.44217,-4.51776 -1.8592,-5.75469 l -0.75824,-2.24896 -0.0209,5.75469 -0.0209,5.75469 h -3.175 -3.175 z"
       id="path338" /><path
       style="fill:#b49990;fill-opacity:1;stroke-width:0.264583"
       d="m 87.878262,186.96099 c -0.207166,-0.53987 -0.219482,-29.8566 -0.01278,-30.39529 0.139247,-0.36285 0.652544,-0.42941 3.311482,-0.42941 h 3.146693 v 15.61042 15.61041 h -3.146693 c -2.550356,0 -3.1755,-0.0751 -3.298703,-0.39613 z"
       id="path336" /><path
       id="path334"
       style="fill:#b49990;fill-opacity:1;stroke-width:0.264583"
       d="m 235.65952,160.65893 c -1.28107,0.005 -2.60184,0.13343 -3.44372,0.38344 -2.65877,0.78957 -3.86157,2.49889 -4.18166,5.94279 l -0.17208,1.85105 h 3.21324 3.21324 v -1.07591 c 0,-1.39231 0.39304,-2.09909 1.16737,-2.09909 0.93359,0 1.14968,0.46668 1.25729,2.71094 l 0.0982,2.04897 -2.12132,0.69557 c -5.95046,1.95044 -7.22956,3.74422 -6.96185,9.76323 0.15846,3.56317 0.96188,5.45009 2.64635,6.2146 h 0.002 c 2.35603,1.06931 4.88843,0.48652 6.03167,-1.38854 l 0.52606,-0.86248 v 1.25677 1.25677 h 3.18586 3.18585 l -0.077,-11.17865 -0.077,-11.17864 -0.64233,-1.12086 c -0.70122,-1.22425 -2.07405,-2.303 -3.64371,-2.86288 -0.68405,-0.244 -1.92546,-0.36213 -3.20652,-0.35708 z m 1.00975,12.92634 v 4.18734 c 0,2.90394 -0.0971,4.28444 -0.31729,4.50464 -0.48607,0.48607 -1.48392,0.37775 -1.79007,-0.19431 -0.15065,-0.28148 -0.27389,-1.77597 -0.27389,-3.32072 0,-3.16852 0.3138,-4.10765 1.59216,-4.76871 z" /><path
       style="fill:#b49990;fill-opacity:1;stroke-width:0.264583"
       d="m 197.15929,187.19225 c -1.77197,-0.5444 -3.45429,-2.26704 -3.99623,-4.09198 -0.22792,-0.76748 -0.4144,-2.32998 -0.4144,-3.47221 v -2.07679 l 3.24115,0.0743 3.24114,0.0743 0.0577,2.07936 c 0.0642,2.31207 0.31758,2.81543 1.41748,2.81543 0.6259,0 0.78954,-0.14705 0.99608,-0.8951 0.3084,-1.11692 0.0196,-2.78576 -0.63148,-3.6489 -0.27231,-0.36099 -1.51337,-1.44875 -2.75794,-2.41723 -4.66834,-3.63278 -5.42137,-4.77764 -5.42786,-8.25231 -0.003,-1.85248 0.0897,-2.27609 0.74682,-3.39397 1.40695,-2.3936 4.16775,-3.52993 8.01783,-3.30011 2.20224,0.13146 3.79968,0.7421 4.88056,1.86566 0.91411,0.95021 1.77993,3.11963 1.8742,4.69613 l 0.0871,1.45521 -3.37344,0.074 -3.37343,0.074 v -1.08363 c 0,-1.48948 -0.38225,-2.10718 -1.30392,-2.10718 -0.79344,0 -1.07733,0.38348 -1.07733,1.4552 0,1.12053 0.30527,1.46506 3.17603,3.58443 4.973,3.67138 5.93513,5.16791 5.94563,9.24787 0.006,2.10841 -0.0932,2.71599 -0.61211,3.7696 -0.78666,1.59736 -2.31632,2.9089 -4.0431,3.46659 -1.67203,0.54001 -4.92485,0.54355 -6.67041,0.007 z"
       id="path330" /><path
       id="path328"
       style="fill:#b49990;fill-opacity:1;stroke-width:0.264583"
       d="m 183.62342,160.67081 c -0.35019,-0.004 -0.71316,0.005 -1.08934,0.0243 -4.47966,0.23432 -6.3947,2.00648 -6.66161,6.16552 l -0.12661,1.97559 h 3.20963 3.20962 v -1.26969 c 0,-1.33945 0.3283,-1.90531 1.10536,-1.90531 0.86262,0 1.30846,1.1125 1.22266,3.05097 l -0.0791,1.78232 -2.77813,0.95653 c -4.19256,1.44412 -5.21343,2.35867 -5.98516,5.36143 -0.45845,1.78377 -0.3793,5.20545 0.16484,7.136 0.3986,1.41415 1.34447,2.68614 2.38642,3.20963 2.05882,1.03438 4.81214,0.39494 5.90972,-1.37253 l 0.42065,-0.67748 0.007,1.12448 0.007,1.12448 h 3.32073 3.32072 l -0.0796,-11.04635 c -0.078,-10.83007 -0.091,-11.06763 -0.66714,-12.145 -1.24811,-2.334 -3.4325,-3.46043 -6.81767,-3.49488 z m 0.92294,12.91446 v 3.82612 c 0,2.10431 -0.11595,4.13136 -0.25787,4.50464 -0.19521,0.51344 -0.44513,0.67851 -1.02629,0.67851 -1.14729,0 -1.44433,-0.97645 -1.31982,-4.33979 0.11061,-2.98817 0.33208,-3.49444 1.87586,-4.29276 z" /><path
       id="path324"
       style="fill:#b49990;fill-opacity:1;stroke-width:0.264583"
       d="m 156.70206,160.6703 c -3.38668,0.004 -5.85391,1.47452 -7.10964,4.25348 -0.6092,1.34818 -0.63567,1.66337 -0.71727,8.67493 -0.072,6.18681 -0.0177,7.52509 0.36277,8.9395 0.5975,2.22108 2.06537,3.86607 4.0876,4.58112 1.14059,0.40331 1.99867,0.49683 3.96875,0.43253 2.19702,-0.0717 2.6933,-0.18034 3.94033,-0.86248 0.78868,-0.43141 1.70103,-1.19605 2.04019,-1.70997 1.33648,-2.02502 1.42782,-2.71284 1.42782,-10.7425 0,-6.87864 -0.0442,-7.61529 -0.53537,-8.92814 -1.07824,-2.88184 -3.35091,-4.43128 -6.77581,-4.61935 -0.23387,-0.0129 -0.46359,-0.0194 -0.68937,-0.0191 z m 0.0631,4.99091 c 0.49556,0 0.87393,0.18492 1.04903,0.51211 0.41047,0.76694 0.37025,15.69028 -0.0434,16.10393 -0.50309,0.5031 -1.74423,0.38571 -2.05465,-0.19431 -0.17018,-0.31799 -0.27389,-3.33031 -0.27389,-7.95507 0,-4.62474 0.10371,-7.63656 0.27389,-7.95455 0.17511,-0.32719 0.55346,-0.51211 1.04903,-0.51211 z" /><path
       style="fill:#b49990;fill-opacity:1;stroke-width:0.264583"
       d="m 118.04888,187.19221 c -1.77196,-0.54441 -3.45429,-2.26704 -3.99624,-4.09199 -0.22792,-0.76748 -0.4144,-2.32998 -0.4144,-3.47221 v -2.07679 l 3.24115,0.0743 3.24114,0.0743 0.0782,2.10413 c 0.0871,2.34117 0.30951,2.79066 1.38106,2.79066 0.88051,0 1.05425,-0.37083 1.05425,-2.25029 0,-1.74701 -0.40062,-2.26846 -3.9529,-5.1452 -4.28786,-3.47244 -4.89466,-4.45599 -4.90485,-7.95034 -0.005,-1.70917 0.0983,-2.16152 0.74499,-3.26168 1.40694,-2.3936 4.16774,-3.52993 8.01783,-3.30011 4.24246,0.25325 6.30405,2.33635 6.82129,6.89252 l 0.14268,1.25677 h -3.43452 -3.43452 v -0.90882 c 0,-1.54381 -0.41059,-2.26618 -1.28807,-2.26618 -0.8102,0 -1.09318,0.3767 -1.09318,1.45521 0,1.12052 0.30527,1.46505 3.17602,3.58443 4.973,3.67138 5.93515,5.16791 5.94564,9.24786 0.005,2.10841 -0.0932,2.71599 -0.61211,3.76961 -0.79203,1.60827 -2.44004,3.01521 -4.11425,3.51239 -1.66046,0.49311 -4.93096,0.474 -6.59925,-0.0386 z"
       id="path320" /><path
       id="path318"
       style="fill:#b49990;fill-opacity:1;stroke-width:0.264583"
       inkscape:label="path318"
       d="m 104.513,160.67081 c -0.35019,-0.004 -0.71316,0.005 -1.08934,0.0243 -4.47965,0.23431 -6.394696,2.00647 -6.661608,6.16552 l -0.126607,1.97559 h 3.176034 3.176031 l 0.0248,-1.21853 c 0.027,-1.34375 0.37972,-1.95647 1.12706,-1.95647 0.88161,0 1.32973,1.09775 1.24333,3.0458 l -0.0791,1.77664 -2.85047,1.00252 c -3.248171,1.14186 -3.868364,1.4931 -4.771804,2.70268 -1.055612,1.41331 -1.368925,2.74818 -1.351855,5.75986 0.02337,4.12585 0.833269,6.2403 2.761588,7.20938 h 5.17e-4 c 1.257104,0.63134 3.600274,0.61165 4.586804,-0.0388 0.41601,-0.27427 0.98096,-0.83871 1.25522,-1.25471 l 0.49867,-0.75654 0.002,1.12448 0.002,1.12448 h 3.32331 3.32331 l -0.0822,-11.04635 c -0.0803,-10.82772 -0.0937,-11.06786 -0.66973,-12.145 -1.24811,-2.334 -3.43249,-3.46044 -6.81767,-3.49488 z m 0.79065,12.94495 0.0734,3.79253 c 0.0402,2.0901 -0.0463,4.10568 -0.19224,4.48965 -0.20219,0.53181 -0.44667,0.6966 -1.03301,0.6966 -1.12882,0 -1.43269,-0.96542 -1.32085,-4.19819 0.0986,-2.84955 0.47793,-3.76977 1.8371,-4.45865 z" /><path
       style="fill:#e6c9c3;fill-opacity:1;stroke-width:0.264583"
       d="m 187.19241,250.67495 c -0.94588,-0.37095 -3.38667,-1.29773 -5.42396,-2.05953 -14.87515,-5.56217 -15.08677,-5.64701 -15.00207,-6.01412 0.27999,-1.2136 10.0197,-26.7584 10.55929,-27.69436 2.56764,-4.4538 10.23011,-9.04871 18.80704,-11.27792 3.38918,-0.88087 4.16785,-0.86924 4.65328,0.0695 0.76634,1.48194 1.03897,3.94487 0.88011,7.9514 -0.16605,4.18842 -0.57126,6.84842 -1.6541,10.85813 -0.94075,3.48354 -10.45829,28.88279 -10.81428,28.85981 -0.15704,-0.0101 -1.05942,-0.32193 -2.00531,-0.69288 z"
       id="path314" /><path
       style="fill:#e6c9c3;fill-opacity:1;stroke-width:0.264583"
       d="m 161.26324,293.58199 c -14.59683,-5.49243 -15.875,-6.01958 -15.875,-6.54726 0,-0.18795 3.61391,-9.98239 8.03091,-21.76541 7.63218,-20.36005 8.06467,-21.42774 8.71116,-21.50546 0.40146,-0.0483 6.08319,1.94735 13.86337,4.86928 7.25071,2.72308 13.75794,5.16402 14.46051,5.42432 1.54811,0.57356 2.02989,0.947 2.02989,1.57343 0,0.44287 -15.36509,41.6337 -15.91043,42.65277 -0.14759,0.27581 -0.5382,0.45543 -0.96607,0.44425 -0.39506,-0.0103 -6.85001,-2.32599 -14.34434,-5.14592 z"
       id="path312" /><path
       style="fill:#e6c9c3;fill-opacity:1;stroke-width:0.264583"
       d="m 158.7497,298.57915 c -9.89542,-3.71696 -18.03862,-6.80452 -18.09601,-6.86126 -0.16864,-0.16673 0.80188,-2.58661 1.2399,-3.09152 0.22092,-0.25466 0.60708,-0.46302 0.85813,-0.46302 0.25106,0 7.28706,2.56865 15.63556,5.7081 8.3485,3.13946 16.07206,6.03569 17.16346,6.43606 2.45575,0.90086 2.72404,1.38773 1.97654,3.58683 -0.27424,0.80681 -0.56326,1.46152 -0.64227,1.45492 -0.079,-0.007 -8.23989,-3.05315 -18.13531,-6.77011 z"
       id="path310" /><path
       style="fill:#b49990;fill-opacity:1;stroke-width:0.264583"
       d="m 104.39813,358.3867 c -0.44773,-0.37674 -0.81784,-0.94228 -0.82247,-1.25677 -0.005,-0.31448 -0.18322,-0.80291 -0.39687,-1.08538 -0.21366,-0.28248 -0.39225,-0.75873 -0.39688,-1.05834 -0.005,-0.2996 -0.18322,-0.77585 -0.39687,-1.05833 -0.21366,-0.28247 -0.38847,-0.77391 -0.38847,-1.09208 0,-0.31817 -0.17859,-0.72671 -0.39687,-0.90787 -0.21828,-0.18116 -0.39688,-0.5897 -0.39688,-0.90787 0,-0.31817 -0.1748,-0.80961 -0.38846,-1.09208 -0.21365,-0.28248 -0.39224,-0.82644 -0.39687,-1.2088 -0.005,-0.38236 -0.18701,-0.84343 -0.40529,-1.02458 -0.218282,-0.18116 -0.400662,-0.58269 -0.405289,-0.8923 -0.0046,-0.3096 -0.183224,-0.79403 -0.396875,-1.0765 -0.213654,-0.28248 -0.392248,-0.75873 -0.396875,-1.05834 -0.0046,-0.2996 -0.183224,-0.77585 -0.396875,-1.05833 -0.213654,-0.28247 -0.388461,-0.71931 -0.388461,-0.97074 0,-0.25144 -0.17131,-0.79423 -0.380688,-1.20621 -0.604026,-1.18848 -1.206813,-2.65778 -1.206813,-2.9416 0,-0.14327 -0.17786,-0.60153 -0.395245,-1.01834 -0.217384,-0.41682 -0.399764,-0.93645 -0.405288,-1.15473 -0.0055,-0.21828 -0.184854,-0.62799 -0.398505,-0.91046 -0.213654,-0.28248 -0.388462,-0.78147 -0.388462,-1.10887 0,-0.3274 -0.105873,-0.6607 -0.235272,-0.74068 -0.1294,-0.08 -0.312106,-0.47395 -0.406011,-0.87551 -0.09391,-0.40156 -0.3364,-1.08729 -0.538872,-1.52385 -0.848283,-1.82902 -1.201095,-2.74938 -1.201095,-3.13323 0,-0.22408 -0.109902,-0.47534 -0.244226,-0.55836 -0.134326,-0.083 -0.324141,-0.51478 -0.421812,-0.95948 -0.09767,-0.44469 -0.344226,-1.12794 -0.547894,-1.51832 -0.203668,-0.39038 -0.371041,-0.90822 -0.371938,-1.15075 -7.94e-4,-0.24253 -0.09093,-0.48066 -0.200067,-0.52917 -0.109141,-0.0485 -0.495607,-0.96246 -0.858814,-2.03102 -0.363207,-1.06855 -0.75016,-1.99831 -0.859896,-2.06613 -0.109736,-0.0678 -0.199519,-0.30665 -0.199519,-0.53073 0,-0.22408 -0.162423,-0.7826 -0.36094,-1.24116 -0.198517,-0.45855 -0.565182,-1.36952 -0.814811,-2.02436 -0.249629,-0.65484 -0.622988,-1.5277 -0.829685,-1.93967 -0.206698,-0.41198 -0.375815,-0.95477 -0.375815,-1.2062 0,-0.25144 -0.174807,-0.68827 -0.388461,-0.97075 -0.213651,-0.28247 -0.396033,-0.75171 -0.405289,-1.04276 -0.0093,-0.29104 -0.191637,-0.76028 -0.405288,-1.04275 -0.213654,-0.28248 -0.388462,-0.74036 -0.388462,-1.01751 0,-0.27716 -0.157916,-0.81995 -0.350927,-1.2062 -0.193008,-0.38626 -0.550196,-1.09889 -0.79375,-1.58362 -0.243552,-0.48474 -0.442823,-1.08706 -0.442823,-1.3385 0,-0.25143 -0.174807,-0.68827 -0.388461,-0.97074 -0.213651,-0.28248 -0.392245,-0.75873 -0.396875,-1.05833 -0.0046,-0.29961 -0.183221,-0.77586 -0.396875,-1.05834 -0.213651,-0.28247 -0.396034,-0.75171 -0.405289,-1.04276 -0.0093,-0.29104 -0.191637,-0.76028 -0.405289,-1.04275 -0.213653,-0.28248 -0.388461,-0.71931 -0.388461,-0.97075 0,-0.43512 -0.150265,-0.80491 -1.152662,-2.83658 -0.23916,-0.48474 -0.434838,-1.10017 -0.434838,-1.36762 0,-0.26746 -0.169116,-0.82336 -0.375814,-1.23533 -0.206698,-0.41198 -0.576726,-1.28483 -0.82228,-1.93967 -0.245555,-0.65485 -0.612219,-1.50665 -0.814808,-1.89291 -0.202592,-0.38625 -0.368348,-0.88262 -0.368348,-1.10304 0,-0.22041 -0.166881,-0.73782 -0.370845,-1.1498 -0.755727,-1.52644 -1.216655,-2.76587 -1.216655,-3.27156 0,-0.28611 -0.109604,-0.52019 -0.24356,-0.52019 -0.133958,0 -0.323775,-0.36521 -0.421812,-0.81158 -0.09804,-0.44636 -0.344892,-1.13097 -0.54856,-1.52135 -0.203669,-0.39038 -0.374827,-0.88838 -0.380352,-1.10666 -0.0055,-0.21828 -0.184854,-0.62799 -0.398505,-0.91046 -0.213654,-0.28248 -0.388461,-0.73058 -0.388461,-0.99578 0,-0.2652 -0.114887,-0.68893 -0.255304,-0.94162 -0.535766,-0.96413 -1.332196,-2.96073 -1.332196,-3.33971 0,-0.21768 -0.109903,-0.4637 -0.244226,-0.54672 -0.134327,-0.083 -0.324142,-0.51478 -0.421812,-0.95948 -0.09767,-0.4447 -0.344226,-1.12794 -0.547894,-1.51832 -0.203669,-0.39038 -0.371041,-0.845 -0.371938,-1.01027 -7.94e-4,-0.16526 -0.179491,-0.64151 -0.396875,-1.05833 -0.217385,-0.41682 -0.395978,-0.9424 -0.396875,-1.16795 -7.94e-4,-0.22556 -0.102193,-0.52322 -0.225105,-0.66146 -0.122912,-0.13825 -0.4986,-1.02526 -0.834859,-1.97115 -0.336259,-0.94588 -0.711946,-1.8329 -0.834858,-1.97114 -0.122912,-0.13825 -0.224208,-0.4359 -0.225105,-0.66146 -7.94e-4,-0.22556 -0.179491,-0.75114 -0.396875,-1.16795 -0.217384,-0.41682 -0.395245,-0.87508 -0.395245,-1.01835 0,-0.14328 -0.176009,-0.63568 -0.391131,-1.09424 -0.461312,-0.98333 -1.658533,-4.17621 -2.020411,-5.38824 -0.139637,-0.46768 -0.368538,-0.92119 -0.508672,-1.0078 -0.140132,-0.0866 -0.255519,-0.3588 -0.256416,-0.60487 -7.94e-4,-0.24607 -0.179491,-0.78844 -0.396875,-1.20525 -0.217384,-0.41682 -0.395245,-0.87508 -0.395245,-1.01835 0,-0.14328 -0.162423,-0.63568 -0.360939,-1.09424 -0.198517,-0.45855 -0.565182,-1.36951 -0.814811,-2.02436 -0.249629,-0.65484 -0.622988,-1.52769 -0.829686,-1.93967 -0.206698,-0.41197 -0.375814,-0.95476 -0.375814,-1.2062 0,-0.25144 -0.174808,-0.68827 -0.388462,-0.97074 -0.213651,-0.28248 -0.392244,-0.71231 -0.396875,-0.95517 -0.0046,-0.24287 -0.17753,-0.77865 -0.384227,-1.19063 -0.206698,-0.41197 -0.550463,-1.2253 -0.763924,-1.80738 -1.381144,-3.76625 -2.062753,-5.49988 -2.460665,-6.25853 -0.202591,-0.38625 -0.372134,-0.92204 -0.376761,-1.19062 -0.0046,-0.26859 -0.183224,-0.71946 -0.396875,-1.00194 -0.213654,-0.28247 -0.392248,-0.75872 -0.396875,-1.05833 -0.0046,-0.29961 -0.183224,-0.77586 -0.396875,-1.05834 -0.213654,-0.28247 -0.392248,-0.75872 -0.396875,-1.05833 -0.0046,-0.29961 -0.183224,-0.77586 -0.396875,-1.05833 -0.213654,-0.28248 -0.388462,-0.77391 -0.388462,-1.09208 0,-0.31818 -0.178593,-0.72672 -0.396875,-0.90787 -0.218281,-0.18116 -0.400661,-0.58269 -0.405288,-0.8923 -0.0046,-0.3096 -0.183224,-0.79403 -0.396875,-1.0765 -0.213654,-0.28248 -0.392248,-0.75873 -0.396875,-1.05834 -0.0046,-0.2996 -0.183224,-0.77585 -0.396875,-1.05833 -0.213654,-0.28247 -0.392248,-0.75872 -0.396875,-1.05833 -0.0046,-0.29961 -0.183224,-0.77586 -0.396875,-1.05834 -0.213654,-0.28247 -0.388462,-0.78849 -0.388462,-1.12448 0,-0.33598 -0.117655,-0.61088 -0.261456,-0.61088 -0.143801,0 -0.337613,-0.47625 -0.430691,-1.05834 -0.09308,-0.58208 -0.26362,-1.05833 -0.378979,-1.05833 -0.115361,0 -0.289959,-0.36521 -0.387995,-0.81158 -0.09804,-0.44636 -0.344893,-1.13097 -0.548561,-1.52135 -0.203668,-0.39038 -0.371041,-0.91111 -0.371938,-1.15719 -7.94e-4,-0.24607 -0.111532,-0.51533 -0.245856,-0.59834 -0.134326,-0.083 -0.32806,-0.53262 -0.430519,-0.99912 -0.10246,-0.4665 -0.286039,-1.03068 -0.407951,-1.25374 -0.520689,-0.95268 -1.298554,-2.92098 -1.298554,-3.28584 0,-0.21768 -0.119062,-0.46936 -0.264583,-0.5593 -0.145521,-0.0899 -0.268624,-0.36486 -0.273561,-0.61093 -0.0049,-0.24607 -0.239022,-0.92365 -0.520189,-1.50574 -0.281168,-0.58208 -0.515252,-1.20878 -0.52019,-1.39265 -0.0091,-0.33913 -0.101089,-0.55967 -0.890251,-2.13452 -0.242904,-0.48473 -0.441643,-1.08706 -0.441643,-1.33849 0,-0.25144 -0.174807,-0.68827 -0.388461,-0.97075 -0.213651,-0.28247 -0.39298,-0.69218 -0.398505,-0.91046 -0.0055,-0.21828 -0.187904,-0.73791 -0.405289,-1.15473 -0.217384,-0.41681 -0.395978,-0.89306 -0.396875,-1.05833 -7.93e-4,-0.16527 -0.168269,-0.61989 -0.371938,-1.01027 -0.203668,-0.39038 -0.450521,-1.07499 -0.54856,-1.52135 -0.09804,-0.44637 -0.287854,-0.81157 -0.421812,-0.81157 -0.133956,0 -0.24356,-0.2749 -0.24356,-0.61089 0,-0.33599 -0.174807,-0.84201 -0.388461,-1.12448 -0.213651,-0.28247 -0.392245,-0.75872 -0.396875,-1.05833 -0.0046,-0.29961 -0.183221,-0.77586 -0.396875,-1.05834 -0.213651,-0.28247 -0.392245,-0.75872 -0.396875,-1.05833 -0.0046,-0.29961 -0.183221,-0.77586 -0.396875,-1.05833 -0.213651,-0.28248 -0.396034,-0.75172 -0.405289,-1.04276 -0.0093,-0.29104 -0.191638,-0.76028 -0.405289,-1.04276 -0.213653,-0.28247 -0.388461,-0.71931 -0.388461,-0.97074 0,-0.25144 -0.178594,-0.824 -0.396875,-1.27235 -0.218281,-0.44836 -0.575469,-1.18203 -0.79375,-1.63038 -0.218281,-0.44836 -0.400661,-1.01391 -0.405289,-1.25678 -0.0046,-0.24286 -0.183224,-0.67269 -0.396875,-0.95517 -0.213653,-0.28247 -0.392247,-0.75872 -0.396875,-1.05833 -0.0046,-0.29961 -0.183224,-0.77586 -0.396875,-1.05833 -0.213653,-0.28248 -0.392247,-0.75873 -0.396875,-1.05834 -0.0046,-0.2996 -0.183224,-0.77585 -0.396875,-1.05833 -0.213653,-0.28247 -0.388461,-0.77391 -0.388461,-1.09208 0,-0.31817 -0.178594,-0.72671 -0.396875,-0.90787 -0.218281,-0.18116 -0.396875,-0.5897 -0.396875,-0.90787 0,-0.31817 -0.174808,-0.80961 -0.388461,-1.09208 -0.213651,-0.28247 -0.396034,-0.75172 -0.405289,-1.04276 -0.0093,-0.29104 -0.191638,-0.76028 -0.405289,-1.04276 -0.213654,-0.28247 -0.392247,-0.75872 -0.396875,-1.05833 -0.0046,-0.29961 -0.183224,-0.77586 -0.396875,-1.05833 -0.631042,-0.83432 -0.503068,-2.85838 0.223904,-3.54133 l 0.612365,-0.57529 h 18.656099 18.656097 l 0.531696,0.59531 c 0.67722,0.75825 1.412629,2.36309 1.412629,3.0827 0,0.30543 0.113668,0.55532 0.252595,0.55532 0.138925,0 0.334278,0.43541 0.43411,0.96758 0.09984,0.53216 0.342623,1.2763 0.539528,1.65364 0.196903,0.37734 0.358741,0.87062 0.359638,1.09618 7.93e-4,0.22556 0.101785,0.52321 0.224197,0.66146 0.122415,0.13824 0.488913,1.08479 0.814446,2.10344 0.325532,1.01864 0.761158,2.22726 0.968057,2.68582 0.206899,0.45855 0.37618,1.01707 0.37618,1.24115 0,0.22408 0.105566,0.47266 0.23459,0.55241 0.129024,0.0797 0.312068,0.55798 0.406768,1.06277 0.0947,0.50478 0.345585,1.25024 0.55753,1.65657 0.211944,0.40632 0.386085,0.94011 0.386982,1.18618 7.94e-4,0.24607 0.120692,0.52099 0.266213,0.61093 0.145521,0.0899 0.265316,0.36485 0.266213,0.61093 7.94e-4,0.24607 0.179491,0.78843 0.396875,1.20525 0.217384,0.41682 0.395245,0.95961 0.395245,1.2062 0,0.2466 0.174808,0.67947 0.388462,0.96194 0.213651,0.28248 0.392244,0.73373 0.396875,1.00278 0.0046,0.26905 0.167417,0.86436 0.361754,1.32291 0.460211,1.08591 0.945883,2.45626 1.280096,3.61186 0.147302,0.50933 0.37582,1.03915 0.507818,1.1774 0.131998,0.13824 0.239995,0.4987 0.239995,0.80102 0,0.30232 0.161269,0.78453 0.358376,1.07157 0.197104,0.28704 0.423164,0.81955 0.502354,1.18335 0.196278,0.9017 0.724998,2.36704 1.16033,3.21582 0.198104,0.38625 0.360191,0.92531 0.360191,1.1979 0,0.27259 0.161268,0.73047 0.358375,1.01751 0.197104,0.28704 0.423164,0.81955 0.502354,1.18335 0.196278,0.9017 0.724998,2.36704 1.16033,3.21582 0.198104,0.38626 0.360191,0.92905 0.360191,1.2062 0,0.27716 0.174807,0.73504 0.388461,1.01751 0.213651,0.28248 0.396034,0.81125 0.405289,1.17505 0.0093,0.36381 0.191637,0.89258 0.405288,1.17505 0.213654,0.28248 0.388462,0.76574 0.388462,1.07391 0,0.30818 0.174807,0.79144 0.388461,1.07391 0.213651,0.28248 0.396034,0.81125 0.405289,1.17505 0.0093,0.3638 0.191637,0.89258 0.405289,1.17505 0.213653,0.28247 0.392247,0.75872 0.396875,1.05833 0.0046,0.29961 0.183223,0.77586 0.396875,1.05834 0.213653,0.28247 0.388461,0.73057 0.388461,0.99578 0,0.2652 0.118187,0.68893 0.262638,0.94161 0.319982,0.55975 1.048684,2.59687 1.252755,3.50214 0.08201,0.36381 0.310377,0.89631 0.507481,1.18335 0.197107,0.28704 0.358376,0.76925 0.358376,1.07157 0,0.30232 0.128318,0.67798 0.285152,0.83482 0.156832,0.15683 0.3845,0.68666 0.505931,1.17739 0.2466,0.99659 0.705861,2.32521 1.236827,3.57807 0.194336,0.45855 0.357126,0.99433 0.361754,1.19062 0.0046,0.19629 0.183224,0.58801 0.396875,0.87048 0.213653,0.28248 0.388461,0.841 0.388461,1.24116 0,0.40016 0.109903,0.79549 0.244226,0.8785 0.134327,0.083 0.324141,0.51479 0.421812,0.95948 0.09767,0.4447 0.344226,1.12794 0.547894,1.51832 0.203669,0.39038 0.371041,0.845 0.371938,1.01027 7.94e-4,0.16527 0.179491,0.64152 0.396875,1.05833 0.217385,0.41682 0.395978,0.9526 0.396875,1.19063 7.94e-4,0.23802 0.179491,0.77381 0.396875,1.19062 0.217385,0.41682 0.395978,0.95918 0.396875,1.20526 7.94e-4,0.24607 0.110332,0.51458 0.243192,0.5967 0.132858,0.0821 0.321916,0.62491 0.420132,1.20624 0.09821,0.58132 0.287166,1.05694 0.419896,1.05694 0.132729,0 0.24206,0.26789 0.242957,0.59532 7.93e-4,0.32742 0.17949,0.93634 0.396875,1.35316 0.217384,0.41681 0.395245,0.87507 0.395245,1.01834 0,0.14328 0.166759,0.63568 0.370573,1.09424 0.203814,0.45855 0.434049,1.07186 0.511632,1.3629 0.188437,0.70688 0.925297,2.77972 1.222707,3.43958 0.13118,0.29105 0.47958,1.24355 0.77422,2.11667 0.29463,0.87313 0.78968,2.24235 1.1001,3.04271 0.31042,0.80036 0.66392,1.85672 0.78556,2.34745 0.12164,0.49074 0.34947,1.02057 0.50631,1.1774 0.15683,0.15683 0.28893,0.58876 0.29356,0.95984 0.005,0.37108 0.18323,0.9058 0.39688,1.18828 0.21365,0.28247 0.38919,0.69919 0.39009,0.92604 7.9e-4,0.22685 0.17949,0.75348 0.39687,1.1703 0.21739,0.41681 0.39525,0.91879 0.39525,1.1155 0,0.19671 0.1699,0.74865 0.37756,1.22652 0.20766,0.47788 0.45463,1.107 0.54882,1.39804 0.16609,0.51317 0.18667,0.51028 0.68077,-0.0954 0.28023,-0.34355 0.5133,-0.87933 0.51793,-1.19063 0.005,-0.3113 0.18322,-0.79711 0.39687,-1.07959 0.21366,-0.28247 0.39225,-0.75872 0.39688,-1.05833 0.005,-0.29961 0.18322,-0.77586 0.39687,-1.05834 0.21366,-0.28247 0.38846,-0.79699 0.38846,-1.14337 0,-0.34639 0.1786,-0.80839 0.39688,-1.02667 0.21828,-0.21828 0.39688,-0.73853 0.39688,-1.15611 0,-0.41758 0.10175,-0.82212 0.22612,-0.89899 0.12436,-0.0769 0.49086,-0.94709 0.81444,-1.93384 0.32358,-0.98675 0.75761,-2.16927 0.96451,-2.62783 0.20689,-0.45855 0.37618,-1.08363 0.37618,-1.38906 0,-0.30543 0.10581,-0.55533 0.23513,-0.55533 0.12933,0 0.31607,-0.43137 0.41498,-0.95861 0.0989,-0.52724 0.28119,-1.15232 0.40506,-1.38906 0.12388,-0.23675 0.48648,-1.20436 0.80578,-2.15024 0.3193,-0.94589 0.74558,-2.09498 0.9473,-2.55353 0.20171,-0.45856 0.36675,-1.01708 0.36675,-1.24116 0,-0.22408 0.11906,-0.481 0.26458,-0.57094 0.14552,-0.0899 0.26531,-0.36485 0.26621,-0.61093 8e-4,-0.24607 0.17504,-0.77985 0.38698,-1.18618 0.21195,-0.40633 0.46284,-1.15179 0.55753,-1.65657 0.0947,-0.50478 0.27775,-0.98303 0.40677,-1.06277 0.12903,-0.0797 0.23532,-0.34632 0.23622,-0.59239 8e-4,-0.24608 0.17949,-0.78844 0.39688,-1.20526 0.21738,-0.41681 0.39597,-0.89306 0.39687,-1.05833 8e-4,-0.16527 0.16274,-0.60922 0.35964,-0.98656 0.1969,-0.37734 0.43969,-1.12148 0.53953,-1.65364 0.0998,-0.53217 0.29518,-0.96758 0.43411,-0.96758 0.13892,0 0.25332,-0.26789 0.25422,-0.59531 8e-4,-0.32742 0.17949,-0.93634 0.39688,-1.35316 0.21738,-0.41682 0.39524,-0.95587 0.39524,-1.1979 0,-0.24203 0.1617,-0.6749 0.35934,-0.96194 0.19763,-0.28704 0.44115,-0.96838 0.54115,-1.51408 0.1,-0.54571 0.29549,-0.99219 0.43442,-0.99219 0.13892,0 0.25259,-0.3307 0.25259,-0.73488 0,-0.40418 0.16127,-0.96973 0.35838,-1.25677 0.1971,-0.28704 0.42316,-0.81955 0.50235,-1.18335 0.19628,-0.9017 0.725,-2.36704 1.16033,-3.21582 0.19811,-0.38626 0.36019,-0.92531 0.36019,-1.1979 0,-0.27259 0.16127,-0.73047 0.35838,-1.01751 0.1971,-0.28704 0.42316,-0.81955 0.50235,-1.18335 0.19628,-0.90171 0.725,-2.36704 1.16033,-3.21583 0.19811,-0.38625 0.36019,-0.92531 0.36019,-1.1979 0,-0.27259 0.16127,-0.73047 0.35838,-1.01751 0.1971,-0.28704 0.42316,-0.81955 0.50235,-1.18335 0.18215,-0.83681 0.71572,-2.35432 1.06917,-3.04078 0.1493,-0.28998 0.36118,-0.88529 0.47084,-1.32292 0.10966,-0.43762 0.45968,-1.45052 0.77783,-2.25088 0.31814,-0.80037 0.64341,-1.75287 0.72281,-2.11667 0.0794,-0.3638 0.30564,-0.89631 0.50275,-1.18335 0.1971,-0.28704 0.35837,-0.73396 0.35837,-0.99315 0,-0.58397 0.91962,-2.33477 1.37969,-2.62668 0.18706,-0.11869 8.87865,-0.21762 19.31465,-0.21985 18.54124,-0.004 18.98085,0.008 19.25056,0.51169 0.20143,0.37637 0.17416,0.75173 -0.10091,1.38906 -0.20731,0.48033 -0.56545,1.30804 -0.79587,1.83935 -0.23042,0.53132 -0.41895,1.14937 -0.41895,1.37345 0,0.22408 -0.1099,0.47534 -0.24423,0.55836 -0.13432,0.083 -0.32806,0.53262 -0.43052,0.99911 -0.10245,0.4665 -0.28603,1.03068 -0.40795,1.25374 -0.52068,0.95268 -1.29855,2.92098 -1.29855,3.28585 0,0.21767 -0.11906,0.46936 -0.26458,0.5593 -0.14552,0.0899 -0.26863,0.36485 -0.27356,0.61092 -0.005,0.24608 -0.23903,0.92366 -0.52019,1.50574 -0.28117,0.58209 -0.51526,1.26669 -0.52019,1.52136 -0.005,0.25466 -0.11758,0.46302 -0.25031,0.46302 -0.13273,0 -0.32178,0.47625 -0.42013,1.05833 -0.0983,0.58208 -0.2874,1.05834 -0.42013,1.05834 -0.13273,0 -0.24206,0.20836 -0.24296,0.46302 -7.9e-4,0.25466 -0.16827,0.78242 -0.37193,1.1728 -0.20367,0.39038 -0.45022,1.07362 -0.5479,1.51832 -0.0977,0.4447 -0.28748,0.87646 -0.42181,0.95948 -0.13432,0.083 -0.24423,0.33428 -0.24423,0.55836 0,0.38385 -0.35281,1.30421 -1.20109,3.13322 -0.20247,0.43657 -0.44497,1.1223 -0.53887,1.52386 -0.0939,0.40156 -0.27661,0.79554 -0.40601,0.87551 -0.1294,0.08 -0.23528,0.32875 -0.23528,0.55283 0,0.41217 -0.51013,1.71772 -1.20681,3.08852 -0.20938,0.41197 -0.38069,0.95476 -0.38069,1.2062 0,0.25143 -0.1748,0.68827 -0.38846,0.97074 -0.21365,0.28248 -0.39603,0.75172 -0.40529,1.04276 -0.009,0.29104 -0.19163,0.76028 -0.40529,1.04276 -0.21365,0.28247 -0.38846,0.71931 -0.38846,0.97074 0,0.25144 -0.16911,0.79423 -0.37581,1.20621 -0.2067,0.41197 -0.57336,1.28482 -0.81481,1.93967 -0.24145,0.65484 -0.60811,1.52769 -0.81481,1.93967 -0.2067,0.41197 -0.3796,0.94775 -0.38423,1.19062 -0.005,0.24287 -0.18322,0.6727 -0.39688,0.95517 -0.21365,0.28248 -0.38846,0.77391 -0.38846,1.09208 0,0.31817 -0.17859,0.72672 -0.39687,0.90787 -0.21828,0.18116 -0.39688,0.65741 -0.39688,1.05834 0,0.40092 -0.17859,0.87717 -0.39687,1.05833 -0.21828,0.18116 -0.39688,0.54888 -0.39688,0.81717 0,0.47697 -0.47432,1.73978 -1.21665,3.23917 -0.20397,0.41197 -0.37085,0.90834 -0.37085,1.10303 0,0.1947 -0.16911,0.69107 -0.37581,1.10304 -0.2067,0.41198 -0.58006,1.28483 -0.82969,1.93967 -0.24963,0.65485 -0.61629,1.56581 -0.81481,2.02436 -0.19851,0.45856 -0.36094,1.01708 -0.36094,1.24116 0,0.22408 -0.10587,0.47285 -0.23527,0.55283 -0.1294,0.08 -0.3121,0.47395 -0.40601,0.87551 -0.15161,0.64829 -0.54762,1.61211 -1.24973,3.04162 -0.12411,0.25268 -0.22565,0.61163 -0.22565,0.79766 0,0.18603 -0.23813,0.78253 -0.52917,1.32555 -0.29104,0.54302 -0.52917,1.15273 -0.52917,1.3549 0,0.20218 -0.17786,0.70862 -0.39524,1.12544 -0.21739,0.41682 -0.39598,0.96621 -0.39688,1.22087 -7.9e-4,0.25466 -0.11123,0.46302 -0.24519,0.46302 -0.13396,0 -0.32844,0.38648 -0.43219,0.85883 -0.17948,0.81718 -0.30756,1.15709 -1.28655,3.41449 -0.23042,0.53131 -0.41895,1.13258 -0.41895,1.33615 0,0.20356 -0.10056,0.48322 -0.22347,0.62147 -0.12291,0.13824 -0.4986,1.02526 -0.83486,1.97114 -0.33626,0.94589 -0.71195,1.8329 -0.83486,1.97115 -0.12291,0.13824 -0.22347,0.41791 -0.22347,0.62147 0,0.20357 -0.16243,0.7453 -0.36094,1.20385 -0.19852,0.45856 -0.56518,1.36952 -0.81481,2.02437 -0.24963,0.65484 -0.62299,1.52769 -0.82969,1.93967 -0.2067,0.41197 -0.37581,0.92938 -0.37581,1.1498 0,0.22042 -0.15792,0.71678 -0.35093,1.10304 -0.19301,0.38625 -0.5502,1.09888 -0.79375,1.58362 -0.24355,0.48473 -0.44282,1.08705 -0.44282,1.33849 0,0.25143 -0.17481,0.68827 -0.38847,0.97074 -0.21365,0.28248 -0.39224,0.75873 -0.39687,1.05834 -0.005,0.29961 -0.18322,0.77586 -0.39688,1.05833 -0.21365,0.28248 -0.39224,0.75873 -0.39687,1.05833 -0.005,0.29961 -0.18322,0.77586 -0.39688,1.05834 -0.21365,0.28247 -0.39224,0.7123 -0.39687,0.95517 -0.005,0.24287 -0.18701,0.80841 -0.40529,1.25677 -0.21828,0.44835 -0.57547,1.18203 -0.79375,1.63038 -0.21828,0.44836 -0.39687,0.9801 -0.39687,1.18165 0,0.37009 -0.53484,1.74067 -1.21666,3.11783 -0.20396,0.41198 -0.37084,0.90834 -0.37084,1.10304 0,0.19469 -0.16912,0.69106 -0.37582,1.10304 -0.2067,0.41197 -0.57336,1.28482 -0.81481,1.93967 -0.24145,0.65484 -0.60811,1.52769 -0.81481,1.93967 -0.2067,0.41197 -0.37581,0.97049 -0.37581,1.24115 0,0.27066 -0.10588,0.55755 -0.23528,0.63752 -0.1294,0.08 -0.3121,0.47395 -0.40601,0.87551 -0.0939,0.40156 -0.33425,1.08729 -0.5341,1.52385 -0.19985,0.43657 -0.56576,1.32954 -0.81314,1.98438 -0.24738,0.65484 -0.61554,1.50665 -0.81813,1.89291 -0.20259,0.38625 -0.37213,0.92203 -0.37676,1.19062 -0.005,0.26859 -0.18322,0.71946 -0.39687,1.00194 -0.21366,0.28247 -0.38846,0.78146 -0.38846,1.10886 0,0.3274 -0.10588,0.66071 -0.23528,0.74068 -0.1294,0.08 -0.3121,0.47395 -0.40601,0.87551 -0.0939,0.40156 -0.3364,1.08729 -0.53887,1.52385 -0.83096,1.79167 -1.20109,2.74572 -1.20109,3.09593 0,0.20356 -0.0953,0.48323 -0.21171,0.62147 -0.21566,0.25604 -0.95356,2.10324 -1.79152,4.48469 -0.25602,0.7276 -0.56487,1.43602 -0.68634,1.57427 -0.12147,0.13824 -0.22085,0.41267 -0.22085,0.60983 0,0.34882 -0.81875,2.37845 -1.3322,3.30241 -0.14041,0.25269 -0.25603,0.60988 -0.25693,0.79375 -7.9e-4,0.18388 -0.16827,0.65372 -0.37194,1.0441 -0.20367,0.39038 -0.45022,1.07363 -0.54789,1.51832 -0.0977,0.4447 -0.28749,0.87646 -0.42182,0.95948 -0.13432,0.083 -0.24422,0.33428 -0.24422,0.55836 0,0.41218 -0.51013,1.71772 -1.20681,3.08852 -0.20938,0.41198 -0.38069,0.95477 -0.38069,1.20621 0,0.25143 -0.17481,0.68827 -0.38846,0.97074 -0.21365,0.28248 -0.39225,0.73335 -0.39688,1.00194 -0.005,0.26858 -0.16633,0.80437 -0.35934,1.19062 -0.19301,0.38626 -0.55019,1.09888 -0.79375,1.58362 -0.24355,0.48473 -0.44282,1.08706 -0.44282,1.33849 0,0.25144 -0.17481,0.68827 -0.38846,0.97075 -0.21365,0.28247 -0.39225,0.75872 -0.39688,1.05833 -0.005,0.29961 -0.18322,0.77586 -0.39687,1.05833 -0.21365,0.28248 -0.39225,0.73335 -0.39688,1.00194 -0.005,0.26859 -0.17417,0.80437 -0.37676,1.19062 -0.20259,0.38626 -0.58181,1.23807 -0.84271,1.89291 -0.79238,1.98885 -1.29466,2.38125 -3.0481,2.38125 -1.25039,0 -1.66594,-0.12189 -2.33512,-0.68498 z"
       id="path308" /><path
       style="fill:#e6c9c3;fill-opacity:1;stroke-width:0.264583"
       d="m 135.49135,359.37593 c -12.71466,-4.8027 -18.0651,-6.94123 -18.30334,-7.31571 -0.29549,-0.46447 0.90707,-3.84481 9.83614,-27.64896 5.59503,-14.91588 10.4818,-27.93229 10.85949,-28.92536 0.4413,-1.16032 0.88961,-1.89801 1.2545,-2.06427 0.45661,-0.20805 2.06969,0.30544 8.2376,2.62227 4.21839,1.58454 12.53361,4.70713 18.47828,6.9391 8.36131,3.13931 10.86534,4.1829 11.05959,4.60923 0.20051,0.44009 -1.46056,5.10744 -8.2464,23.171 -4.67362,12.44095 -9.51541,25.35835 -10.75953,28.70532 -1.24412,3.34698 -2.38187,6.23425 -2.52834,6.41615 -0.14647,0.1819 -0.63868,0.31882 -1.0938,0.30425 -0.45513,-0.0146 -8.91252,-3.08042 -18.79419,-6.81302 z"
       id="path306" /><path
       style="fill:#bde0e6;fill-opacity:1;stroke-width:0.264583"
       d="m 21.563238,376.55984 c -1.236927,-0.2735 -2.963333,-0.76709 -3.836458,-1.09688 -1.499989,-0.56656 -4.788109,-2.21098 -5.230913,-2.61603 -0.224828,-0.20566 -0.412018,-0.1324 15.152788,-5.9304 28.707211,-10.69366 33.294861,-12.43399 34.510767,-13.09174 0.718056,-0.38843 1.94518,-1.28989 2.726944,-2.00323 1.461813,-1.33389 3.139083,-3.52586 2.889171,-3.77578 -0.169323,-0.16932 -8.866093,2.64876 -37.433228,12.12978 -11.833648,3.92741 -21.6860704,7.07539 -21.894271,6.99549 -0.4666827,-0.17908 -0.4930828,-0.80605 -0.047821,-1.13563 0.3539067,-0.26196 4.830599,-2.20124 5.081405,-2.20124 0.08244,0 0.6546,-0.23485 1.271479,-0.52189 0.616876,-0.28704 3.562377,-1.52433 6.545554,-2.74952 2.983177,-1.22519 7.924271,-3.26501 10.980209,-4.53294 3.055937,-1.26792 6.925469,-2.87334 8.598958,-3.56759 1.67349,-0.69425 4.888178,-2.03779 7.143751,-2.98564 2.255573,-0.94785 6.660885,-2.79529 9.789583,-4.10542 12.722305,-5.32742 12.173173,-5.05708 12.152237,-5.9826 -0.0415,-1.83484 0.0633,-1.83239 -5.140778,-0.12005 -2.619375,0.86188 -7.858125,2.58345 -11.641667,3.82571 -3.783542,1.24227 -16.040461,5.29696 -27.237596,9.01043 -19.0914741,6.33159 -20.3800717,6.72216 -20.7062342,6.27611 -0.5612844,-0.7676 -0.3537452,-0.88426 6.5365372,-3.67436 2.535123,-1.02655 24.607999,-10.17689 27.781251,-11.51675 1.673489,-0.7066 4.888177,-2.05373 7.14375,-2.99361 2.255573,-0.93988 6.125104,-2.56822 8.598959,-3.61854 4.323813,-1.83576 7.619352,-3.22347 10.715625,-4.51223 0.800365,-0.33314 1.486673,-0.62562 1.52513,-0.64996 0.210225,-0.13306 -1.153102,-3.2999 -1.420606,-3.2999 -0.385075,0 -9.364539,2.93741 -39.262859,12.84386 -12.442032,4.12253 -23.1443775,7.63114 -23.7829891,7.79692 -0.9793393,0.25424 -1.2263861,0.23616 -1.5780491,-0.11551 -0.3658976,-0.36589 -0.3695091,-0.463 -0.029514,-0.79321 0.3303191,-0.32081 6.0113362,-2.77422 14.1457602,-6.10899 1.164167,-0.47726 5.629011,-2.32129 9.921875,-4.09785 4.292865,-1.77655 9.114897,-3.76643 10.715626,-4.42194 1.600729,-0.65551 3.386667,-1.40302 3.96875,-1.66112 0.582083,-0.25811 2.546615,-1.09125 4.365625,-1.85143 1.819011,-0.76018 5.09323,-2.13338 7.276042,-3.05156 2.182813,-0.91818 5.754688,-2.40921 7.9375,-3.31339 2.182813,-0.90419 4.012671,-1.68247 4.06635,-1.72953 0.106749,-0.0936 -1.190945,-3.75866 -1.518452,-4.28858 -0.152979,-0.24752 -1.238382,0.003 -4.41806,1.01955 -8.225335,2.62978 -33.429526,10.93289 -49.3267142,16.24988 -11.7231191,3.92092 -10.6515433,3.61522 -11.1030521,3.1675 -0.3401775,-0.33733 -0.3401775,-0.42973 0,-0.75765 0.2130848,-0.20541 3.6616456,-1.70531 7.6634687,-3.33311 4.001823,-1.62781 9.5382286,-3.90536 12.3031246,-5.06124 2.764896,-1.15587 6.27724,-2.62064 7.805209,-3.25503 5.287214,-2.1952 9.399998,-3.91359 11.1125,-4.643 0.945886,-0.40289 2.731824,-1.15498 3.968751,-1.67132 6.186096,-2.58232 7.723907,-3.22807 13.361458,-5.61066 3.34698,-1.41453 6.119369,-2.60194 6.160869,-2.63869 0.07255,-0.0643 -0.990193,-3.08157 -1.15252,-3.27221 -0.0436,-0.0512 -0.652537,0.0894 -1.353188,0.31248 -4.89912,1.55975 -16.683355,5.35678 -18.207244,5.86659 -20.159317,6.74431 -44.6942677,14.69747 -44.9902836,14.58388 -0.2121667,-0.0814 -0.3857598,-0.31925 -0.3857598,-0.52852 0,-0.37557 0.5062379,-0.61305 7.2760419,-3.41329 1.7462501,-0.72231 4.6037502,-1.90754 6.3500003,-2.63385 1.74625,-0.7263 4.1275002,-1.70886 5.2916662,-2.18346 1.164167,-0.47461 3.604948,-1.48681 5.423959,-2.24935 1.81901,-0.76253 4.557448,-1.90143 6.085417,-2.53089 1.527968,-0.62946 3.671094,-1.52267 4.7625,-1.98491 3.792461,-1.60621 7.024442,-2.9585 9.260417,-3.87466 1.236927,-0.50681 2.606146,-1.08107 3.042708,-1.27613 1.106977,-0.49461 5.883551,-2.51859 8.731251,-3.69971 2.61407,-1.08422 6.020104,-2.56786 6.199232,-2.70034 0.100026,-0.074 -0.996315,-3.49152 -1.202298,-3.74783 -0.04373,-0.0544 -1.721705,0.44371 -3.728842,1.10692 -2.007137,0.66321 -9.185749,3.0162 -15.952468,5.22887 -6.766719,2.21267 -19.625469,6.44856 -28.5750006,9.41309 -14.7255156,4.87781 -16.3024908,5.34836 -16.5940218,4.95152 -0.1914816,-0.26065 -0.2330186,-0.59777 -0.102404,-0.83117 0.120856,-0.21596 2.0517589,-1.15595 4.290896,-2.08887 2.2391344,-0.93292 5.32131081,-2.21999 6.8492796,-2.86015 1.5279688,-0.64016 6.7071878,-2.78494 11.5093748,-4.76617 4.802188,-1.98124 9.683751,-4.00191 10.847917,-4.49038 1.164167,-0.48847 4.736042,-1.98067 7.937501,-3.316 3.201458,-1.33533 7.606771,-3.18222 9.789583,-4.10419 5.436008,-2.29607 9.35803,-3.93812 10.384897,-4.34789 0.472942,-0.18873 0.859895,-0.42231 0.859895,-0.51907 0,-0.0968 -0.277698,-0.88599 -0.617108,-1.75384 -0.489011,-1.25038 -0.722427,-1.56016 -1.12448,-1.4924 -1.093957,0.18437 -22.483496,7.18426 -49.1905672,16.09798 -8.0035721,2.67126 -14.7008388,4.7997 -14.8828138,4.72987 -0.181977,-0.0698 -0.330866,-0.35416 -0.330866,-0.63185 0,-0.35113 0.382738,-0.66721 1.25677,-1.03788 0.691224,-0.29314 5.0667719,-2.1111 9.7234387,-4.03991 4.6566669,-1.92881 12.4552609,-5.17018 17.3302083,-7.20306 4.874948,-2.03287 10.232761,-4.26524 11.906251,-4.96081 4.124849,-1.71446 7.19501,-3.00774 12.832292,-5.4055 2.619375,-1.11413 5.804297,-2.45707 7.077604,-2.98432 1.273308,-0.52724 2.315105,-1.08448 2.315105,-1.2383 0,-0.3686 -1.340858,-3.93543 -1.580216,-4.20354 -0.102362,-0.11467 -2.259238,0.4592 -4.793055,1.27526 -12.185182,3.92443 -28.045683,9.13768 -42.71760453,14.04102 -8.88263697,2.96857 -16.42161947,5.3974 -16.75329847,5.3974 -0.459068,0 -0.582864,-0.12951 -0.518502,-0.54242 0.09237,-0.59258 0.418989,-0.75375 6.963715,-3.43626 2.182813,-0.89468 4.9212506,-2.02482 6.0854173,-2.51143 1.1641667,-0.4866 3.60494815,-1.49923 5.42395857,-2.25029 1.81901043,-0.75106 4.25979183,-1.76304 5.42395853,-2.24883 1.1641667,-0.4858 4.0216666,-1.67631 6.3499996,-2.64558 2.328334,-0.96927 6.852709,-2.87144 10.054167,-4.22704 3.201459,-1.3556 8.916459,-3.77374 12.700001,-5.37364 9.164394,-3.87525 9.451785,-4.01003 9.314588,-4.36861 -0.06512,-0.17019 -0.340882,-0.93629 -0.612807,-1.70244 -0.271926,-0.76615 -0.619353,-1.34506 -0.772062,-1.28646 -0.15271,0.0586 -3.844835,1.25864 -8.204727,2.66676 -4.359892,1.40811 -9.296295,3.0198 -10.969784,3.58153 -21.4323726,7.19407 -44.845361,14.82615 -45.137913,14.71388 -0.459703,-0.1764 -0.488493,-1.11351 -0.03969,-1.29201 0.181901,-0.0724 3.426354,-1.40703 7.209896,-2.96596 3.7835426,-1.55892 7.8316673,-3.22673 8.995834,-3.70624 1.1641667,-0.47952 4.31932307,-1.78913 7.0114586,-2.91026 2.6921355,-1.12113 5.9068231,-2.45448 7.1437502,-2.96301 2.3775062,-0.97745 10.8554392,-4.52257 14.4197922,-6.02976 1.164166,-0.49227 2.950104,-1.24646 3.96875,-1.67598 1.018646,-0.42952 4.15894,-1.75547 6.978433,-2.94655 2.819493,-1.19107 5.409102,-2.2731 5.754688,-2.40449 0.345585,-0.13139 0.628338,-0.38814 0.628338,-0.57056 0,-0.30221 -1.291567,-3.91556 -1.48154,-4.14482 -0.04456,-0.0538 -2.021393,0.52605 -4.392967,1.28849 -10.894529,3.50254 -37.1995792,12.15675 -44.3963282,14.60615 -2.5466148,0.86674 -5.1659898,1.72991 -5.8208338,1.91816 -0.654844,0.18826 -2.083594,0.66601 -3.175,1.06167 -1.091407,0.39566 -2.520157,0.87481 -3.175,1.06478 -0.654844,0.18997 -1.666875,0.51826 -2.248959,0.72953 -0.582083,0.21128 -1.207161,0.33251 -1.389062,0.26941 -0.553207,-0.19191 -0.372907,-1.12588 0.264583,-1.37056 0.327422,-0.12567 1.393711,-0.59519 2.369529,-1.04338 0.97582,-0.44819 5.559727,-2.37057 10.186459,-4.27195 4.6267347,-1.90138 9.3647424,-3.86366 10.5289091,-4.36061 1.16416672,-0.49695 4.0216668,-1.69541 6.3500002,-2.66323 5.1170181,-2.127 9.1890187,-3.83362 14.8166667,-6.20986 2.328334,-0.98312 6.555053,-2.76539 9.392709,-3.96061 6.991366,-2.94475 8.202105,-3.48755 8.201951,-3.67709 -1.61e-4,-0.19605 -1.069768,-3.0371 -1.188982,-3.15813 -0.04627,-0.047 -1.791949,0.4737 -3.879281,1.15705 -2.08733,0.68335 -5.759678,1.88583 -8.160772,2.67218 -2.401093,0.78635 -15.179995,5.01992 -28.3975602,9.40793 -19.7669978,6.56231 -24.0743988,7.91103 -24.2712198,7.59968 -0.549349,-0.86899 -0.590429,-0.84584 7.028154,-3.96036 5.977424,-2.4436 8.319881,-3.40974 14.2875005,-5.89283 1.8917709,-0.78715 5.5231773,-2.29754 8.06979203,-3.35642 2.54661467,-1.05887 6.15730687,-2.56388 8.02376237,-3.34446 1.8664521,-0.78058 3.4405011,-1.41923 3.4978871,-1.41923 0.05739,0 0.732943,-0.28622 1.501238,-0.63605 0.768297,-0.34982 2.408936,-1.05088 3.645863,-1.55791 6.172719,-2.53025 16.189685,-6.76378 16.325766,-6.89987 0.0487,-0.0487 -1.463334,-4.28656 -1.63834,-4.59189 -0.01881,-0.0328 -2.527507,0.75892 -5.574877,1.75942 -3.04737,1.0005 -9.053018,2.96953 -13.345883,4.37561 -4.2928641,1.40608 -16.2436519,5.35414 -26.557307,8.77347 -10.313654,3.41934 -18.92472,6.15073 -19.135702,6.06977 -0.210981,-0.081 -0.344191,-0.35185 -0.296021,-0.60197 0.110816,-0.57542 2.975626,-1.82138 24.0286131,-10.45047 2.8376564,-1.16308 5.7879829,-2.40026 6.55628,-2.74928 0.7682945,-0.34902 1.44758055,-0.63458 1.50952215,-0.63458 0.061942,0 1.39786522,-0.54513 2.96872295,-1.2114 1.5708551,-0.66627 3.8086005,-1.61124 4.9727672,-2.09994 4.0206976,-1.68781 14.3006336,-6.01297 18.2496756,-7.67833 2.179198,-0.91899 4.006585,-1.80411 4.060859,-1.96694 0.114705,-0.34411 -0.991711,-3.18298 -1.240528,-3.18298 -0.09212,0 -2.132121,0.64649 -4.533331,1.43665 -2.401213,0.79016 -12.581155,4.13786 -22.6220925,7.43934 -10.0409379,3.30148 -22.4793825,7.42458 -27.6409855,9.16244 -8.746847,2.94499 -9.407933,3.12803 -9.726025,2.69302 -0.576191,-0.78799 -1.104289,-0.5296 12.363884,-6.04957 1.67349,-0.68589 4.114271,-1.6988 5.423959,-2.25092 1.309687,-0.55212 8.453438,-3.5283 15.8750007,-6.61375 7.4215628,-3.08544 13.9700003,-5.82058 14.5520833,-6.07807 0.582084,-0.2575 2.427552,-1.03401 4.101042,-1.72558 1.67349,-0.69157 4.05474,-1.70211 5.291667,-2.24564 1.236927,-0.54354 2.702975,-1.15001 3.257883,-1.3477 1.543738,-0.55 1.605357,-0.75508 0.838777,-2.79169 -0.37561,-0.99791 -0.770858,-1.90231 -0.878327,-2.00978 -0.224337,-0.22433 -14.119939,4.23187 -41.450626,13.29288 -22.841462,7.57268 -21.50815,7.14482 -22.489315,7.2167 -0.616092,0.0451 -0.81022,-0.0602 -0.868354,-0.47104 -0.06018,-0.42535 0.22525,-0.64205 1.454938,-1.10457 0.841397,-0.31647 2.839501,-1.13297 4.44023,-1.81445 1.600729,-0.68147 4.160573,-1.74557 5.688542,-2.36467 1.527969,-0.6191 4.683125,-1.92244 7.011459,-2.89632 2.328333,-0.97388 6.555052,-2.73448 9.392708,-3.91246 6.7258998,-2.79208 19.9463595,-8.34221 21.2989598,-8.9416 0.5820834,-0.25794 2.8442702,-1.21035 5.0270832,-2.11647 2.182813,-0.90612 4.590659,-1.9287 5.350767,-2.27239 0.760111,-0.3437 1.682845,-0.70041 2.050521,-0.79269 0.367678,-0.0923 0.668504,-0.25372 0.668504,-0.35874 0,-0.45431 -1.313289,-3.3202 -1.506569,-3.28767 -0.707557,0.11907 -24.6640148,7.96729 -49.277838,16.14359 -8.067829,2.68 -14.824626,4.81292 -15.015105,4.73983 -0.276408,-0.10607 -0.531202,-1.20531 -0.280178,-1.20875 0.03638,-5.3e-4 0.959115,-0.36958 2.050521,-0.82018 1.091406,-0.4506 3.234531,-1.33318 4.7625,-1.9613 2.964484,-1.21863 5.875907,-2.42394 14.61823,-6.05183 8.840359,-3.66857 16.2014225,-6.71991 20.1744801,-8.3628 2.03729173,-0.84243 7.2760419,-3.0177 11.6416671,-4.83392 4.3656248,-1.81622 8.2053908,-3.38481 8.5328128,-3.48576 0.327421,-0.10095 0.596476,-0.32435 0.597902,-0.49645 0.0052,-0.62732 -1.455941,-4.41394 -1.703194,-4.41394 -0.365379,0 -10.0583365,3.13105 -31.10773,10.04851 -26.719669,8.78089 -33.147192,10.8389 -33.387605,10.69032 -0.55374,-0.34223 -0.154891,-1.10374 0.777707,-1.48486 1.294481,-0.529 13.944323,-5.80407 16.338022,-6.81306 1.018646,-0.42938 5.126302,-2.14104 9.128125,-3.80368 11.6478696,-4.83936 19.9614725,-8.33038 28.1204396,-11.80822 l 7.6152294,-3.24607 -0.439584,-0.69408 c -0.697317,-1.10101 -1.758871,-2.14928 -2.176518,-2.14928 -0.459513,0 -19.6058504,6.25443 -44.496651,14.53547 -9.968177,3.31637 -18.272787,5.97375 -18.454688,5.90529 -0.605787,-0.22796 -0.346963,-1.10419 0.447518,-1.51503 0.428036,-0.22135 2.124676,-0.94694 3.770312,-1.61244 1.645637,-0.66549 3.496786,-1.43995 4.113662,-1.72101 0.616878,-0.28106 1.18813,-0.51103 1.269452,-0.51103 0.131456,0 4.163637,-1.64974 11.764161,-4.81325 1.382448,-0.5754 3.495808,-1.45422 4.696355,-1.95293 1.200547,-0.4987 3.224609,-1.33959 4.497916,-1.86864 1.273308,-0.52904 3.089011,-1.28976 4.034896,-1.69049 0.945886,-0.40072 4.636824,-1.94628 8.2020845,-3.43458 3.5652605,-1.48831 7.0776044,-2.96907 7.80520865,-3.29059 0.72760419,-0.32152 2.14710445,-0.92953 3.15444725,-1.35112 1.5997423,-0.66953 1.7504199,-0.7892 1.1906251,-0.94567 -0.9510819,-0.26584 -3.35395109,-0.26118 -5.0065307,0.01 -0.8003647,0.13119 -4.0745835,1.2095 -7.276042,2.39624 -8.5229598,3.15936 -18.2772988,6.78919 -31.9835118,11.90185 -6.676869,2.4906 -12.185753,4.48236 -12.241965,4.42615 -0.237036,-0.23704 1.606823,-5.23064 2.600172,-7.04186 1.448727,-2.64155 2.295704,-3.78453 4.396831,-5.93342 3.37632,-3.45307 5.735891,-4.82302 12.622222,-7.32836 2.473855,-0.90003 5.450417,-1.98836 6.614584,-2.41851 1.164167,-0.43016 4.438386,-1.59396 7.276042,-2.58622 5.924987,-2.07184 9.7916506,-3.4678 13.7953257,-4.98044 7.256939,-2.74178 12.693669,-3.05864 19.1171413,-1.11417 4.084299,1.23638 7.923943,3.64055 11.087994,6.9427 1.720282,1.79536 2.562035,2.96404 3.992841,5.54362 0.823598,1.48486 5.811031,14.39623 11.938842,30.90706 0.783121,2.11006 2.190231,5.86053 3.126909,8.33438 1.413563,3.73335 19.111654,50.81302 23.323752,62.04479 0.682157,1.81901 1.831904,4.85511 2.554992,6.74688 0.723087,1.89177 2.447806,6.47568 3.832706,10.18646 1.384901,3.71078 3.689835,9.8425 5.122074,13.62604 7.452697,19.68774 7.51513,19.89617 7.52931,25.13542 0.01109,4.09869 -0.400304,6.45764 -1.733402,9.93933 -2.150245,5.61587 -6.620296,10.71906 -11.878065,13.56049 -0.945885,0.51118 -4.815417,2.0816 -8.598958,3.48983 -3.783542,1.40823 -8.42698,3.13851 -10.318751,3.84507 -9.352233,3.49297 -18.864131,6.93297 -20.201729,7.306 -2.398366,0.66887 -8.890942,0.73402 -11.680564,0.11722 z"
       id="path302" /></g></svg>
