<?xml version="1.0" encoding="UTF-8" standalone="no"?>
<!-- Created with Inkscape (http://www.inkscape.org/) -->

<svg
   width="144.23318mm"
   height="141.32182mm"
   viewBox="0 0 144.23318 141.32182"
   version="1.1"
   id="svg5"
   inkscape:version="1.2.2 (732a01da63, 2022-12-09)"
   sodipodi:docname="vlaskolaska-process.svg"
   inkscape:export-filename="vlaskolaska-about.svg"
   inkscape:export-xdpi="96"
   inkscape:export-ydpi="96"
   xmlns:inkscape="http://www.inkscape.org/namespaces/inkscape"
   xmlns:sodipodi="http://sodipodi.sourceforge.net/DTD/sodipodi-0.dtd"
   xmlns="http://www.w3.org/2000/svg"
   xmlns:svg="http://www.w3.org/2000/svg">
  <sodipodi:namedview
     id="namedview7"
     pagecolor="#ffffff"
     bordercolor="#000000"
     borderopacity="0.25"
     inkscape:showpageshadow="2"
     inkscape:pageopacity="0.0"
     inkscape:pagecheckerboard="0"
     inkscape:deskcolor="#d1d1d1"
     inkscape:document-units="mm"
     showgrid="false"
     inkscape:zoom="1.4770342"
     inkscape:cx="311.09638"
     inkscape:cy="266.41225"
     inkscape:window-width="1920"
     inkscape:window-height="991"
     inkscape:window-x="-9"
     inkscape:window-y="-9"
     inkscape:window-maximized="1"
     inkscape:current-layer="g2447" />
  <defs
     id="defs2">
    <inkscape:path-effect
       effect="bspline"
       id="path-effect19819"
       is_visible="true"
       lpeversion="1"
       weight="33.333333"
       steps="2"
       helper_size="0"
       apply_no_weight="true"
       apply_with_weight="true"
       only_selected="false" />
    <inkscape:path-effect
       effect="bspline"
       id="path-effect13962"
       is_visible="true"
       lpeversion="1"
       weight="33.333333"
       steps="2"
       helper_size="0"
       apply_no_weight="true"
       apply_with_weight="true"
       only_selected="false" />
    <inkscape:path-effect
       effect="bspline"
       id="path-effect13958"
       is_visible="true"
       lpeversion="1"
       weight="33.333333"
       steps="2"
       helper_size="0"
       apply_no_weight="true"
       apply_with_weight="true"
       only_selected="false" />
    <inkscape:path-effect
       effect="bspline"
       id="path-effect13954"
       is_visible="true"
       lpeversion="1"
       weight="33.333333"
       steps="2"
       helper_size="0"
       apply_no_weight="true"
       apply_with_weight="true"
       only_selected="false" />
    <inkscape:path-effect
       effect="bspline"
       id="path-effect13950"
       is_visible="true"
       lpeversion="1"
       weight="33.333333"
       steps="2"
       helper_size="0"
       apply_no_weight="true"
       apply_with_weight="true"
       only_selected="false" />
    <inkscape:path-effect
       effect="bspline"
       id="path-effect13946"
       is_visible="true"
       lpeversion="1"
       weight="33.333333"
       steps="2"
       helper_size="0"
       apply_no_weight="true"
       apply_with_weight="true"
       only_selected="false" />
    <inkscape:path-effect
       effect="bspline"
       id="path-effect13934"
       is_visible="true"
       lpeversion="1"
       weight="33.333333"
       steps="2"
       helper_size="0"
       apply_no_weight="true"
       apply_with_weight="true"
       only_selected="false" />
    <inkscape:path-effect
       effect="bspline"
       id="path-effect13867"
       is_visible="true"
       lpeversion="1"
       weight="33.333333"
       steps="2"
       helper_size="0"
       apply_no_weight="true"
       apply_with_weight="true"
       only_selected="false" />
  </defs>
  <g
     inkscape:groupmode="layer"
     id="layer2"
     inkscape:label="logo"
     transform="translate(-31.735465,-24.052341)"
     inkscape:export-filename="vlaskolaska-mini.svg"
     inkscape:export-xdpi="96"
     inkscape:export-ydpi="96">
    <path
       style="fill:#dff1f3;fill-opacity:1;stroke:none;stroke-width:0.182033;stroke-linecap:square;stroke-dasharray:none;stroke-opacity:1"
       d="m 63.619432,107.82573 c 0,0 -7.850912,1.21839 -11.230264,-2.961 -3.379351,-4.17938 -3.472239,-9.729155 -1.590838,-12.183245 1.881399,-2.4541 4.055131,-5.66473 3.870005,-11.716703 -0.185129,-6.051971 3.441286,-8.658861 4.366221,-8.884655 0.924934,-0.225799 2.997286,-0.814098 4.383273,0.209226 1.385988,1.023323 5.94065,-0.74772 5.94065,-0.74772 0,0 4.643755,-1.068593 5.264228,4.048825 0.620472,5.117418 0.872136,9.487918 2.245513,11.312247 1.373372,1.82432 2.225788,6.20428 2.124246,7.56472 -0.101541,1.36044 1.637655,5.39382 1.173608,5.606845 -0.464054,0.21299 -14.070318,9.49299 -14.070318,9.49299 z"
       id="path32118" />
    <path
       style="fill:#ffe2d4;fill-opacity:1;stroke:none;stroke-width:0.182033;stroke-linecap:square;stroke-dasharray:none;stroke-opacity:1"
       d="m 63.396948,107.96243 c 0,0 2.587326,-0.21965 3.833133,-1.74234 1.245802,-1.5227 3.845584,-3.80524 6.064102,-4.77181 2.218516,-0.96656 4.659679,-0.80794 5.113941,-2.943995 0.454262,-2.13606 0.949999,-3.0897 0.949999,-3.0897 0,0 6.026588,0.15499 9.294133,-0.0139 3.267552,-0.16887 9.621313,-1.71129 11.770304,0.46575 2.14899,2.17705 4.89857,3.10167 4.30146,6.677625 -0.59712,3.57597 -14.761386,24.12405 -14.761386,24.12405 0,0 -10.632182,1.03439 -11.852762,0.95508 -1.220581,-0.0793 -8.683926,-0.5774 -11.100344,-6.12369 -2.416419,-5.5463 -4.206706,-11.42324 -3.61258,-13.53707 z"
       id="path32062" />
    <path
       style="fill:#f9e7cf;fill-opacity:1;stroke:none;stroke-width:0.182033;stroke-linecap:square;stroke-dasharray:none;stroke-opacity:1"
       d="m 97.269251,103.82375 c 0,0 3.217949,-4.679885 7.686219,-4.212955 4.46826,0.466925 17.42842,4.919995 19.23553,5.288375 1.80712,0.36837 8.02875,2.81745 6.31241,9.27723 -1.71633,6.45979 -5.08657,15.41461 -7.13606,17.84676 -2.04949,2.43215 -6.68365,5.30516 -9.10197,5.97525 -2.41833,0.67005 -2.88125,1.28598 -4.56236,1.91103 -1.68111,0.62508 -5.55578,2.03702 -8.62636,-0.844 -3.070568,-2.88101 -11.279949,-12.21644 -10.678113,-16.25769 0.601842,-4.04123 6.870704,-18.984 6.870704,-18.984 z"
       id="path31592" />
    <g
       id="g721"
       inkscape:label="vodovky"
       style="display:inline"
       transform="rotate(-17.53287,30.752667,42.565693)">
      <path
         style="display:inline;fill:#effbfd;fill-opacity:1;stroke-width:0.396875;stroke-linecap:square"
         d="m 62.889217,126.12676 c 0,0 -0.113904,0.12182 0.09524,-0.0182 0.07427,-0.0497 0.263049,0.0442 0.506414,0.0815 1.314149,0.30084 7.093244,1.93165 7.093244,1.93165 l 22.134724,7.12491 0.411662,0.50666 0.189998,0.53833 -0.34833,1.70997 -1.519981,4.52828 -0.538326,1.45665 -0.60166,2.2483 -0.538326,1.77332 -0.633326,0.75998 -29.734628,-9.53154 -0.474996,-1.01332 v -0.88666 l 2.406637,-6.55492 1.013322,-2.91329 z"
         id="path819"
         sodipodi:nodetypes="csccccccccccccccccc" />
      <circle
         style="fill:#f9e7cf;fill-opacity:1;stroke:#000000;stroke-width:0.182033;stroke-linecap:square;stroke-dasharray:none"
         id="circle2962"
         cx="71.518242"
         cy="138.3343"
         r="2.4468017" />
      <circle
         style="fill:#f9d6d6;fill-opacity:1;stroke:#000000;stroke-width:0.182033;stroke-linecap:square;stroke-dasharray:none"
         id="circle2958"
         cx="84.460495"
         cy="142.40955"
         r="2.4468017" />
      <circle
         style="fill:#f9e7ce;fill-opacity:1;stroke:#000000;stroke-width:0.182033;stroke-linecap:square;stroke-dasharray:none"
         id="circle2960"
         cx="77.922195"
         cy="140.39432"
         r="2.4468017" />
      <circle
         style="fill:#b28072;fill-opacity:1;stroke:#000000;stroke-width:0.182033;stroke-linecap:square;stroke-dasharray:none"
         id="circle2964"
         cx="65.293419"
         cy="136.36386"
         r="2.4468017" />
      <circle
         style="fill:#f9e7cf;fill-opacity:1;stroke:#000000;stroke-width:0.182033;stroke-linecap:square;stroke-dasharray:none"
         id="circle2966"
         cx="67.084732"
         cy="130.94513"
         r="2.4468017" />
      <circle
         style="fill:#f8e7d0;fill-opacity:1;stroke:#000000;stroke-width:0.182033;stroke-linecap:square;stroke-dasharray:none"
         id="circle2950"
         cx="86.251808"
         cy="137.0356"
         r="2.4468017" />
      <circle
         style="fill:#b37f71;fill-opacity:1;stroke:#000000;stroke-width:0.182033;stroke-linecap:square;stroke-dasharray:none"
         id="path2392"
         cx="73.219994"
         cy="132.87079"
         r="2.4468017" />
      <circle
         style="fill:#f9d7d6;fill-opacity:1;stroke:#000000;stroke-width:0.182033;stroke-linecap:square;stroke-dasharray:none"
         id="circle2948"
         cx="79.534378"
         cy="135.06516"
         r="2.4468017" />
      <path
         style="fill:none;fill-opacity:1;stroke:#000000;stroke-width:0.264583;stroke-linecap:square;stroke-dasharray:none;stroke-opacity:1"
         d="m 92.883953,135.36342 c 0.09138,0.10538 0.271698,0.31331 0.338172,0.63321 0.06647,0.31989 0.02179,0.75222 -0.02222,1.04514 -0.04401,0.29292 -0.08709,0.447 -0.152546,0.63154 -0.06545,0.18454 -0.153214,0.39995 -0.293619,0.82722 -0.140406,0.42727 -0.333488,1.06604 -0.485874,1.57767 -0.152386,0.51163 -0.264087,0.89609 -0.354269,1.17189 -0.09018,0.27581 -0.158795,0.44335 -0.283259,0.77253 -0.124464,0.32918 -0.30478,0.81985 -0.437226,1.17435 -0.132446,0.35451 -0.217016,0.57292 -0.296765,0.82819 -0.07975,0.25528 -0.154749,0.54699 -0.217801,0.77503 -0.06305,0.22804 -0.114116,0.3926 -0.174706,0.64109 -0.06059,0.24849 -0.130801,0.58059 -0.228176,0.96792 -0.09737,0.38734 -0.221842,0.83014 -0.363073,1.20074 -0.141231,0.3706 -0.299207,0.66979 -0.397633,0.70148 -0.09843,0.0317 -0.13832,-0.20618 -0.155344,-0.55643 -0.01702,-0.35025 -0.01064,-0.8125 0.02829,-1.25703 0.03893,-0.44453 0.11074,-0.87088 0.196019,-1.21678 0.08528,-0.3459 0.184216,-0.61069 0.304697,-0.94723 0.12048,-0.33655 0.262501,-0.74494 0.428455,-1.22588 0.165955,-0.48094 0.355844,-1.03444 0.466003,-1.38203 0.110159,-0.34759 0.14048,-0.4897 0.185908,-0.65296 0.04543,-0.16325 0.106063,-0.34725 0.202606,-0.64344 0.09654,-0.29619 0.228987,-0.70458 0.316786,-0.99839 0.0878,-0.29381 0.130885,-0.47333 0.255306,-0.8311 0.124422,-0.35778 0.330266,-0.89332 0.518593,-1.47954 0.188326,-0.58622 0.359067,-1.22349 0.44468,-1.54303 0.08561,-0.31954 0.08561,-0.31954 0.176989,-0.21416 z"
         id="path13865"
         inkscape:path-effect="#path-effect13867"
         inkscape:original-d="m 92.792573,135.25804 c 0.182962,0.21058 0.363278,0.41852 0.540948,0.62381 -0.04203,0.43497 -0.08671,0.8673 -0.13404,1.29699 -0.04044,0.15673 -0.08352,0.31081 -0.129255,0.46224 -0.08512,0.21807 -0.172881,0.43348 -0.263292,0.64625 -0.190436,0.64142 -0.383519,1.28019 -0.579247,1.91631 -0.109053,0.3871 -0.220755,0.77156 -0.3351,1.15337 -0.06597,0.1702 -0.134585,0.33774 -0.205848,0.50264 -0.177671,0.49332 -0.357987,0.98399 -0.540949,1.47201 -0.08192,0.22106 -0.1665,0.43946 -0.253717,0.65523 -0.07235,0.29435 -0.147352,0.58606 -0.224996,0.87513 -0.04842,0.16719 -0.09948,0.33175 -0.153189,0.49366 -0.06757,0.33474 -0.137779,0.66684 -0.210634,0.9963 -0.121822,0.44544 -0.246288,0.88824 -0.373399,1.3284 -0.155331,0.30183 -0.313306,0.60102 -0.47393,0.89757 -0.03724,-0.23521 -0.07714,-0.47307 -0.119678,-0.71357 0.009,-0.4596 0.0154,-0.92185 0.01915,-1.38674 0.07445,-0.4237 0.146259,-0.85005 0.215421,-1.27904 0.101579,-0.26213 0.200515,-0.52692 0.296805,-0.79434 0.144663,-0.40575 0.286681,-0.81415 0.426056,-1.22518 0.192537,-0.55086 0.382426,-1.10436 0.569671,-1.66051 0.03297,-0.13946 0.06328,-0.28158 0.09096,-0.42634 0.06328,-0.18136 0.12392,-0.36535 0.181912,-0.552 0.135091,-0.40575 0.267533,-0.81414 0.397333,-1.22518 0.04573,-0.17687 0.08881,-0.35639 0.129254,-0.53854 0.208491,-0.53291 0.41434,-1.06845 0.617543,-1.60665 0.173386,-0.63463 0.344127,-1.2719 0.512225,-1.91182 z" />
      <path
         style="fill:none;fill-opacity:1;stroke:#000000;stroke-width:0.264583;stroke-linecap:square;stroke-dasharray:none;stroke-opacity:1"
         d="m 70.679119,128.18507 c 0,0 22.103056,7.09324 22.103056,7.09324"
         id="path13932"
         inkscape:path-effect="#path-effect13934"
         inkscape:original-d="m 70.679119,128.18507 22.103056,7.09324" />
      <path
         style="fill:none;fill-opacity:1;stroke:#000000;stroke-width:0.264583;stroke-linecap:square;stroke-dasharray:none;stroke-opacity:1"
         d="m 63.283507,126.17473 c 0,0 -0.542706,-0.13819 -0.542706,0.24731 0,0.83662 -3.806544,11.15094 -3.806544,11.15094 0,0 -0.268698,0.94044 0.582178,1.38827"
         id="path13940"
         sodipodi:nodetypes="cscc" />
      <path
         style="fill:none;fill-opacity:1;stroke:#000000;stroke-width:0.264583;stroke-linecap:square;stroke-dasharray:none;stroke-opacity:1"
         d="m 59.605999,139.27473 29.556697,9.49397 0.626959,-0.62696"
         id="path13942" />
      <path
         style="fill:none;fill-opacity:1;stroke:#000000;stroke-width:0.264583;stroke-linecap:square;stroke-dasharray:none;stroke-opacity:1"
         d="m 89.23843,146.96369 c -0.0355,0.0698 -0.07048,0.13855 -0.09908,0.33442 -0.0286,0.19587 -0.05116,0.51744 -0.05546,0.75353 -0.0043,0.2361 0.0092,0.38631 0.02454,0.46872 0.0153,0.0824 0.02997,0.0972 0.0441,0.0973 0.01413,7e-5 0.02991,-0.0115 0.03759,-0.008 0.0077,0.003 0.0077,0.0179 0.02102,-0.0459 0.01334,-0.0638 0.04042,-0.20554 0.0579,-0.29497 0.01748,-0.0894 0.02538,-0.12643 0.02954,-0.14694 0.0042,-0.0205 0.0042,-0.0245 0.0018,0.0242 -0.0023,0.0487 -0.0068,0.15023 -0.0016,0.21722 0.0053,0.067 0.01878,0.0987 0.0127,0.0362 -0.0061,-0.0625 -0.03091,-0.21906 -0.05017,-0.36032 -0.01926,-0.14126 -0.0328,-0.26714 -0.0392,-0.35191 -0.0064,-0.0848 -0.0053,-0.12817 -0.0047,-0.15619 6e-4,-0.028 6e-4,-0.0407 -0.0092,0.0125 -0.0098,0.0532 -0.02895,0.17272 -0.03896,0.25912 -0.01001,0.0864 -0.01115,0.13934 -0.01267,0.15481 -0.0015,0.0155 -0.0038,-0.007 -0.01309,-0.01 -0.0093,-0.003 -0.02507,0.0161 -0.04065,0.0349"
         id="path13944"
         inkscape:path-effect="#path-effect13946"
         inkscape:original-d="m 89.23843,146.96369 c -0.03233,0.0714 -0.06731,0.14016 -0.104936,0.20627 -0.01992,0.32422 -0.04249,0.64579 -0.0677,0.96471 0.01619,0.15285 0.02973,0.30306 0.04062,0.45062 0.0173,0.0175 0.03198,0.0323 0.044,0.0444 0.01844,-0.009 0.03424,-0.0206 0.04739,-0.0349 0.0026,0.0175 0.0026,0.0323 0,0.0444 0.02973,-0.1391 0.05681,-0.28085 0.08124,-0.42524 0.01056,-0.0344 0.01844,-0.0714 0.02371,-0.11107 0.0026,-0.002 0.0026,-0.006 0,-0.0127 -0.0019,0.1042 -0.0064,0.20574 -0.01355,0.30465 0.01619,0.0344 0.02973,0.0661 0.04062,0.0952 -0.02217,-0.15391 -0.047,-0.31046 -0.07447,-0.46966 -0.0109,-0.12323 -0.02445,-0.24911 -0.04062,-0.37763 0.0038,-0.0407 0.0049,-0.0841 0.0034,-0.13011 0.0026,-0.0101 0.0026,-0.0228 0,-0.0381 -0.01654,0.12217 -0.03572,0.2417 -0.05755,0.35859 0.0016,0.0555 2.65e-4,0.10843 -0.0034,0.15867 2.64e-4,-0.0196 -0.0019,-0.0418 -0.0068,-0.0666 -0.01315,0.0217 -0.02895,0.0407 -0.04739,0.0571" />
      <path
         style="fill:none;fill-opacity:1;stroke:#000000;stroke-width:0.264583;stroke-linecap:square;stroke-dasharray:none;stroke-opacity:1"
         d="m 89.333212,145.93869 c -0.05685,0.25901 -0.113267,0.51605 -0.160679,0.71909 -0.04741,0.20304 -0.08577,0.35218 -0.107607,0.47997 -0.02183,0.12779 -0.02748,0.23357 -0.03299,0.33685"
         id="path13948"
         inkscape:path-effect="#path-effect13950"
         inkscape:original-d="m 89.333212,145.93869 c -0.05377,0.25969 -0.110189,0.51673 -0.169252,0.77113 -0.03572,0.1518 -0.07408,0.30094 -0.115091,0.44745 -0.003,0.10842 -0.0086,0.2142 -0.01693,0.31733" />
      <path
         style="fill:none;fill-opacity:1;stroke:#000000;stroke-width:0.264583;stroke-linecap:square;stroke-dasharray:none;stroke-opacity:1"
         d="m 92.691158,135.93936 c 0.0648,-0.0469 0.129096,-0.0934 0.189503,-0.11477 0.06041,-0.0213 0.114543,-0.018 0.128108,-0.0387 0.01356,-0.0207 -0.01238,-0.0683 -0.04354,-0.0932 -0.03116,-0.0249 -0.0684,-0.0239 -0.08932,-0.0362 -0.02092,-0.0123 -0.02319,-0.0409 -0.02568,-0.0723"
         id="path13952"
         inkscape:path-effect="#path-effect13954"
         inkscape:original-d="m 92.691158,135.93936 c 0.06696,-0.0439 0.131278,-0.0904 0.192947,-0.13962 0.05681,0.006 0.110966,0.009 0.162481,0.01 -0.02331,-0.045 -0.04926,-0.0926 -0.07785,-0.1428 -0.03459,0.004 -0.07183,0.005 -0.111707,0.003 2.65e-4,-0.0259 -0.0019,-0.0545 -0.0068,-0.0857" />
      <path
         style="fill:none;fill-opacity:1;stroke:#000000;stroke-width:0.264583;stroke-linecap:square;stroke-dasharray:none;stroke-opacity:1"
         d="m 59.470488,139.18574 c -0.161302,-0.20336 -0.324912,-0.40963 -0.413202,-0.54071 -0.08829,-0.13108 -0.09958,-0.18718 -0.106543,-0.21895 -0.007,-0.0318 -0.01026,-0.039 0.05817,0.0124 0.06843,0.0514 0.207215,0.16248 0.336544,0.24671 0.129329,0.0842 0.248943,0.14242 0.329067,0.17987 0.08012,0.0374 0.120732,0.0544 0.144892,0.0629 0.02416,0.008 0.03204,0.009 -0.01748,-0.0123 -0.04952,-0.0217 -0.156724,-0.0672 -0.24474,-0.10479 -0.08802,-0.0376 -0.156835,-0.0672 -0.193184,-0.083 -0.03635,-0.0158 -0.03976,-0.0192 0.03653,-0.012 0.07629,0.007 0.231987,0.0274 0.368561,0.0475 0.136574,0.0202 0.253902,0.0403 0.401559,0.13757 0.147656,0.0973 0.325933,0.26973 0.434788,0.39961 0.108854,0.12988 0.149468,0.2166 0.155893,0.25506 0.0064,0.0385 -0.02287,0.0311 -0.07698,0.0123 -0.05411,-0.0188 -0.133105,-0.0495 -0.218422,-0.0711 -0.08532,-0.0216 -0.176709,-0.0332 -0.301839,-0.0771 -0.125129,-0.0438 -0.284218,-0.12106 -0.405059,-0.16605 -0.120841,-0.045 -0.203208,-0.0566 -0.135776,-0.0712 0.06743,-0.0146 0.2852,-0.0315 0.418707,-0.0264 0.133507,0.005 0.182019,0.0306 0.21696,0.0503 0.03494,0.0198 0.05635,0.0335 -0.01244,0.0207 -0.06879,-0.0128 -0.22789,-0.0508 -0.326079,-0.0814 -0.09819,-0.0306 -0.135412,-0.0549 -0.05188,-0.038 0.08354,0.0169 0.287765,0.0761 0.381594,0.0972 0.09383,0.0211 0.07805,0.002 0.02028,-0.0407 -0.05776,-0.0427 -0.158201,-0.10833 -0.227542,-0.15086 -0.06934,-0.0425 -0.107689,-0.0616 -0.0445,-0.0357 0.06319,0.0258 0.22793,0.0967 0.320399,0.13875 0.09247,0.0421 0.112771,0.0548 0.05189,0.0296 -0.06088,-0.0251 -0.203039,-0.0875 -0.3484,-0.15133"
         id="path13956"
         inkscape:path-effect="#path-effect13958"
         inkscape:original-d="m 59.470488,139.18574 c -0.160962,-0.20363 -0.324573,-0.4099 -0.490829,-0.61881 -0.0086,-0.0534 -0.01992,-0.10949 -0.03385,-0.16819 -7.93e-4,-0.005 -0.0041,-0.0122 -0.01016,-0.0222 0.141433,0.11371 0.280218,0.22478 0.416359,0.3332 0.122251,0.0608 0.241853,0.11901 0.358812,0.17454 0.04327,0.0196 0.08389,0.0365 0.121862,0.0508 0.01056,0.004 0.01844,0.005 0.02371,0.003 -0.104548,-0.0428 -0.211741,-0.0883 -0.32158,-0.13645 -0.06618,-0.027 -0.135012,-0.0566 -0.206486,-0.0889 -7.94e-4,-5.3e-4 -0.0041,-0.004 -0.01016,-0.01 0.158358,0.0228 0.314068,0.0428 0.467135,0.0603 0.119994,0.0228 0.237339,0.0428 0.352041,0.0603 0.180925,0.17507 0.359204,0.34749 0.534834,0.51727 0.04327,0.0894 0.08389,0.17612 0.121862,0.26021 -0.02669,-0.005 -0.05603,-0.0122 -0.08801,-0.0222 -0.07634,-0.028 -0.155321,-0.0587 -0.23695,-0.092 -0.08875,-0.009 -0.180147,-0.0206 -0.274188,-0.0349 -0.156451,-0.0746 -0.315547,-0.1518 -0.47729,-0.23166 -0.07972,-0.009 -0.162091,-0.0206 -0.247107,-0.0349 0.220416,-0.0143 0.438187,-0.0312 0.653311,-0.0508 0.05117,0.028 0.09968,0.0534 0.145556,0.0762 0.02408,0.0164 0.04552,0.0301 0.06432,0.0413 -0.156451,-0.0354 -0.315545,-0.0735 -0.477288,-0.11424 -0.03459,-0.0217 -0.07183,-0.046 -0.111707,-0.073 0.206875,0.0619 0.411107,0.12112 0.612691,0.17771 -0.01315,-0.0164 -0.02895,-0.0354 -0.04739,-0.0571 -0.09778,-0.0629 -0.198199,-0.12852 -0.301268,-0.19675 -0.03572,-0.0164 -0.07408,-0.0354 -0.115091,-0.0571 0.167384,0.0735 0.332121,0.14439 0.494213,0.21262 0.02297,0.0153 0.04327,0.028 0.06093,0.0381 -0.139526,-0.0598 -0.281697,-0.12218 -0.426514,-0.18723" />
      <path
         style="fill:none;fill-opacity:1;stroke:#000000;stroke-width:0.264583;stroke-linecap:square;stroke-dasharray:none;stroke-opacity:1"
         d="m 59.202954,138.46864 c 0,0 30.004525,9.35961 30.004525,9.35961"
         id="path13960"
         inkscape:path-effect="#path-effect13962"
         inkscape:original-d="m 59.202954,138.46864 30.004525,9.35961" />
      <path
         style="fill:#000000;fill-opacity:1;stroke:none;stroke-width:0.264583;stroke-linecap:round;stroke-dasharray:none;stroke-opacity:1"
         id="path14027"
         d="m 89.503487,135.15456 c 0.04125,0.0162 0.08391,0.0292 0.126934,0.0398 0.04241,0.0149 0.08628,0.0248 0.130011,0.0349 0.04058,0.007 0.07949,0.0179 0.117811,0.0327 0.04693,0.0187 0.09516,0.0343 0.143854,0.0477 0.04483,0.0115 0.08942,0.024 0.134112,0.036 0.05257,0.0133 0.105997,0.0225 0.158308,0.0369 0.04993,0.0153 0.09997,0.0306 0.149262,0.0478 0.04436,0.0161 0.08646,0.0374 0.127653,0.0603 0.03932,0.0212 0.07704,0.0452 0.114988,0.0687 0.03239,0.019 0.06288,0.0409 0.0948,0.0606 0.03319,0.0208 0.06845,0.0375 0.103698,0.0543 0.03405,0.0155 0.06969,0.027 0.104762,0.0399 0.03468,0.0136 0.06986,0.026 0.104216,0.0404 0.03535,0.0155 0.07082,0.0307 0.105588,0.0474 0.03143,0.0159 0.06365,0.03 0.0964,0.043 0.03579,0.0126 0.07253,0.0229 0.1104,0.0261 0.03959,0.001 0.05866,-0.0325 0.08094,-0.0599 0.0164,0.004 0.02204,-0.0192 0.0056,-0.0232 v 0 c -0.01109,-0.0292 -0.02045,-0.0662 -0.0486,-0.0837 -0.02609,-0.0122 -0.05391,-0.0199 -0.08044,-0.0311 -0.02872,-0.0113 -0.05693,-0.0238 -0.08446,-0.0378 -0.03765,-0.018 -0.07601,-0.0344 -0.114311,-0.051 -0.03694,-0.0154 -0.07467,-0.0286 -0.112043,-0.0429 -0.0318,-0.0116 -0.06403,-0.0221 -0.09557,-0.0344 -0.03045,-0.0115 -0.0592,-0.0269 -0.08811,-0.0418 -0.03415,-0.0175 -0.06649,-0.0382 -0.101415,-0.0542 -0.04212,-0.0205 -0.0848,-0.0396 -0.127227,-0.0594 -0.04898,-0.022 -0.09893,-0.0414 -0.150405,-0.0569 -0.05333,-0.0179 -0.107561,-0.0328 -0.162102,-0.0466 -0.05202,-0.012 -0.104357,-0.0225 -0.1562,-0.0352 -0.04447,-0.012 -0.08884,-0.0244 -0.133448,-0.0358 -0.0457,-0.0126 -0.09176,-0.0239 -0.136845,-0.0386 -0.04491,-0.0145 -0.09047,-0.0271 -0.137387,-0.0333 -0.04454,-0.007 -0.08921,-0.0134 -0.134276,-0.0155 -0.03712,-0.005 -0.07408,-0.009 -0.108138,-0.0258 -0.06403,-0.0271 -0.102399,0.0634 -0.03837,0.0906 z" />
      <path
         style="fill:#000000;fill-opacity:1;stroke:none;stroke-width:0.264583;stroke-linecap:round;stroke-dasharray:none;stroke-opacity:1"
         id="path14029"
         d="m 62.343442,130.19906 c -0.04023,0.0846 -0.06718,0.17411 -0.09413,0.26351 -0.02262,0.07 -0.04354,0.14056 -0.06514,0.2109 -0.01881,0.0468 -0.03048,0.0959 -0.04503,0.1441 -0.01823,0.0383 -0.02954,0.0786 -0.03792,0.11999 -0.005,0.0382 -0.01503,0.0748 -0.02551,0.11166 -0.0181,0.0668 -0.03498,0.13387 -0.05394,0.2004 -0.02127,0.0616 -0.04973,0.1201 -0.07094,0.18174 -0.02185,0.06 -0.04902,0.11777 -0.07372,0.17657 -0.03485,0.0772 -0.06921,0.15459 -0.10129,0.23298 -0.02569,0.0606 -0.04925,0.12198 -0.07392,0.18295 -0.02201,0.0474 -0.03939,0.0967 -0.05539,0.14641 -0.01553,0.0391 -0.02394,0.0804 -0.03689,0.12021 -0.01087,0.0352 -0.02098,0.0707 -0.03014,0.10643 -0.01127,0.0447 -0.01908,0.0902 -0.02756,0.13554 -0.0077,0.0492 -0.01876,0.0974 -0.03176,0.14536 -0.01355,0.0487 -0.0271,0.0973 -0.03796,0.14663 -0.0076,0.0512 -0.02024,0.10137 -0.03547,0.15082 -0.01741,0.0581 -0.04374,0.11299 -0.06787,0.16846 -0.0075,0.0451 -0.06011,0.0993 -0.06391,0.14318 -0.0016,0.0182 0.0033,0.0364 0.005,0.0546 0.0047,0.0828 0.0054,0.041 -0.0024,0.1252 -0.0029,0.0103 0.01164,0.0143 0.0145,0.004 v 0 c 0.03607,-0.0737 0.01455,-0.0403 0.06335,-0.10078 0.01204,-0.009 0.0259,-0.0166 0.0361,-0.0279 0.03496,-0.0387 0.03844,-0.10412 0.0679,-0.14648 0.02508,-0.0589 0.04759,-0.11888 0.0758,-0.17639 0.01894,-0.0511 0.03302,-0.1038 0.05243,-0.15473 0.01585,-0.0482 0.03094,-0.0967 0.04472,-0.14549 0.01373,-0.0508 0.0273,-0.10164 0.03995,-0.1527 0.01,-0.0426 0.02103,-0.0848 0.03395,-0.12668 0.0083,-0.0326 0.0176,-0.065 0.02722,-0.0973 0.01238,-0.0398 0.02164,-0.0805 0.03667,-0.11952 0.01466,-0.0457 0.03055,-0.091 0.05133,-0.13436 0.02482,-0.0613 0.04802,-0.12325 0.07143,-0.18513 0.03003,-0.078 0.06123,-0.15558 0.09218,-0.23323 0.02622,-0.0624 0.05069,-0.12559 0.06936,-0.19079 0.02077,-0.0645 0.0473,-0.12692 0.06577,-0.19214 0.0177,-0.0684 0.03186,-0.13765 0.04786,-0.20648 0.0085,-0.0414 0.0075,-0.0822 0.0066,-0.12423 0.0046,-0.0382 0.01622,-0.0749 0.02273,-0.11281 0.01135,-0.0491 0.02289,-0.0982 0.03191,-0.14782 0.01556,-0.0714 0.03687,-0.14127 0.05539,-0.2119 0.02326,-0.0877 0.05174,-0.17379 0.08055,-0.25978 0.01775,-0.0438 -0.04414,-0.0689 -0.06189,-0.0251 z" />
      <path
         style="fill:#000000;fill-opacity:1;stroke:none;stroke-width:0.264583;stroke-linecap:round;stroke-dasharray:none;stroke-opacity:1"
         id="path14031"
         d="m 60.142125,137.68849 c 0.07338,0.0231 0.141218,0.0587 0.209616,0.0932 0.04024,0.0217 0.08324,0.0368 0.125531,0.0536 0.03247,0.0139 0.06684,0.0223 0.09956,0.0356 0.04628,0.0184 0.09372,0.034 0.142055,0.0461 0.06217,0.0123 0.124994,0.0209 0.187558,0.0309 0.04999,0.004 0.09519,0.0208 0.140954,0.0395 0.06076,0.021 0.121758,0.0411 0.182435,0.0623 0.0275,0.0122 0.05693,0.0194 0.08435,0.0318 0.02492,0.0114 0.0484,0.0255 0.07349,0.0368 0.03811,0.0182 0.07799,0.0322 0.116729,0.0489 0.0354,0.0165 0.0722,0.0289 0.109643,0.0397 0.05008,0.0136 0.09955,0.0294 0.148826,0.0456 0.04124,0.0131 0.08238,0.0265 0.123984,0.0385 0.0434,0.0149 0.08821,0.0223 0.133463,0.0281 0.03986,0.009 0.08129,0.005 0.120886,0.0144 0.02445,0.0134 0.04045,0.0369 0.05743,0.0583 0.0163,0.0143 0.0266,0.0328 0.04019,0.0494 0.05084,0.0367 0.110837,0.06 0.167227,0.0875 0.04143,0.0296 0.08718,0.0242 0.134332,0.0296 0.04774,0.0186 0.09751,0.016 0.147706,0.0196 0.01339,0.005 0.02037,-0.014 0.007,-0.0189 v 0 c -0.04352,-0.0321 -0.08112,-0.0704 -0.137467,-0.0772 -0.03754,-0.013 -0.06298,-0.0468 -0.102661,-0.0573 -0.0393,-0.0177 -0.08953,-0.0286 -0.117168,-0.0634 -0.01638,-0.021 -0.02941,-0.0452 -0.05085,-0.0618 -0.03225,-0.0234 -0.06202,-0.0499 -0.09565,-0.0713 -0.03859,-0.025 -0.07697,-0.0487 -0.119367,-0.0664 -0.04267,-0.0222 -0.08671,-0.0395 -0.133737,-0.0505 -0.03918,-0.0111 -0.07784,-0.0239 -0.116588,-0.0365 -0.05114,-0.0169 -0.102463,-0.0332 -0.154427,-0.0474 -0.03014,-0.009 -0.06084,-0.0168 -0.08966,-0.0295 -0.03793,-0.0163 -0.07689,-0.0301 -0.114101,-0.0481 -0.02862,-0.0128 -0.05661,-0.0269 -0.08572,-0.0384 -0.03082,-0.0104 -0.06255,-0.0181 -0.09343,-0.0283 -0.05966,-0.0181 -0.11973,-0.0349 -0.179356,-0.0531 -0.05694,-0.0184 -0.114012,-0.0343 -0.173763,-0.0409 -0.05818,-0.009 -0.116551,-0.016 -0.174715,-0.0248 -0.04306,-0.0103 -0.08426,-0.0263 -0.12646,-0.0396 -0.036,-0.0119 -0.07203,-0.0237 -0.1084,-0.0343 -0.04097,-0.009 -0.08234,-0.0172 -0.121869,-0.0319 -0.07587,-0.0214 -0.152334,-0.0405 -0.22737,-0.0649 -0.06724,-0.0213 -0.09741,0.0738 -0.03017,0.0951 z" />
      <path
         style="fill:#000000;fill-opacity:1;stroke:none;stroke-width:0.264583;stroke-linecap:round;stroke-dasharray:none;stroke-opacity:1"
         id="path14033"
         d="m 68.685441,130.25508 c 0.04836,0.0877 0.09567,0.17589 0.14347,0.26385 0.03078,0.0567 0.05842,0.11494 0.07163,0.1783 0.0096,0.0553 0.01281,0.11098 0.01397,0.16694 0.0027,0.0729 7.94e-4,0.14585 -0.0044,0.21859 -0.0045,0.0586 -0.0088,0.11729 -0.01852,0.17532 -0.0095,0.0447 -0.02794,0.0867 -0.04304,0.12959 0.014,0.0381 0.0094,0.0188 0.01421,0.0578 -0.015,0.0186 0.01135,0.0399 0.02635,0.0212 v 0 c 0.04801,-0.0148 0.02397,-0.006 0.07205,-0.0252 0.02879,-0.0504 0.04728,-0.10638 0.05682,-0.1637 0.0089,-0.0617 0.01479,-0.12371 0.01913,-0.1859 0.0055,-0.0775 0.004,-0.15491 0.0016,-0.23251 -0.0035,-0.0634 -0.0086,-0.12695 -0.02209,-0.18908 -0.01839,-0.0732 -0.04913,-0.14071 -0.08647,-0.20625 -0.04798,-0.0883 -0.09529,-0.17698 -0.14428,-0.26473 -0.03948,-0.0709 -0.139816,-0.0151 -0.100333,0.0558 z" />
      <path
         style="fill:#000000;stroke-width:0.396875;stroke-linecap:square"
         id="path681"
         d="m 71.950714,136.75845 c 0.04278,0.0328 0.08398,0.0676 0.128717,0.0978 0.02418,0.0159 0.04828,0.0319 0.07152,0.0492 0.01614,0.0145 0.02952,0.0319 0.04332,0.0486 0.01625,0.0195 0.03198,0.0394 0.04799,0.0591 0.01482,0.018 0.03072,0.035 0.04381,0.0543 0.01437,0.0248 0.02492,0.0516 0.03654,0.0778 0.01619,0.0334 0.03354,0.0663 0.04959,0.0998 0.01476,0.0317 0.03019,0.063 0.04318,0.0955 0.0163,0.0356 0.02832,0.0726 0.04095,0.10954 0.01188,0.0339 0.02458,0.0677 0.03231,0.10292 0.0062,0.0363 0.008,0.0731 0.0092,0.10986 1.27e-4,0.0411 0.0067,0.0818 0.01037,0.12268 0.0016,0.0441 0.0051,0.088 0.0098,0.13195 0.0024,0.0387 0.0117,0.0756 0.02326,0.11241 0.02551,0.0359 0.0213,0.0758 0.02056,0.11719 -0.0035,0.0299 0.0075,0.0542 0.01937,0.0809 -0.0038,0.0158 0.01863,0.0212 0.02238,0.005 v 0 c 0.02692,-0.0257 0.0452,-0.0477 0.04378,-0.0867 -0.0013,-0.0424 -0.0062,-0.0836 0.01627,-0.12214 0.0084,-0.0409 0.0136,-0.0814 0.007,-0.12316 -0.0046,-0.0431 -0.0079,-0.0861 -0.0096,-0.12939 -0.0035,-0.0388 -0.0086,-0.0773 -0.01249,-0.11608 -0.0028,-0.0459 -0.0052,-0.092 -0.0164,-0.13687 -0.01,-0.0402 -0.02294,-0.0794 -0.03716,-0.11829 -0.01479,-0.0398 -0.03047,-0.0791 -0.04737,-0.11804 -0.01622,-0.0347 -0.0346,-0.0683 -0.05317,-0.10179 -0.01794,-0.0313 -0.03497,-0.0631 -0.05315,-0.0942 -0.01659,-0.0303 -0.03255,-0.0611 -0.05252,-0.0894 -0.01521,-0.0221 -0.03255,-0.0422 -0.04995,-0.0626 -0.01625,-0.02 -0.03218,-0.0402 -0.04867,-0.06 -0.02024,-0.0245 -0.04181,-0.0475 -0.06697,-0.0671 -0.02574,-0.0189 -0.05276,-0.0355 -0.08166,-0.0493 -0.04432,-0.026 -0.08607,-0.0562 -0.129691,-0.0833 -0.059,-0.0432 -0.12016,0.0402 -0.06116,0.0834 z" />
      <path
         style="fill:#000000;stroke-width:0.396875;stroke-linecap:square"
         id="path683"
         d="m 71.691203,133.3934 c 0.03966,0.0609 0.073,0.12571 0.107833,0.18947 0.03177,0.0521 0.05904,0.10667 0.08754,0.16056 0.02614,0.0482 0.06225,0.0897 0.09748,0.1313 0.02948,0.0311 0.05923,0.0619 0.09042,0.0913 0.02806,0.0264 0.05544,0.0535 0.08005,0.0831 0.01849,0.0246 0.03947,0.0472 0.05813,0.0716 0.02246,0.0276 0.04883,0.0513 0.07618,0.0739 0.03413,0.0281 0.07336,0.0487 0.111895,0.0699 0.02225,0.0113 0.04385,0.0237 0.0656,0.0359 0.02806,0.0141 0.05817,0.0234 0.08773,0.0337 0.02765,0.01 0.05671,0.0145 0.08577,0.018 0.02426,0.002 0.04844,0.004 0.07278,0.005 0.02371,0.003 0.04743,0.006 0.07111,0.009 0.02127,0.003 0.042,0.008 0.06289,0.0129 0.0323,0.007 0.06549,0.009 0.09842,0.0102 0.03099,-0.005 0.06296,5.3e-4 0.09359,-0.006 0.03324,-0.012 0.06601,-0.0183 0.101296,-0.0213 0.03116,-0.004 0.06206,-0.008 0.09344,-0.008 0.02106,-5.3e-4 0.0419,0.001 0.06294,-4e-5 0.0307,-0.0103 0.04413,-0.0413 0.07263,-0.0563 0.0077,-0.002 0.0044,-0.0132 -0.0033,-0.0109 v 0 c -0.03396,0.003 -0.03993,-0.0261 -0.06928,-0.0362 -0.02148,-0.002 -0.0428,2.6e-4 -0.06432,4e-5 -0.03328,5.3e-4 -0.06636,-0.002 -0.09964,-0.002 -0.02817,0.001 -0.06436,0.0106 -0.09045,-10e-4 -0.02733,-0.008 -0.05705,-0.006 -0.08439,-0.0148 -0.02559,-0.003 -0.05136,-0.005 -0.07682,-0.009 -0.02545,-0.006 -0.05072,-0.0122 -0.07666,-0.0153 -0.02614,-0.003 -0.05236,-0.006 -0.07855,-0.009 -0.02238,-0.003 -0.04469,-0.006 -0.06673,-0.0103 -0.01707,-0.002 -0.03426,-0.004 -0.05051,-0.01 -0.02074,-0.007 -0.04163,-0.0143 -0.06201,-0.0225 -0.02318,-0.0126 -0.04564,-0.0265 -0.06971,-0.0375 -0.03086,-0.0152 -0.06232,-0.0295 -0.09096,-0.0487 -0.02096,-0.0149 -0.04095,-0.0312 -0.05939,-0.0492 -0.02347,-0.0238 -0.04713,-0.0473 -0.07248,-0.0691 -0.03095,-0.0272 -0.06184,-0.0543 -0.09387,-0.0802 -0.02954,-0.0256 -0.06,-0.0502 -0.08754,-0.078 -0.03274,-0.0325 -0.06453,-0.0666 -0.08948,-0.10557 -0.03218,-0.0514 -0.0627,-0.10372 -0.09366,-0.15582 -0.03779,-0.0653 -0.07131,-0.13326 -0.114716,-0.19519 -0.03989,-0.0589 -0.1232,-0.002 -0.0833,0.0564 z" />
      <path
         style="fill:#000000;stroke-width:0.396875;stroke-linecap:square"
         id="path685"
         d="m 76.009756,140.54296 c 0.01558,0.0616 0.02977,0.12364 0.04111,0.18621 0.0094,0.0502 0.01667,0.10068 0.02946,0.1502 0.01347,0.0543 0.03169,0.10705 0.05341,0.15858 0.02471,0.0578 0.05887,0.11086 0.09273,0.1636 0.03497,0.0523 0.07562,0.10024 0.118195,0.1464 0.04216,0.0446 0.08547,0.0881 0.128241,0.13218 0.03783,0.039 0.07952,0.0738 0.125161,0.10316 0.03775,0.0225 0.07851,0.0392 0.119084,0.0558 0.03544,0.0144 0.07273,0.0232 0.108831,0.0357 0.02368,0.0101 0.04998,0.0123 0.07386,0.0216 0.03047,0.009 0.05901,0.0237 0.08817,0.0363 0.0231,0.003 0.0684,0.0397 0.0924,0.0243 0.01162,-0.007 0.02003,-0.0189 0.03004,-0.0284 0.0086,-0.003 0.01723,-0.007 0.02582,-0.0102 0.02862,0.0101 0.0429,-0.0304 0.01426,-0.0405 v 0 c -0.0043,-0.008 -0.0087,-0.0159 -0.01302,-0.0239 -0.0013,-0.0136 -8.7e-5,-0.0278 -0.0042,-0.0409 -0.0086,-0.0269 -0.06152,-0.0264 -0.08134,-0.0392 -0.03247,-0.0118 -0.06418,-0.0255 -0.09674,-0.0371 -0.0245,-0.008 -0.04975,-0.0134 -0.07423,-0.0217 -0.03436,-0.0118 -0.06929,-0.0216 -0.104119,-0.0319 -0.03091,-0.0108 -0.0609,-0.0244 -0.08965,-0.04 -0.03628,-0.0227 -0.06788,-0.0515 -0.09847,-0.0812 -0.04327,-0.0403 -0.08459,-0.0827 -0.125122,-0.12574 -0.03735,-0.039 -0.07516,-0.0779 -0.10442,-0.12361 -0.0308,-0.044 -0.06079,-0.0885 -0.08424,-0.137 -0.02024,-0.0435 -0.03767,-0.0884 -0.05235,-0.13415 -0.01307,-0.0476 -0.02262,-0.0958 -0.03264,-0.14411 -0.01736,-0.0638 -0.03551,-0.12759 -0.05736,-0.19004 -0.02516,-0.0869 -0.148006,-0.0513 -0.122854,0.0356 z" />
      <path
         style="fill:#000000;stroke-width:0.396875;stroke-linecap:square"
         id="path689"
         d="m 84.832996,140.75796 c 0.0486,0.0277 0.09763,0.0547 0.144058,0.0859 0.02945,0.0211 0.05437,0.0475 0.07885,0.074 0.02178,0.0254 0.04287,0.0516 0.06323,0.0782 0.01998,0.0297 0.04115,0.0585 0.06332,0.0865 0.02352,0.0307 0.04723,0.061 0.07442,0.0886 0.02794,0.0256 0.05724,0.0495 0.08487,0.0755 0.02638,0.0259 0.0508,0.0536 0.07179,0.0841 0.01762,0.0287 0.03458,0.0577 0.05243,0.0862 0.02207,0.0321 0.046,0.0624 0.07459,0.0889 0.01902,0.0171 0.03835,0.0342 0.05284,0.0554 0.01603,0.0273 0.03146,0.055 0.04701,0.0826 0.02021,0.032 0.03676,0.0658 0.05196,0.10042 0.01643,0.0354 0.03156,0.0713 0.04483,0.108 0.01437,0.0413 0.02567,0.0838 0.03409,0.1267 0.0096,0.0447 0.01511,0.09 0.02008,0.13539 0.0052,0.0507 0.0068,0.10172 0.0078,0.15267 2.1e-5,0.0528 0.0021,0.10545 0.0035,0.15817 0.0016,0.0535 0.0016,0.10695 5.29e-4,0.16044 -0.0013,0.0587 -0.0041,0.11759 -0.01439,0.17548 -0.01537,0.0646 -0.03242,0.12873 -0.04793,0.19328 -0.0061,0.0389 -0.02564,0.0798 -0.01243,0.11942 0.0089,0.0268 0.02257,0.0518 0.03206,0.0784 -0.0057,0.0151 0.01561,0.023 0.02127,0.008 v 0 c 0.09,-0.0561 0.09994,-0.0607 0.123526,-0.16394 0.01844,-0.0685 0.03742,-0.13693 0.05299,-0.20616 0.0113,-0.0677 0.01638,-0.13633 0.01627,-0.20498 -0.0013,-0.0548 -0.0016,-0.10962 -0.0029,-0.16443 -0.0013,-0.0523 -0.0035,-0.10459 -0.0035,-0.15691 -0.0011,-0.056 -0.0029,-0.11207 -0.009,-0.16781 -0.0056,-0.0516 -0.01119,-0.10337 -0.02484,-0.15361 -0.01225,-0.0495 -0.02461,-0.099 -0.04159,-0.14717 -0.01521,-0.0411 -0.03535,-0.0798 -0.05286,-0.1199 -0.0191,-0.0389 -0.04008,-0.0767 -0.06257,-0.11373 -0.02172,-0.0337 -0.04074,-0.0695 -0.06737,-0.0997 -0.02196,-0.0228 -0.04523,-0.0439 -0.06894,-0.0648 -0.02111,-0.0194 -0.04257,-0.0385 -0.06017,-0.0613 -0.02231,-0.0269 -0.04109,-0.0567 -0.06437,-0.0828 -0.02791,-0.0342 -0.056,-0.0684 -0.08793,-0.099 -0.02661,-0.0249 -0.05454,-0.0481 -0.08149,-0.0726 -0.02408,-0.0238 -0.0438,-0.0512 -0.06476,-0.0777 -0.02254,-0.0284 -0.04301,-0.0583 -0.06496,-0.0872 -0.02349,-0.0276 -0.04714,-0.055 -0.07029,-0.0829 -0.03108,-0.0335 -0.06295,-0.0667 -0.100933,-0.0925 -0.05045,-0.0338 -0.103011,-0.0643 -0.157613,-0.0909 -0.07632,-0.0392 -0.131807,0.0687 -0.05549,0.10793 z" />
      <path
         style="fill:#000000;stroke-width:0.396875;stroke-linecap:square"
         id="path691"
         d="m 85.626317,143.3692 c 0.01855,0.0433 0.01635,0.0218 0.01024,0.064 -0.0083,0.0226 0.02373,0.0344 0.03202,0.0118 v 0 c 0.02315,-0.0374 0.0074,-0.021 0.04977,-0.0463 0.02082,-0.0651 -0.07121,-0.0945 -0.09204,-0.0294 z" />
      <path
         style="fill:#000000;stroke-width:0.396875;stroke-linecap:square"
         id="path693"
         d="m 77.894764,135.96091 c 0.02148,0.0577 0.04514,0.11434 0.07279,0.16939 0.01939,0.0416 0.04529,0.079 0.07258,0.11568 0.02193,0.031 0.04419,0.0615 0.06976,0.0897 0.03014,0.0348 0.0613,0.0686 0.09239,0.10254 0.04142,0.0454 0.08185,0.0916 0.125392,0.13501 0.03639,0.0368 0.07404,0.072 0.116985,0.101 0.03024,0.0217 0.06412,0.0363 0.09805,0.051 0.02769,0.0135 0.05609,0.0256 0.0831,0.0405 0.02416,0.0133 0.04738,0.0279 0.07195,0.0404 0.02426,0.0151 0.04783,0.0312 0.07187,0.0467 0.0315,0.0207 0.06491,0.0381 0.0978,0.0564 0.03013,0.0189 0.06118,0.0361 0.09278,0.0524 0.04147,0.0206 0.03926,0.0272 0.08404,0.002 0.0074,-0.002 0.01476,-0.004 0.02215,-0.005 0.02653,0.0175 0.05121,-0.0201 0.02469,-0.0375 v 0 c -5.3e-4,-0.007 -0.0013,-0.0142 -0.0019,-0.0214 0.0024,-0.0119 0.0086,-0.0237 0.0071,-0.0358 -0.003,-0.0237 -0.05145,-0.0368 -0.06844,-0.0457 -0.02964,-0.012 -0.05676,-0.0291 -0.0854,-0.0432 -0.03172,-0.0176 -0.06345,-0.0352 -0.09526,-0.0526 -0.02859,-0.0146 -0.05298,-0.0368 -0.08333,-0.0484 -0.02516,-0.0122 -0.05019,-0.0246 -0.07515,-0.0372 -0.03087,-0.0132 -0.06083,-0.0285 -0.09254,-0.0398 -0.02593,-0.0102 -0.05275,-0.019 -0.07586,-0.035 -0.03595,-0.0237 -0.06645,-0.0537 -0.09686,-0.0841 -0.04209,-0.0419 -0.0836,-0.0845 -0.123269,-0.12869 -0.03079,-0.0336 -0.06211,-0.0667 -0.09358,-0.0996 -0.02344,-0.0265 -0.04588,-0.0537 -0.06811,-0.0812 -0.02432,-0.0286 -0.04959,-0.0569 -0.06757,-0.0901 -0.02676,-0.0516 -0.04925,-0.10528 -0.07149,-0.159 -0.02989,-0.074 -0.134509,-0.0317 -0.104619,0.0423 z" />
      <path
         style="fill:#000000;stroke-width:0.396875;stroke-linecap:square"
         id="path695"
         d="m 79.884481,133.26241 c 0.06065,0.0125 0.119943,0.0295 0.177522,0.0522 0.03632,0.0151 0.0706,0.0344 0.104275,0.0545 0.03167,0.019 0.06258,0.0393 0.09361,0.0594 0.03671,0.0243 0.07541,0.045 0.115464,0.0632 0.03543,0.0147 0.07141,0.0276 0.103574,0.0488 0.03247,0.0262 0.06457,0.0529 0.09696,0.0792 0.03937,0.0318 0.07832,0.0641 0.117221,0.0965 0.03364,0.0282 0.06843,0.055 0.0992,0.0864 0.02466,0.0259 0.04953,0.0518 0.07007,0.0811 0.01995,0.0301 0.03828,0.0611 0.05449,0.0934 0.01672,0.032 0.03171,0.0646 0.04226,0.0992 0.01471,0.0515 0.03102,0.10243 0.04532,0.15403 0.01545,0.0562 0.02723,0.1133 0.04127,0.16985 0.015,0.0515 0.02681,0.10385 0.03826,0.15625 0.0114,0.0532 0.02286,0.10639 0.03289,0.15986 0.008,0.0398 0.01423,0.0798 0.02143,0.11972 0.0031,0.0266 0.0048,0.0533 0.006,0.08 5.3e-4,0.07 0.03051,0.0989 0.06918,0.15213 -2.64e-4,0.0217 0.03042,0.0221 0.0307,2.7e-4 v 0 c 0.03941,-0.0554 0.06518,-0.0856 0.06008,-0.15692 -2.65e-4,-0.034 5.29e-4,-0.068 -0.006,-0.10158 -0.0061,-0.0414 -0.01746,-0.0819 -0.02379,-0.12334 -0.01035,-0.055 -0.02207,-0.10978 -0.03411,-0.16446 -0.01183,-0.0541 -0.02402,-0.10819 -0.03949,-0.16144 -0.01508,-0.058 -0.02566,-0.11717 -0.04531,-0.17391 -0.01582,-0.0531 -0.02818,-0.10716 -0.04694,-0.15932 -0.01421,-0.0417 -0.03119,-0.082 -0.05182,-0.12093 -0.02045,-0.0405 -0.04273,-0.0802 -0.07086,-0.11598 -0.02663,-0.0338 -0.05466,-0.0664 -0.08498,-0.0969 -0.03464,-0.034 -0.07204,-0.0647 -0.109591,-0.0955 -0.0394,-0.0328 -0.08122,-0.0625 -0.120264,-0.0957 -0.03679,-0.0299 -0.07284,-0.0608 -0.110786,-0.0892 -0.03876,-0.0244 -0.08011,-0.043 -0.122777,-0.0595 -0.0332,-0.0149 -0.06511,-0.0322 -0.09549,-0.0523 -0.03252,-0.021 -0.06491,-0.0423 -0.0981,-0.0622 -0.04083,-0.0244 -0.08281,-0.047 -0.126778,-0.0653 -0.06564,-0.0256 -0.133072,-0.0458 -0.202388,-0.059 -0.10414,-0.0214 -0.1344,0.12588 -0.03026,0.14728 z" />
      <path
         style="fill:#000000;stroke-width:0.396875;stroke-linecap:square"
         id="path697"
         d="m 84.304266,137.43383 c -0.0021,0.0572 -2.65e-4,0.11442 -7.94e-4,0.17163 -0.0016,0.0396 -5.29e-4,0.079 0.01005,0.1173 0.01302,0.032 0.0268,0.0637 0.03898,0.096 0.01394,0.0358 0.03505,0.068 0.05428,0.10109 0.01945,0.029 0.03568,0.0596 0.05046,0.0912 0.01733,0.0343 0.03451,0.0687 0.05218,0.1028 0.01815,0.0355 0.04082,0.0685 0.06311,0.10146 0.02159,0.0317 0.0483,0.0594 0.07251,0.0891 0.03051,0.0361 0.05946,0.0735 0.09078,0.10899 0.02931,0.0315 0.05575,0.0655 0.08437,0.0976 0.02918,0.0324 0.05942,0.064 0.09101,0.0941 0.02768,0.0259 0.05919,0.0469 0.09168,0.0662 0.02793,0.0162 0.05386,0.0354 0.0797,0.0546 0.02529,0.0185 0.05143,0.0358 0.07737,0.0534 0.024,0.017 0.04958,0.0316 0.0739,0.048 0.02633,0.0232 0.05576,0.0409 0.08756,0.0554 0.02641,0.0102 0.05385,0.0171 0.08004,0.0279 0.02746,0.0119 0.05638,0.0189 0.0858,0.0237 0.01281,0.001 0.02545,0.003 0.03801,0.006 0.01693,0.003 0.03359,0.007 0.05001,0.0124 0.01487,0.006 0.03162,0.008 0.04577,0.0151 0.0231,0.0116 0.0474,0.0202 0.07209,0.0276 0.01791,0.006 0.03654,0.008 0.05533,0.009 0.02567,5.3e-4 0.05047,-0.003 0.07504,-0.0106 0.0519,-0.0192 0.100521,-0.0446 0.156483,-0.0471 0.0096,5.3e-4 0.01042,-0.013 7.93e-4,-0.0136 v 0 c -0.05539,-0.009 -0.101896,-0.0387 -0.152733,-0.0611 -0.02103,-0.008 -0.04202,-0.0121 -0.06406,-0.0157 -0.0084,-0.004 -0.01746,-0.006 -0.02646,-0.009 -0.01826,-0.005 -0.03631,-0.0116 -0.05332,-0.0203 -0.01916,-0.008 -0.03909,-0.0143 -0.05826,-0.0225 -0.02265,-0.008 -0.04592,-0.014 -0.06958,-0.0183 -0.01564,-0.003 -0.03095,-0.007 -0.04646,-0.01 -0.01677,-0.002 -0.03288,-0.007 -0.04842,-0.0132 -0.02442,-0.01 -0.04932,-0.0183 -0.07456,-0.0259 -0.02162,-0.01 -0.04017,-0.0221 -0.05791,-0.038 -0.02453,-0.0194 -0.05024,-0.037 -0.07658,-0.0538 -0.02405,-0.017 -0.04652,-0.0361 -0.07108,-0.0524 -0.03066,-0.0228 -0.06158,-0.0454 -0.09471,-0.0646 -0.02278,-0.0132 -0.04474,-0.0278 -0.06402,-0.0458 -0.02908,-0.0251 -0.05691,-0.0513 -0.08175,-0.0807 -0.02965,-0.0324 -0.05932,-0.0649 -0.09029,-0.096 -0.0329,-0.0329 -0.06444,-0.067 -0.09473,-0.10238 -0.02405,-0.0239 -0.04802,-0.0479 -0.07152,-0.0723 -0.02286,-0.0273 -0.04484,-0.0553 -0.06577,-0.0841 -0.02103,-0.0298 -0.04544,-0.0571 -0.06446,-0.0883 -0.01892,-0.0315 -0.03964,-0.062 -0.06078,-0.092 -0.01828,-0.0284 -0.036,-0.0571 -0.04972,-0.0881 -0.01333,-0.0264 -0.0283,-0.0521 -0.0403,-0.079 -0.0066,-0.0306 -0.0068,-0.0618 -0.0058,-0.0931 0.0011,-0.0568 0.0056,-0.11344 0.0065,-0.17023 0.0019,-0.0705 -0.09779,-0.0733 -0.09972,-0.003 z" />
    </g>
    <g
       inkscape:groupmode="layer"
       id="layer3"
       inkscape:label="štetec">
      <path
         style="fill:#eefbfc;fill-opacity:1;stroke:#000000;stroke-width:0.182033;stroke-linecap:square;stroke-dasharray:none"
         d="m 86.438179,106.26214 c 0,0 0.761268,-0.008 0.654916,1.02183 -0.106352,1.02986 -0.700714,1.25085 -0.700714,1.25085 L 76.28249,105.02061 c 0,0 -0.454583,-0.38772 -0.08278,-1.10295 0.371805,-0.71522 0.343186,-0.80581 0.343186,-0.80581 0,0 0.278059,-0.48636 0.864534,-0.20675 0.586482,0.27965 9.030742,3.35701 9.030742,3.35701 z"
         id="path19827" />
      <path
         style="fill:#eefbfc;fill-opacity:1;stroke:#000000;stroke-width:0.182033;stroke-linecap:square;stroke-dasharray:none"
         d="M 76.64617,102.91318 59.233053,95.728655 c 0,0 -1.24447,-0.47027 -1.913424,0.67089 -0.668943,1.1412 0.62488,2.29326 0.62488,2.29326 L 76.099653,104.547"
         id="path19831" />
      <path
         style="display:inline;fill:#e4d4c7;fill-opacity:1;stroke:#000000;stroke-width:0.182033;stroke-linecap:square;stroke-dasharray:none"
         d="m 86.562434,108.54751 0.692673,-2.01212 4.487485,-5.13714 c 0,0 0.816765,-0.98864 1.525685,-0.21633 0.70892,0.7723 4.282217,5.35534 1.927471,9.8851 -2.354739,4.52976 -5.997245,5.61411 -5.997245,5.61411 0,0 -1.492254,0.63751 -1.672011,-0.66728 -0.179756,-1.30478 -1.192846,-6.92913 -0.964058,-7.46634 z"
         id="path16236" />
      <path
         style="fill:#e4d4c7;fill-opacity:1;stroke:#000000;stroke-width:0.182033;stroke-linecap:square;stroke-dasharray:none"
         id="path19732"
         d="m 87.08077,107.98224 c 0.07296,0.0259 0.14606,0.0517 0.214344,0.0885 0.04054,0.0195 0.07746,0.0436 0.112566,0.0715 0.03203,0.0253 0.06338,0.0515 0.09528,0.0771 0.03688,0.0288 0.0762,0.0546 0.118419,0.0748 0.0364,0.0148 0.07006,0.0344 0.102129,0.0569 0.02869,0.0187 0.05618,0.0386 0.08205,0.061 0.03003,0.027 0.06086,0.053 0.09037,0.0807 0.03269,0.0323 0.06683,0.0632 0.102298,0.0925 0.03154,0.0253 0.06091,0.0529 0.0925,0.0781 0.03347,0.0215 0.06367,0.0469 0.09213,0.0745 0.03524,0.0346 0.06907,0.0705 0.103637,0.10569 0.04045,0.0378 0.0738,0.0818 0.113395,0.12046 0.04335,0.04 0.08534,0.0818 0.130219,0.12016 0.03795,0.0336 0.07105,0.0722 0.103471,0.11099 0.0453,0.0522 0.08044,0.11195 0.115592,0.17116 0.03525,0.0604 0.08686,0.10737 0.12356,0.1669 0.02482,0.0543 0.06686,0.0925 0.09642,0.14386 0.02146,0.045 0.0555,0.0802 0.08532,0.11913 0.0026,0.005 0.0097,0.002 0.0072,-0.003 v 0 c -0.0112,-0.05 -0.02061,-0.0971 -0.05441,-0.13839 -0.03154,-0.0516 -0.03641,-0.10895 -0.07074,-0.15962 -0.03509,-0.0597 -0.06129,-0.12269 -0.09284,-0.1842 -0.03781,-0.0647 -0.07357,-0.13133 -0.123739,-0.18765 -0.03521,-0.0422 -0.07165,-0.0831 -0.111355,-0.12107 -0.03877,-0.0418 -0.07992,-0.0812 -0.115872,-0.12547 -0.03613,-0.0422 -0.07215,-0.0845 -0.110044,-0.12518 -0.03487,-0.0372 -0.07028,-0.0739 -0.106483,-0.10976 -0.03089,-0.0299 -0.06377,-0.0574 -0.09679,-0.0848 -0.02995,-0.0263 -0.05734,-0.0553 -0.087,-0.082 -0.03271,-0.029 -0.06585,-0.0576 -0.09673,-0.0886 -0.03086,-0.0288 -0.06298,-0.0561 -0.09444,-0.0843 -0.02973,-0.0257 -0.06108,-0.0488 -0.09402,-0.0703 -0.03725,-0.026 -0.07539,-0.0507 -0.114408,-0.074 -0.03137,-0.0189 -0.06121,-0.0399 -0.08945,-0.0633 -0.03183,-0.0255 -0.06353,-0.0512 -0.09326,-0.0791 -0.04337,-0.0353 -0.08988,-0.0659 -0.141018,-0.0889 -0.07516,-0.0368 -0.153234,-0.0666 -0.232183,-0.0942 -0.106381,-0.0397 -0.162541,0.11071 -0.05615,0.15044 z" />
      <path
         style="fill:#e4d4c7;fill-opacity:1;stroke:#000000;stroke-width:0.182033;stroke-linecap:square;stroke-dasharray:none"
         id="path19734"
         d="m 90.035766,116.15699 c -0.01354,-0.0908 -0.02508,-0.18199 -0.03469,-0.27334 -0.0048,-0.067 -0.01229,-0.13344 -0.02358,-0.19958 -0.01559,-0.0743 -0.02273,-0.14984 -0.03131,-0.22508 -0.0057,-0.0581 -0.0186,-0.11518 -0.02226,-0.17341 -0.0021,-0.0444 -0.0091,-0.088 -0.02063,-0.13093 -0.01251,-0.0512 -0.02463,-0.10251 -0.03898,-0.15324 -0.01868,-0.0628 -0.03765,-0.12547 -0.05994,-0.1871 -0.02368,-0.061 -0.04463,-0.12302 -0.06803,-0.18414 -0.02622,-0.0664 -0.04964,-0.13387 -0.07576,-0.20035 -0.02741,-0.0692 -0.05273,-0.13904 -0.0786,-0.20874 -0.03353,-0.0879 -0.06723,-0.17583 -0.104543,-0.26223 -0.03368,-0.0708 -0.06327,-0.14335 -0.09135,-0.21653 -0.02433,-0.0677 -0.05005,-0.13484 -0.07469,-0.20241 -0.02673,-0.076 -0.05551,-0.15115 -0.08488,-0.22615 -0.03382,-0.0855 -0.06368,-0.17234 -0.09721,-0.25789 -0.03809,-0.0917 -0.07405,-0.18417 -0.108144,-0.27741 -0.03816,-0.10218 -0.07574,-0.20462 -0.115003,-0.30639 -0.03613,-0.0898 -0.07468,-0.17858 -0.112038,-0.26786 -0.03502,-0.078 -0.07596,-0.15297 -0.112225,-0.23034 -0.03338,-0.0917 -0.07971,-0.17723 -0.124817,-0.26343 -0.03476,-0.0924 -0.09493,-0.16415 -0.155918,-0.23952 -0.0086,-0.0191 -0.03554,-0.007 -0.02709,0.0117 v 0 c 0.01821,0.10622 0.0351,0.1783 0.09078,0.27273 0.03998,0.0866 0.07786,0.17414 0.111369,0.26345 0.03136,0.0793 0.07147,0.15403 0.108397,0.23078 0.03691,0.0883 0.07403,0.17644 0.110272,0.26499 0.03889,0.10084 0.07455,0.20278 0.10645,0.30607 0.03298,0.0951 0.07034,0.18849 0.108263,0.28173 0.03357,0.0857 0.06383,0.17251 0.09548,0.25893 0.02939,0.0738 0.05622,0.14839 0.0831,0.22307 0.02465,0.0677 0.05044,0.13509 0.07487,0.20291 0.02683,0.0756 0.05188,0.15192 0.08522,0.22505 0.03449,0.0856 0.06582,0.17232 0.09692,0.25917 0.02628,0.0706 0.04824,0.14272 0.07668,0.21251 0.026,0.066 0.0505,0.13263 0.07265,0.20008 0.0226,0.0589 0.04383,0.11849 0.0598,0.17966 0.01801,0.0596 0.03747,0.11891 0.05249,0.17941 0.01265,0.05 0.02475,0.0999 0.03111,0.15117 0.007,0.0334 0.01213,0.067 0.01104,0.10128 0.0035,0.0614 0.0093,0.12256 0.01716,0.18353 0.009,0.0787 0.01675,0.15764 0.03276,0.23526 0.01082,0.0621 0.01876,0.1248 0.02479,0.18758 0.01005,0.0953 0.02392,0.19001 0.03913,0.28461 0.02117,0.12219 0.193964,0.0922 0.17279,-0.03 z" />
      <path
         style="fill:#e4d4c7;fill-opacity:1;stroke:#000000;stroke-width:0.182033;stroke-linecap:square;stroke-dasharray:none"
         id="path19736"
         d="m 92.047311,114.77015 c -0.03212,-0.0791 -0.06345,-0.1586 -0.09273,-0.23882 -0.02113,-0.0543 -0.03799,-0.10997 -0.05949,-0.16407 -0.02094,-0.06 -0.04229,-0.1199 -0.06248,-0.18017 -0.01984,-0.0624 -0.04552,-0.12284 -0.07118,-0.18305 -0.03122,-0.0703 -0.07027,-0.13662 -0.104322,-0.20556 -0.03888,-0.0774 -0.07721,-0.15516 -0.121123,-0.22986 -0.04248,-0.0584 -0.07155,-0.12391 -0.100695,-0.1895 -0.03706,-0.0864 -0.07404,-0.17305 -0.114104,-0.2582 -0.05396,-0.11512 -0.108672,-0.22982 -0.167306,-0.34265 -0.05108,-0.0945 -0.09517,-0.19252 -0.144007,-0.28812 -0.05612,-0.1072 -0.108393,-0.21602 -0.16998,-0.32027 -0.05594,-0.0987 -0.105299,-0.20076 -0.162043,-0.29904 -0.04522,-0.0854 -0.09224,-0.16979 -0.143102,-0.25203 -0.05418,-0.0785 -0.121406,-0.14458 -0.176304,-0.2227 -0.0023,-0.003 -0.0074,-8.1e-4 -0.0052,0.003 v 0 c 0.04163,0.0863 0.06208,0.18024 0.114744,0.26096 0.04991,0.0806 0.09273,0.16504 0.133478,0.25064 0.04848,0.10315 0.09868,0.20543 0.1469,0.3087 0.05322,0.10767 0.110102,0.21353 0.163387,0.32118 0.04946,0.0954 0.09674,0.19202 0.146994,0.28708 0.05781,0.11123 0.112549,0.224 0.163422,0.33859 0.03819,0.0856 0.07424,0.17201 0.109938,0.25866 0.03094,0.0697 0.06234,0.13935 0.107495,0.20136 0.04314,0.0706 0.07849,0.14536 0.113463,0.22022 0.0299,0.0694 0.05538,0.14051 0.08539,0.20987 0.02394,0.0562 0.04625,0.11321 0.06343,0.17189 0.01795,0.0611 0.03494,0.12253 0.0523,0.1838 0.01426,0.0587 0.03377,0.11585 0.053,0.17308 0.03026,0.0828 0.06262,0.16475 0.09838,0.24534 0.04267,0.10023 0.184397,0.0398 0.141714,-0.0604 z" />
      <path
         style="fill:#e4d4c7;fill-opacity:1;stroke:#000000;stroke-width:0.182033;stroke-linecap:square;stroke-dasharray:none"
         id="path19738"
         d="m 94.67647,111.18495 c -0.08093,-0.0467 -0.164169,-0.0891 -0.244425,-0.13704 -0.06456,-0.0374 -0.128107,-0.0765 -0.19017,-0.11793 -0.05821,-0.0382 -0.112704,-0.0816 -0.169242,-0.12218 -0.0848,-0.059 -0.174738,-0.11002 -0.263989,-0.16181 -0.110548,-0.0635 -0.222084,-0.12505 -0.334828,-0.18443 -0.09842,-0.0498 -0.196646,-0.0999 -0.295308,-0.14915 -0.108286,-0.0561 -0.21932,-0.10595 -0.331946,-0.15252 -0.10265,-0.0414 -0.206815,-0.0788 -0.310008,-0.11878 -0.08976,-0.0342 -0.179084,-0.0695 -0.268369,-0.10493 -0.07739,-0.0303 -0.151099,-0.0687 -0.223407,-0.10948 -0.07389,-0.0421 -0.148136,-0.0836 -0.224098,-0.12189 -0.0633,-0.0316 -0.127696,-0.061 -0.192191,-0.0902 -0.05727,-0.0279 -0.115029,-0.0547 -0.173282,-0.0806 -0.06806,-0.0294 -0.137656,-0.0549 -0.206983,-0.0811 -0.06706,-0.0234 -0.134349,-0.046 -0.200882,-0.0709 -0.06119,-0.025 -0.12244,-0.0496 -0.18536,-0.0701 -0.06939,-0.0175 -0.138288,-0.0363 -0.206718,-0.0573 -0.05763,-0.0146 -0.113986,-0.0317 -0.169709,-0.0524 -0.07587,-0.0245 -0.156677,-0.0295 -0.235916,-0.0296 -0.04532,-0.0102 -0.07198,0.0206 -0.11068,0.0329 -0.01444,0.004 -0.0301,0.002 -0.04515,0.003 -0.01389,-0.004 -0.01912,0.0155 -0.0052,0.0195 v 0 c 0.05132,0.0324 0.09022,0.0837 0.156284,0.0803 0.06281,0.005 0.124986,0.0109 0.182139,0.04 0.05863,0.0253 0.116119,0.0539 0.177846,0.0712 0.06738,0.0206 0.134829,0.041 0.20199,0.0623 0.06048,0.0195 0.11916,0.0436 0.177899,0.0678 0.06628,0.0247 0.132889,0.0486 0.19919,0.0733 0.06612,0.025 0.132383,0.0497 0.197411,0.0775 0.05785,0.0257 0.115103,0.0526 0.172206,0.0798 0.06181,0.028 0.123535,0.0561 0.184242,0.0863 0.07328,0.0382 0.143953,0.0812 0.216651,0.12047 0.0796,0.0448 0.160799,0.0866 0.245958,0.11994 0.08976,0.0356 0.179532,0.0711 0.269765,0.10547 0.101904,0.0394 0.204624,0.0768 0.305952,0.11776 0.10862,0.0449 0.215515,0.0933 0.319762,0.14761 0.09746,0.0486 0.194486,0.0982 0.291734,0.14731 0.11052,0.0582 0.219724,0.11881 0.328324,0.1805 0.08436,0.049 0.169509,0.097 0.249848,0.15237 0.05824,0.041 0.11351,0.0861 0.173541,0.12447 0.06551,0.0443 0.132722,0.0862 0.202317,0.12379 0.08133,0.0444 0.163483,0.087 0.245888,0.12934 0.106633,0.0629 0.195582,-0.0879 0.08895,-0.1508 z" />
      <path
         style="fill:#e4d4c7;fill-opacity:1;stroke:#000000;stroke-width:0.182033;stroke-linecap:square;stroke-dasharray:none"
         id="path19740"
         d="m 94.665142,107.42153 c -0.07889,0.038 -0.15156,0.0872 -0.228664,0.12856 -0.05897,0.0308 -0.122385,0.0513 -0.185147,0.0728 -0.0702,0.0243 -0.142668,0.0409 -0.214299,0.0604 -0.08281,0.023 -0.164773,0.0489 -0.246713,0.0748 -0.08024,0.0233 -0.15961,0.0494 -0.239264,0.0745 -0.08038,0.0264 -0.161895,0.0491 -0.243669,0.0707 -0.07817,0.0226 -0.156933,0.0422 -0.237443,0.0545 -0.05711,0 -0.09619,0.023 -0.14075,0.0559 -0.02232,-10e-4 -0.02396,0.0303 -0.0017,0.0315 v 0 c 0.05223,0.0409 0.09593,0.0611 0.163439,0.0445 0.08484,-0.0136 0.169117,-0.0312 0.251902,-0.0543 0.08371,-0.0222 0.167108,-0.0455 0.249399,-0.0725 0.07949,-0.0251 0.159074,-0.05 0.238173,-0.0763 0.08068,-0.0255 0.161602,-0.0502 0.242917,-0.0736 0.07366,-0.0201 0.147315,-0.0403 0.220116,-0.0632 0.07039,-0.0228 0.140813,-0.0466 0.206423,-0.0814 0.07521,-0.0404 0.146776,-0.087 0.221274,-0.12863 0.08334,-0.0395 0.02742,-0.15741 -0.05591,-0.11786 z" />
      <path
         style="fill:#e4d4c7;fill-opacity:1;stroke:#000000;stroke-width:0.182033;stroke-linecap:square;stroke-dasharray:none"
         id="path19742"
         d="m 94.340651,106.76212 c -0.06808,0.0632 -0.129444,0.13319 -0.197702,0.1962 -0.04807,0.0441 -0.104121,0.0756 -0.163166,0.1022 -0.06249,0.0271 -0.127822,0.0467 -0.19236,0.0681 -0.07824,0.0258 -0.156977,0.0498 -0.236968,0.0696 -0.07366,0.0201 -0.148811,0.0323 -0.22462,0.0404 -0.06944,0.009 -0.139272,0.008 -0.209072,0.007 -0.06534,10e-4 -0.130568,-0.003 -0.195548,-0.009 -0.07319,-0.0184 -0.107185,-0.0226 -0.181099,-0.002 -0.01135,0.003 -0.02301,0.004 -0.03436,0.007 -0.01208,-10e-4 -0.01445,0.0156 -0.0023,0.0172 v 0 c 0.0088,0.005 0.01789,0.01 0.02686,0.015 0.01548,0.0174 0.02803,0.0381 0.04632,0.0526 0.03538,0.028 0.08735,0.0364 0.129322,0.0477 0.06987,0.008 0.140056,0.009 0.210323,0.0111 0.07554,2.5e-4 0.151388,-5.3e-4 0.226596,-0.008 0.08169,-0.0113 0.164064,-0.0206 0.243355,-0.0444 0.08175,-0.0227 0.163197,-0.0463 0.243802,-0.0728 0.06943,-0.0228 0.138429,-0.0469 0.20552,-0.0759 0.07279,-0.0335 0.140551,-0.076 0.198848,-0.13141 0.06484,-0.0669 0.124202,-0.13887 0.188129,-0.20671 0.05845,-0.0578 -0.02329,-0.14046 -0.08173,-0.0827 z" />
      <path
         style="fill:#e4d4c7;fill-opacity:1;stroke:#000000;stroke-width:0.182033;stroke-linecap:square;stroke-dasharray:none"
         id="path19744"
         d="m 92.142822,106.50754 c 0.07301,0.0372 0.151847,0.0589 0.23169,0.0755 0.04498,0.0114 0.09096,0.0109 0.136863,0.0123 0.03571,5e-5 0.07176,-0.003 0.107016,-0.009 0.0386,-0.008 0.07768,-0.0125 0.116666,-0.0179 0.05418,-0.009 0.107258,-0.0227 0.159297,-0.0398 0.05216,-0.0217 0.102991,-0.0449 0.157726,-0.0593 0.06128,-0.0183 0.122148,-0.038 0.1836,-0.0559 0.06303,-0.0178 0.125024,-0.0389 0.187124,-0.0597 0.05217,-0.0154 0.0967,-0.0437 0.138954,-0.0769 0.04793,-0.0369 0.09119,-0.0784 0.130662,-0.12413 0.03827,-0.0496 0.07655,-0.0992 0.116552,-0.14747 0.03055,-0.0397 0.05954,-0.0805 0.09077,-0.1196 0.02927,-0.0367 0.07045,-0.0624 0.09059,-0.1055 -0.0076,-0.0367 -0.0016,-0.0197 -0.01738,-0.0513 0.01231,-0.0217 -0.01833,-0.0391 -0.03063,-0.0174 v 0 c -0.03028,-0.004 -0.01538,-10e-4 -0.04489,-0.007 -0.04211,0.0196 -0.06989,0.0664 -0.102784,0.0975 -0.0306,0.0385 -0.059,0.0786 -0.08887,0.11775 -0.03947,0.0476 -0.07747,0.0963 -0.114914,0.14553 -0.03381,0.0394 -0.07012,0.0756 -0.112224,0.10634 -0.03043,0.0241 -0.05889,0.0485 -0.09765,0.0581 -0.06103,0.0203 -0.121138,0.0435 -0.182776,0.0619 -0.0634,0.0198 -0.126745,0.0409 -0.187892,0.0667 -0.04932,0.024 -0.09962,0.046 -0.150411,0.0667 -0.04723,0.0157 -0.09466,0.031 -0.143448,0.0411 -0.0393,0.009 -0.07859,0.0185 -0.117975,0.0278 -0.03098,0.009 -0.06155,0.0184 -0.09414,0.0203 -0.03894,0.009 -0.07619,0.004 -0.114715,-0.007 -0.07393,-0.0146 -0.146107,-0.0355 -0.21352,-0.07 -0.0493,-0.0237 -0.08272,0.0461 -0.03342,0.0697 z" />
      <path
         style="fill:#e4d4c7;fill-opacity:1;stroke:#000000;stroke-width:0.182033;stroke-linecap:square;stroke-dasharray:none"
         id="path19746"
         d="m 88.836426,106.99196 c 0.081,-0.0329 0.166515,-0.0521 0.25225,-0.0677 0.04986,-0.007 0.09983,-0.0142 0.149806,-0.021 0.04993,-0.007 0.100211,-0.013 0.150333,-0.0195 0.04657,-0.005 0.09242,-0.0144 0.137918,-0.0254 0.03723,-0.009 0.07497,-0.0143 0.111948,-0.0239 0.04861,-0.0148 0.0981,-0.0268 0.145909,-0.044 0.06286,-0.0219 0.118792,-0.0583 0.173867,-0.0949 0.04745,-0.0328 0.09336,-0.0671 0.134605,-0.10755 0.04673,-0.0475 0.07741,-0.10563 0.104358,-0.16579 0.02662,-0.0631 0.04716,-0.129 0.04659,-0.1978 -0.02145,-0.054 -0.01605,-0.0269 -0.01821,-0.0806 0.0047,-0.0171 -0.01948,-0.0236 -0.02415,-0.007 v 0 c -0.02925,0.0458 -0.01107,0.0247 -0.05598,0.0623 -0.0295,0.0537 -0.04191,0.11381 -0.06814,0.16918 -0.01991,0.045 -0.04089,0.0896 -0.07765,0.12353 -0.03544,0.0343 -0.07319,0.066 -0.113971,0.0938 -0.04645,0.0308 -0.09317,0.0623 -0.144744,0.084 -0.04432,0.0161 -0.08898,0.0313 -0.134521,0.0435 -0.03635,0.009 -0.07237,0.0197 -0.109458,0.0262 -0.04147,0.011 -0.08301,0.022 -0.1255,0.0287 -0.04941,0.008 -0.09862,0.0179 -0.148215,0.025 -0.05179,0.007 -0.103504,0.014 -0.154719,0.0244 -0.09169,0.0175 -0.183067,0.0381 -0.270008,0.0729 -0.07114,0.0267 -0.0336,0.12722 0.03757,0.10065 z" />
      <path
         style="fill:#000000;fill-opacity:1;stroke:#000000;stroke-width:0.182033;stroke-linecap:square;stroke-dasharray:none"
         id="path19748"
         d="m 87.721824,106.59902 c 0.09627,-0.0189 0.191516,-0.0424 0.285997,-0.0686 0.0599,-0.0147 0.116245,-0.0399 0.173524,-0.0622 0.0556,-0.0218 0.109166,-0.0483 0.161708,-0.0767 0.06643,-0.038 0.126977,-0.0849 0.186854,-0.13223 0.07894,-0.0641 0.153604,-0.13306 0.229787,-0.2003 0.05202,-0.0462 0.104785,-0.0915 0.15901,-0.13518 0.04178,-0.0335 0.08424,-0.0663 0.127973,-0.0973 0.05895,-0.0405 0.117158,-0.0821 0.175626,-0.12333 0.07031,-0.0471 0.136807,-0.0993 0.204287,-0.15022 0.0683,-0.0522 0.138457,-0.10174 0.209348,-0.15035 0.06112,-0.0433 0.12522,-0.0819 0.189457,-0.12037 0.05312,-0.0319 0.104242,-0.0669 0.154707,-0.10278 0.05131,-0.0394 0.104356,-0.0764 0.156488,-0.11467 0.05563,-0.0443 0.110434,-0.0896 0.165808,-0.13429 0.05425,-0.0425 0.110644,-0.0821 0.165114,-0.12432 0.05835,-0.0453 0.115953,-0.0914 0.17078,-0.14089 0.04317,-0.0394 0.08864,-0.0762 0.132328,-0.11511 0.04209,-0.039 0.08795,-0.0735 0.130791,-0.11159 0.06391,-0.0605 0.118436,-0.12855 0.165,-0.20301 0.03606,-0.0645 0.07146,-0.12921 0.10737,-0.19373 0.02188,-0.0399 0.04359,-0.08 0.07041,-0.11694 0.03206,-0.0404 0.05974,-0.0841 0.08653,-0.12812 0.01767,-0.0461 0.03754,-0.091 0.05461,-0.13741 0.0046,-0.0285 0.0023,-0.0523 0.01393,-0.079 0.0026,-0.004 -0.004,-0.008 -0.0062,-0.003 v 0 c -0.01602,0.0231 -0.03458,0.0317 -0.0601,0.0433 -0.0404,0.0298 -0.07833,0.0633 -0.114485,0.0979 -0.03108,0.0388 -0.06195,0.0777 -0.09351,0.11606 -0.03231,0.0409 -0.06221,0.0834 -0.08744,0.12925 -0.03605,0.0608 -0.07298,0.12101 -0.110502,0.1809 -0.04037,0.0583 -0.08675,0.1133 -0.14026,0.15999 -0.04471,0.0364 -0.08985,0.0722 -0.133866,0.10941 -0.04544,0.038 -0.09054,0.0763 -0.134743,0.11577 -0.05297,0.0457 -0.109214,0.0874 -0.163632,0.13129 -0.05521,0.043 -0.113093,0.0825 -0.167836,0.12612 -0.05277,0.0426 -0.104655,0.0862 -0.159428,0.1262 -0.05248,0.0371 -0.105271,0.0738 -0.157754,0.11097 -0.04627,0.033 -0.09316,0.0651 -0.141854,0.0944 -0.06764,0.0405 -0.134885,0.0815 -0.199323,0.12695 -0.07332,0.0502 -0.145587,0.10179 -0.216289,0.15569 -0.06583,0.0496 -0.132687,0.0979 -0.200595,0.14475 -0.05865,0.0413 -0.116177,0.0841 -0.174568,0.12573 -0.04677,0.0332 -0.09238,0.0681 -0.137252,0.10388 -0.05654,0.0454 -0.111566,0.0926 -0.165782,0.14078 -0.07378,0.0652 -0.146126,0.13195 -0.222462,0.19416 -0.0508,0.0408 -0.102377,0.0809 -0.158667,0.11399 -0.04664,0.0253 -0.09432,0.0489 -0.141931,0.0723 -0.0498,0.022 -0.100427,0.0422 -0.152306,0.0588 -0.09054,0.0255 -0.180805,0.0519 -0.272968,0.071 -0.121728,0.0257 -0.08546,0.19781 0.03627,0.17216 z" />
      <path
         style="fill:#000000;fill-opacity:1;stroke:#000000;stroke-width:0.182033;stroke-linecap:square;stroke-dasharray:none"
         id="path19750"
         d="m 94.531841,103.65299 c -0.05556,0.0559 -0.116449,0.10632 -0.182147,0.14983 -0.04976,0.0341 -0.105533,0.0572 -0.161017,0.0799 -0.07215,0.028 -0.143573,0.0569 -0.213087,0.0911 -0.0838,0.0447 -0.163917,0.0959 -0.245072,0.14517 -0.0702,0.0455 -0.14212,0.0882 -0.214532,0.13007 -0.06576,0.0349 -0.129716,0.0729 -0.19301,0.11205 -0.06329,0.0395 -0.125237,0.0813 -0.182769,0.12885 -0.05447,0.0502 -0.111151,0.0977 -0.17034,0.14232 -0.06312,0.0476 -0.127434,0.0936 -0.191623,0.13983 -0.05797,0.0447 -0.118995,0.0843 -0.183878,0.11808 -0.07008,0.0341 -0.143903,0.0596 -0.217291,0.0855 -0.08351,0.0285 -0.171059,0.0421 -0.257651,0.0575 -0.111241,0.0141 -0.217188,0.0454 -0.323436,0.0796 -0.0586,0.0248 -0.123103,0.0399 -0.180002,0.0688 -0.06407,0.032 -0.08604,0.0627 -0.159049,0.0865 -0.01347,0.003 -0.0093,0.0221 0.0043,0.0191 v 0 c 0.07294,-0.009 0.120272,0.009 0.187547,0.002 0.06168,-0.006 0.12253,-0.0314 0.184151,-0.039 0.101542,-0.0216 0.204742,-0.0375 0.308565,-0.042 0.100135,-0.008 0.201318,-0.0154 0.298147,-0.0437 0.08382,-0.0262 0.167551,-0.0535 0.247201,-0.0909 0.0755,-0.0371 0.145855,-0.0816 0.21264,-0.13283 0.06545,-0.0471 0.131016,-0.094 0.195396,-0.14258 0.0603,-0.0455 0.11971,-0.0921 0.178984,-0.13898 0.05333,-0.0395 0.110723,-0.0723 0.168015,-0.10573 0.0614,-0.0379 0.12351,-0.0746 0.187065,-0.1088 0.07504,-0.0433 0.149543,-0.0876 0.222281,-0.13473 0.07363,-0.0484 0.147882,-0.0958 0.22481,-0.13887 0.06499,-0.0344 0.130828,-0.0671 0.198086,-0.0969 0.0657,-0.0316 0.132527,-0.0619 0.191528,-0.10529 0.07495,-0.0545 0.146439,-0.11411 0.207044,-0.18459 0.09274,-0.0996 -0.04805,-0.23072 -0.140792,-0.13116 z" />
      <path
         style="fill:#e4d4c7;fill-opacity:1;stroke:#000000;stroke-width:0.182033;stroke-linecap:square;stroke-dasharray:none"
         id="path19752"
         d="m 93.702264,103.22486 c -0.06878,0.0681 -0.141456,0.13216 -0.215904,0.19391 -0.04768,0.0382 -0.09519,0.0768 -0.14372,0.11399 -0.03719,0.0295 -0.07505,0.0579 -0.110954,0.089 -0.03239,0.028 -0.0668,0.053 -0.102839,0.076 -0.0587,0.0346 -0.11615,0.0711 -0.173083,0.10849 -0.0892,0.0549 -0.169615,0.11839 -0.232967,0.20203 -0.06164,0.076 -0.02581,0.0441 -0.107036,0.0962 -0.01244,0.007 -0.0028,0.0246 0.0097,0.0177 v 0 c 0.09019,-0.0418 0.04257,-0.0254 0.14315,-0.0484 0.09662,-0.0306 0.177414,-0.0879 0.266536,-0.13507 0.06132,-0.0333 0.122583,-0.0668 0.182076,-0.10335 0.0439,-0.0282 0.08676,-0.0584 0.124731,-0.0944 0.03144,-0.0311 0.06463,-0.0595 0.09995,-0.0862 0.04681,-0.0403 0.09499,-0.0788 0.1433,-0.11722 0.0782,-0.065 0.153659,-0.13318 0.2244,-0.20629 0.07551,-0.076 -0.03196,-0.18277 -0.107459,-0.10678 z" />
      <path
         style="fill:#000000;fill-opacity:1;stroke:#000000;stroke-width:0.182033;stroke-linecap:square;stroke-dasharray:none"
         d="m 94.685609,111.11378 c 0.03918,0.0183 0.114171,0.0534 0.114177,0.0534 6e-6,0 -0.07499,-0.0351 -0.05905,-0.0178 0.01594,0.0173 0.123021,0.0867 0.184535,0.1383 0.06151,0.0517 0.07914,0.0849 0.09303,0.11859 0.01389,0.0337 0.02473,0.068 0.0027,0.0956 -0.02198,0.0276 -0.07817,0.0521 -0.140028,0.0384 -0.06186,-0.0136 -0.130148,-0.0686 -0.181328,-0.10908 -0.05118,-0.0404 -0.08537,-0.0662 -0.09249,-0.12014 -0.0071,-0.0539 0.01596,-0.1344 0.0276,-0.17502 0.01164,-0.0406 0.01162,-0.0407 0.0508,-0.0224 z"
         id="path19817"
         inkscape:path-effect="#path-effect19819"
         inkscape:original-d="m 94.646427,111.09544 c 0.07831,0.0368 0.153299,0.0719 0.224969,0.10531 -0.07166,-0.0334 -0.146659,-0.0685 -0.224969,-0.10531 0.110426,0.0711 0.217522,0.14039 0.321305,0.20799 0.02092,0.035 0.03854,0.0683 0.05284,0.0998 0.01411,0.036 0.02495,0.0703 0.0325,0.10288 -0.05286,0.0261 -0.109068,0.0505 -0.168547,0.0733 -0.06492,-0.0532 -0.133184,-0.10824 -0.204755,-0.16494 -0.03087,-0.0241 -0.06506,-0.0499 -0.102558,-0.0774 0.02639,-0.0788 0.04948,-0.15929 0.06924,-0.24153 z" />
      <path
         style="fill:#000000;fill-opacity:1;stroke:#000000;stroke-width:0.182033;stroke-linecap:square;stroke-dasharray:none"
         id="path19821"
         d="m 78.957658,105.07869 c 0.09716,0.0325 0.19379,0.0666 0.290051,0.10166 0.06862,0.0243 0.134243,0.0556 0.199651,0.0874 0.06746,0.0284 0.129004,0.0681 0.19237,0.1042 0.06178,0.0315 0.128465,0.0512 0.192562,0.0774 0.06464,0.0253 0.128919,0.0515 0.192702,0.0789 0.06508,0.0278 0.128794,0.0588 0.193328,0.0879 0.06017,0.028 0.120502,0.0556 0.181181,0.0825 0.05329,0.0292 0.109645,0.0521 0.163474,0.0801 0.05317,0.0233 0.106037,0.0464 0.157844,0.0725 0.05492,0.0316 0.111835,0.0584 0.171769,0.079 0.04351,0.016 0.08498,0.0366 0.12843,0.053 0.04893,0.0183 0.09929,0.0326 0.147844,0.0519 0.05924,0.0288 0.119122,0.0562 0.179417,0.0827 0.04746,0.0217 0.09899,0.0313 0.150105,0.0398 0.02476,5.7e-4 0.04275,0.0142 0.06338,0.0262 0.02476,0.0162 0.05091,0.0297 0.07615,0.0451 0.03771,0.0229 0.0759,0.045 0.114398,0.0666 0.03611,0.0194 0.07419,0.0351 0.112068,0.0507 0.03974,0.0182 0.0809,0.031 0.123992,0.0378 0.0215,0.005 0.04241,0.0113 0.06348,0.0176 0.04511,0.0154 0.08854,0.0354 0.132384,0.0539 0.04402,0.0195 0.08487,0.0443 0.129739,0.062 0.04357,0.0166 0.08973,0.0245 0.135247,0.0337 0.04059,0.005 0.07995,0.0161 0.119673,0.0257 0.03605,0.0126 0.07293,0.0222 0.109754,0.0319 0.0416,0.0114 0.08374,0.0203 0.125457,0.0309 0.03554,0.01 0.07082,0.0203 0.106292,0.0303 0.03042,0.0119 0.06206,0.0199 0.0924,0.0319 0.03526,0.0166 0.07019,0.0336 0.106455,0.0481 0.03455,0.012 0.07029,0.0198 0.105122,0.0309 0.02697,0.009 0.05223,0.021 0.08054,0.0245 0.02682,-0.019 0.01333,-0.008 0.04063,-0.031 0.01366,0.005 0.02158,-0.0142 0.0079,-0.0195 v 0 c -0.0072,-0.0361 -0.003,-0.0191 -0.01241,-0.0512 -0.02371,-0.0136 -0.04992,-0.0212 -0.07421,-0.0336 -0.03237,-0.014 -0.06662,-0.0226 -0.09872,-0.0372 -0.03618,-0.0158 -0.0719,-0.0323 -0.107649,-0.0491 -0.03286,-0.0133 -0.06622,-0.0253 -0.09942,-0.0378 -0.03604,-0.0133 -0.07287,-0.0241 -0.109517,-0.0354 -0.0405,-0.013 -0.08062,-0.0274 -0.121526,-0.039 -0.03702,-0.0128 -0.07238,-0.0303 -0.110362,-0.0407 -0.04045,-0.0129 -0.08083,-0.0257 -0.122704,-0.0333 -0.03657,-0.0108 -0.07274,-0.0232 -0.109284,-0.0339 -0.04348,-0.0194 -0.0827,-0.047 -0.126195,-0.0663 -0.04871,-0.0207 -0.09691,-0.0427 -0.14716,-0.0594 -0.02524,-0.009 -0.04912,-0.0216 -0.07503,-0.0287 -0.03081,-0.009 -0.06078,-0.0201 -0.0892,-0.0355 -0.03141,-0.0148 -0.06249,-0.0304 -0.09355,-0.0459 -0.03894,-0.0219 -0.0769,-0.0453 -0.115982,-0.0669 -0.02645,-0.0134 -0.05319,-0.0262 -0.079,-0.0408 -0.03936,-0.0205 -0.07964,-0.0385 -0.124666,-0.0413 -0.03631,-0.006 -0.07351,-0.007 -0.106986,-0.024 -0.06348,-0.0279 -0.125855,-0.0581 -0.189831,-0.0848 -0.05136,-0.018 -0.103367,-0.034 -0.15602,-0.0478 -0.04422,-0.0121 -0.0877,-0.0265 -0.131162,-0.041 -0.0546,-0.018 -0.109106,-0.0367 -0.160821,-0.0621 -0.05411,-0.0234 -0.112306,-0.0354 -0.165505,-0.0613 -0.05736,-0.0215 -0.113624,-0.0451 -0.169812,-0.0695 -0.06129,-0.0253 -0.122975,-0.0498 -0.185283,-0.0725 -0.06555,-0.0268 -0.129768,-0.0565 -0.195363,-0.0832 -0.06489,-0.0278 -0.130321,-0.0546 -0.196286,-0.0797 -0.06131,-0.0227 -0.12381,-0.042 -0.184242,-0.067 -0.06709,-0.033 -0.129129,-0.0754 -0.198476,-0.10406 -0.0689,-0.0302 -0.137168,-0.062 -0.207911,-0.0878 -0.09703,-0.0353 -0.194493,-0.0695 -0.292438,-0.10218 -0.06138,-0.0206 -0.09042,0.0662 -0.02904,0.0868 z" />
      <path
         style="fill:#000000;fill-opacity:1;stroke:#000000;stroke-width:0.182033;stroke-linecap:square;stroke-dasharray:none"
         id="path19823"
         d="m 58.982336,98.052435 c 0.09761,0.0256 0.193877,0.0555 0.286853,0.0948 0.07325,0.0354 0.145056,0.0735 0.217235,0.11093 0.05638,0.0297 0.115133,0.0533 0.176787,0.0694 0.06979,0.0132 0.138676,0.0297 0.20701,0.0489 0.05383,0.0158 0.10808,0.0308 0.160867,0.0496 0.04836,0.0216 0.09625,0.0447 0.144233,0.0673 0.04945,0.0244 0.09854,0.0495 0.148383,0.073 0.04069,0.0189 0.08037,0.0396 0.121861,0.0568 0.04228,0.0177 0.08605,0.0312 0.129636,0.0452 0.06021,0.0184 0.11919,0.0405 0.179349,0.059 0.05622,0.0145 0.111642,0.032 0.167266,0.0486 0.04539,0.0112 0.08909,0.0273 0.132383,0.0447 0.05435,0.0185 0.1095,0.0342 0.163997,0.0522 0.04264,0.0127 0.08507,0.026 0.127073,0.0406 0.0571,0.0251 0.114484,0.0489 0.173485,0.0693 0.07068,0.0252 0.142689,0.0466 0.214222,0.0691 0.06598,0.0205 0.131655,0.0419 0.196723,0.065 0.04988,0.017 0.09916,0.0356 0.148102,0.055 0.02019,0.009 0.04235,0.0146 0.05864,0.0298 0.03339,0.0297 0.07352,0.0509 0.113477,0.0703 0.03881,0.0206 0.07673,0.0428 0.116134,0.0622 0.04103,0.0198 0.08386,0.0343 0.129126,0.0395 0.02297,10e-4 0.04568,0.006 0.06846,0.009 0.03128,0.01 0.0602,0.0251 0.09008,0.0381 0.05881,0.0228 0.114956,0.0517 0.172303,0.0779 0.03924,0.0169 0.07864,0.0331 0.1192,0.0465 0.04607,0.0165 0.09196,0.0336 0.137963,0.0502 0.0362,0.0124 0.0732,0.022 0.109058,0.0354 0.04683,0.0163 0.09317,0.0337 0.138509,0.054 0.06917,0.032 0.14227,0.0538 0.215667,0.0737 0.08597,0.0195 0.157941,0.006 0.24242,0.0356 0.07609,0.0281 0.03409,0.0182 0.12704,0.0246 0.01381,0.006 0.02201,-0.0132 0.0082,-0.0194 v 0 c -0.07196,-0.0635 -0.03374,-0.0413 -0.111279,-0.0721 -0.07925,-0.0293 -0.149642,-0.0738 -0.229238,-0.10229 -0.06567,-0.0187 -0.131628,-0.0374 -0.19365,-0.0665 -0.04719,-0.0231 -0.0956,-0.0431 -0.144108,-0.0632 -0.03661,-0.0152 -0.07297,-0.031 -0.111101,-0.0422 -0.04634,-0.0167 -0.09165,-0.0362 -0.137587,-0.054 -0.03558,-0.0136 -0.07015,-0.0295 -0.104471,-0.0461 -0.05821,-0.0266 -0.115282,-0.0556 -0.175029,-0.0788 -0.03594,-0.0156 -0.07087,-0.0336 -0.108012,-0.0465 -0.028,-0.01 -0.0567,-0.0181 -0.08505,-0.0272 -0.0232,-0.009 -0.04489,-0.0209 -0.06505,-0.0359 -0.03903,-0.0248 -0.07636,-0.0522 -0.116949,-0.0745 -0.02634,-0.0145 -0.05142,-0.031 -0.07304,-0.052 -0.03447,-0.0272 -0.07227,-0.0479 -0.113884,-0.0623 -0.0526,-0.0209 -0.105555,-0.0409 -0.159159,-0.0591 -0.06725,-0.0212 -0.134774,-0.0414 -0.201803,-0.0633 -0.0698,-0.0215 -0.139821,-0.0421 -0.209291,-0.0645 -0.05977,-0.0206 -0.117143,-0.0466 -0.176692,-0.0676 -0.04377,-0.0139 -0.08845,-0.0246 -0.132079,-0.0389 -0.05147,-0.0146 -0.103033,-0.0289 -0.154274,-0.0444 -0.04943,-0.0173 -0.09953,-0.0323 -0.150217,-0.0453 -0.05555,-0.0139 -0.111346,-0.0268 -0.167071,-0.0399 -0.06304,-0.0169 -0.124604,-0.039 -0.188257,-0.0534 -0.03864,-0.005 -0.07549,-0.0191 -0.112316,-0.0315 -0.0402,-0.0135 -0.07887,-0.0308 -0.118798,-0.0451 -0.05273,-0.0204 -0.104191,-0.044 -0.157654,-0.0624 -0.05281,-0.0173 -0.105786,-0.0331 -0.160096,-0.045 -0.05538,-0.0171 -0.110813,-0.0342 -0.167283,-0.0475 -0.06963,-0.0195 -0.13986,-0.036 -0.211522,-0.0463 -0.05543,-0.0126 -0.10958,-0.0291 -0.161997,-0.0513 -0.07629,-0.0312 -0.149762,-0.0686 -0.224519,-0.10327 -0.09669,-0.0399 -0.196222,-0.0716 -0.297358,-0.0984 -0.05911,-0.0161 -0.082,0.0674 -0.02289,0.0836 z" />
      <path
         style="fill:#000000;fill-opacity:1;stroke:#000000;stroke-width:0.182033;stroke-linecap:square;stroke-dasharray:none"
         id="path19825"
         d="m 57.826698,97.055625 c 0.02524,-0.0647 0.0504,-0.12945 0.07771,-0.19334 0.01199,-0.0306 0.02553,-0.0604 0.04232,-0.0887 0.01223,-0.0224 0.02238,-0.0459 0.03688,-0.067 0.01451,-0.0239 0.03361,-0.0442 0.05084,-0.066 0.01927,-0.0224 0.04409,-0.0374 0.0692,-0.0522 0.03364,-0.018 0.06619,-0.0382 0.09781,-0.0598 0.02584,-0.0165 0.0546,-0.0279 0.08312,-0.0391 0.02955,-0.0114 0.06004,-0.02 0.09021,-0.0296 0.04168,-0.01 0.08084,-0.0266 0.119774,-0.0441 0.03452,-0.0151 0.06624,-0.0355 0.0982,-0.0553 0.03278,-0.0166 0.0669,-0.0306 0.100554,-0.0453 0.03402,-0.016 0.06917,-0.0292 0.104367,-0.0424 0.02694,-0.009 0.05324,-0.02 0.08146,-0.0236 0.03076,-0.004 0.06138,-4.1e-4 0.09201,0.003 0.03478,0.003 0.0699,0.005 0.104067,0.0123 0.03071,0.006 0.06059,0.0146 0.09034,0.0241 0.02445,0.009 0.04886,0.017 0.07302,0.0261 0.03844,0.0161 0.05945,-0.0193 0.08387,-0.043 0.02617,1.2e-4 0.02607,-0.037 -8.8e-5,-0.037 v 0 c -0.01418,-0.0216 -0.0074,-0.0553 -0.03554,-0.0622 -0.02579,-0.008 -0.05109,-0.0165 -0.07639,-0.0255 -0.03434,-0.0109 -0.06894,-0.0208 -0.104348,-0.0277 -0.03904,-0.008 -0.07853,-0.0118 -0.118269,-0.0147 -0.04358,-0.005 -0.08735,-0.009 -0.131062,-0.002 -0.03728,0.007 -0.07307,0.0178 -0.108858,0.0302 -0.03863,0.0143 -0.07721,0.0286 -0.114353,0.0466 -0.03979,0.0178 -0.08114,0.033 -0.117353,0.0577 -0.02635,0.0167 -0.05012,0.0373 -0.07949,0.0488 -0.03567,0.0155 -0.07059,0.0329 -0.106855,0.0471 -0.03225,0.0123 -0.06332,0.0274 -0.09488,0.0413 -0.0356,0.0165 -0.07065,0.0343 -0.102029,0.0581 -0.02896,0.022 -0.0598,0.0407 -0.09048,0.0603 -0.03241,0.0224 -0.06385,0.0461 -0.09166,0.0742 -0.02246,0.0236 -0.03964,0.0508 -0.05802,0.0776 -0.01656,0.0245 -0.03289,0.0494 -0.04546,0.0762 -0.01521,0.0324 -0.03117,0.0644 -0.04413,0.0978 -0.0281,0.0657 -0.0546,0.13213 -0.07727,0.19997 -0.02587,0.0712 0.07484,0.1078 0.100703,0.0366 z" />
      <path
         style="fill:none;fill-opacity:1;stroke:#000000;stroke-width:0.182033;stroke-linecap:square;stroke-dasharray:none"
         d="m 84.769642,107.91839 c 0,0 0.942357,-0.69623 0.753061,-2.0312"
         id="path19829" />
    </g>
    <g
       inkscape:groupmode="layer"
       id="layer4"
       inkscape:label="hřeben">
      <path
         style="fill:#eefbfc;fill-opacity:1;stroke:#000000;stroke-width:0.182033;stroke-linecap:square;stroke-dasharray:none"
         d="M 67.130009,97.335755 47.371751,78.297218 c 0,0 -2.675433,-2.626908 -0.708618,-5.434733 1.966824,-2.807828 5.355579,-5.555293 5.355579,-5.555293 0,0 1.733553,-1.432718 2.771857,-0.641129 -1.270673,1.094121 -5.818461,5.893885 -5.818461,5.893885 0,0 -1.780261,2.45406 -0.904198,2.085947 0.876065,-0.368108 7.845088,-8.278134 7.713086,-7.353858 -0.131982,0.92427 -7.282461,8.296818 -7.282461,8.296818 0,0 -0.311731,0.85148 0.363116,0.671254 0.6748,-0.180207 8.54836,-7.87966 8.54836,-7.87966 l -7.695993,8.316769 c 0,0 0.232211,1.222371 0.864702,0.699084 0.6325,-0.52329 7.663241,-7.940971 7.663241,-7.940971 l -7.09996,8.595683 c 0,0 0.168288,1.34183 0.897298,0.659687 0.729009,-0.682141 7.659469,-8.062981 7.659469,-8.062981 l -7.110553,8.731112 c 0,0 -0.120204,0.964075 0.669758,0.340092 0.789971,-0.623985 7.842672,-7.878346 7.842672,-7.878346 l -7.276641,8.826404 c 0,0 0.03142,1.084044 0.680523,0.551228 0.649102,-0.532816 8.136212,-8.088158 8.136212,-8.088158 l -7.640558,8.605756 c 0,0 0.05564,1.183976 0.748786,0.708677 0.693153,-0.475308 7.87586,-7.830127 7.87586,-7.830127 l -7.330408,8.386413 c 0,0 0.01119,1.318135 0.866596,0.760085 0.855397,-0.55804 7.952406,-7.677433 7.952406,-7.677433 l -7.339894,8.215942 c 0,0 -0.05615,1.25847 0.712956,0.848238 0.769116,-0.41023 7.998343,-7.558915 7.998343,-7.558915 l -7.178344,8.247427 c 0,0 0.08295,0.83717 0.747341,0.38872 0.664406,-0.44846 7.825873,-7.465138 7.825873,-7.465138 l -7.26994,8.155108 c 0,0 -0.226307,1.1543 0.579266,0.62484 0.805574,-0.52945 7.885029,-7.669815 7.885029,-7.669815 l -7.058866,8.147835 c 0,0 -0.130887,1.30134 0.58717,0.81175 0.718058,-0.48959 7.924609,-7.620089 7.924609,-7.620089 l -7.417158,8.177489 c 0,0 0.179298,1.01472 0.823902,0.54139 0.64462,-0.47331 7.792019,-7.466399 7.792019,-7.466399 l -7.045809,8.228299 c 0,0 -0.129513,1.0729 0.572253,0.60301 0.701763,-0.4699 7.780568,-7.563326 7.780568,-7.563326 l -7.295961,8.475296 c 0,0 -0.05118,0.87275 0.627555,0.47814 0.678742,-0.39461 7.955659,-7.777603 7.955659,-7.777603 l -6.961226,8.298783 c 0,0 -0.353836,1.40338 0.769899,0.63964 1.123717,-0.76373 7.619411,-7.78646 7.619411,-7.78646 l -6.982744,8.55946 c 0,0 -0.231654,0.98146 0.620912,0.33191 0.852577,-0.64956 7.673273,-7.54832 7.673273,-7.54832 l -6.895948,8.01813 c 0,0 5.478632,-4.2454 7.411148,-6.93743 0.544306,1.67972 -1.292006,4.13545 -1.292006,4.13545 l -4.274832,4.29462 c 0,0 -2.898654,2.22821 -4.877832,0.42434 z"
         id="path23606" />
    </g>
    <g
       aria-label="O mne"
       id="text1032"
       style="font-size:16.0498px;line-height:0px;font-family:'Un Jour Merveilleux Demo';-inkscape-font-specification:'Un Jour Merveilleux Demo, Normal';fill:#dbb09b;stroke:#000000;stroke-width:0.396875;stroke-linecap:round;stroke-linejoin:round;stroke-opacity:0">
      <g
         id="g2246"
         transform="matrix(1.200033,0,0,1.1652089,-16.522309,-12.64063)">
        <g
           id="g2447"
           style="fill:#805f46;fill-opacity:1">
          <g
             aria-label="Proces 
"
             transform="scale(0.85403513,1.170912)"
             id="text471"
             style="font-size:21.28px;stroke:#ffffff;stroke-width:0.526204">
            <path
               d="m 108.77513,58.834757 q 1.63856,0 2.78768,0.59584 1.1704,0.59584 1.74496,1.53216 0.57456,0.91504 0.57456,1.85136 0,2.10672 -1.55344,4.12832 -1.55344,2.00032 -3.91552,3.27712 -2.3408,1.25552 -4.55392,1.25552 h -0.0426 q -0.89376,2.9792 -0.89376,3.95808 0,0.38304 -0.17024,0.38304 -0.17024,0 -0.34048,-0.4256 -0.17024,-0.40432 -0.17024,-1.00016 0,-1.064 0.44688,-3.06432 -0.7448,-0.2128 -1.19168,-0.68096 -0.4256,-0.48944 -0.4256,-1.21296 0,-0.80864 0.82992,-1.85136 0.82992,-1.064 2.14928,-2.38336 0.6384,-0.6384 0.89376,-0.9576 0.12768,-0.14896 0.40432,-0.25536 0.27664,-0.12768 0.532,-0.12768 0.51072,0 0.36176,0.4256 -1.21296,3.27712 -2.2344,6.5968 1.89392,-0.04256 3.9368,-1.3832 2.06416,-1.36192 3.42608,-3.31968 1.36192,-1.97904 1.36192,-3.78784 0,-1.40448 -1.10656,-2.21312 -1.10656,-0.80864 -3.12816,-0.80864 -3.14944,0 -5.83072,1.68112 -2.681282,1.65984 -4.277282,4.00064 -1.57472,2.31952 -1.57472,4.0432 0,0.34048 0.04256,0.44688 0.02128,0.08512 0.12768,0.08512 0.1064,0.04256 0.1064,0.12768 0,0.06384 -0.06384,0.1064 -0.08512,0.04256 -0.25536,0.04256 -0.27664,0 -0.46816,-0.38304 -0.2128,-0.38304 -0.2128,-0.82992 0,-1.97904 1.83008,-4.29856 1.85136,-2.3408 4.788002,-3.9368 2.93664,-1.61728 6.0648,-1.61728 z m -7.15008,10.64 q 0,0.46816 0.3192,0.78736 0.34048,0.3192 0.87248,0.46816 0.70224,-2.91536 1.55344,-5.14976 -1.23424,1.23424 -2.00032,2.19184 -0.7448,0.93632 -0.7448,1.7024 z"
               id="path751" />
            <path
               d="m 117.92554,74.667077 q 0,0.4256 0.0851,0.72352 0.0851,0.29792 0.19152,0.55328 0.12768,0.25536 -0.0638,0.25536 -0.25536,0 -0.532,-0.3192 -0.25536,-0.3192 -0.44688,-0.8512 -0.17024,-0.51072 -0.17024,-1.08528 -0.0213,-0.7448 0.2128,-1.596 0.23408,-0.87248 0.61712,-1.89392 0.36176,-1.10656 0.40432,-1.3832 l 0.0213,-0.23408 q 0,-0.23408 -0.17024,-0.27664 -0.17024,-0.06384 -0.76608,-0.06384 -0.97888,0 -1.51088,-0.34048 -0.532,-0.34048 -0.532,-1.02144 0,-0.38304 0.23408,-0.8512 0.2128,-0.46816 0.61712,-0.78736 0.4256,-0.3192 0.9576,-0.3192 0.23408,0 0.4256,0.14896 0.19152,0.14896 0.19152,0.40432 0,0.61712 -1.1704,2.25568 0.23408,0.06384 0.532,0.06384 0.29792,0 0.46816,-0.02128 l 0.68096,-0.02128 q 1.40448,0 1.40448,1.12784 0,0.36176 -0.19152,0.87248 -0.17024,0.51072 -0.51072,1.2768 -0.51072,1.21296 -0.7448,1.95776 -0.23408,0.72352 -0.23408,1.42576 z m -0.97888,-8.91632 q -0.12768,0 -0.34048,0.2128 -0.2128,0.19152 -0.38304,0.51072 -0.14896,0.3192 -0.14896,0.6384 0,0.34048 0.1064,0.59584 0.3192,-0.44688 0.61712,-1.19168 0.29792,-0.76608 0.14896,-0.76608 z"
               id="path753" />
            <path
               d="m 133.24714,68.006437 q 0.12768,-0.14896 0.23408,-0.14896 0.0851,0 0.0851,0.12768 0,0.14896 -0.0851,0.3192 -0.14896,0.36176 -0.76608,1.02144 -0.59584,0.65968 -1.61728,1.25552 -1.00016,0.57456 -2.29824,0.70224 -0.70224,1.93648 -1.87264,3.27712 -1.14912,1.34064 -2.21312,1.34064 -0.97888,0 -1.46832,-1.04272 -0.51072,-1.02144 -0.51072,-2.4472 0,-0.82992 0.27664,-1.89392 0.25536,-1.064 0.80864,-2.0216 -0.3192,-0.70224 -0.3192,-1.42576 0,-0.89376 0.4256,-1.68112 0.4256,-0.80864 1.12784,-1.2768 0.70224,-0.48944 1.53216,-0.48944 1.04272,0 1.68112,0.65968 0.65968,0.6384 0.93632,1.596 0.27664,0.9576 0.27664,1.93648 0,1.40448 -0.51072,2.9792 1.51088,-0.17024 2.38336,-0.82992 0.89376,-0.68096 1.31936,-1.23424 0.44688,-0.57456 0.57456,-0.72352 z m -8.74608,-1.3832 q 0,0.4256 0.0851,0.78736 0.57456,-0.6384 1.10656,-1.02144 0.36176,-0.27664 0.91504,-0.27664 0.19152,0 0.3192,0.06384 0.12768,0.06384 0.12768,0.17024 0,0.12768 -0.17024,0.27664 -1.064,1.00016 -1.76624,2.3408 0.46816,0.82992 1.25552,1.36192 0.78736,0.51072 1.85136,0.51072 h 0.12768 q 0.532,-1.596 0.532,-3.192 0,-1.42576 -0.532,-2.40464 -0.532,-0.97888 -1.76624,-0.97888 -0.8512,0 -1.46832,0.70224 -0.61712,0.70224 -0.61712,1.65984 z m 0.29792,8.66096 q 0.40432,0 1.02144,-0.51072 0.6384,-0.51072 1.2768,-1.40448 0.6384,-0.91504 1.08528,-2.06416 -1.02144,0 -1.9152,-0.40432 -0.89376,-0.40432 -1.55344,-1.08528 -0.78736,1.8088 -0.78736,3.6176 0,0.89376 0.19152,1.36192 0.19152,0.48944 0.68096,0.48944 z"
               id="path755" />
            <path
               d="m 134.39627,72.794437 q -1.10656,0 -1.74496,-0.59584 -0.65968,-0.59584 -0.65968,-1.65984 0,-0.9576 0.57456,-1.8088 0.57456,-0.87248 1.3832,-1.40448 0.82992,-0.532 1.4896,-0.532 0.3192,0 0.51072,0.14896 0.2128,0.12768 0.2128,0.38304 0,0.36176 -0.19152,0.57456 -0.19152,0.2128 -0.40432,0.27664 -0.2128,0.06384 -0.14896,-0.04256 0.2128,-0.36176 0.2128,-0.70224 0,-0.23408 -0.14896,-0.23408 -0.38304,0 -0.93632,0.51072 -0.532,0.51072 -0.93632,1.31936 -0.40432,0.78736 -0.40432,1.63856 0,0.82992 0.29792,1.21296 0.29792,0.36176 0.93632,0.36176 0.7448,0 1.89392,-0.61712 1.14912,-0.61712 2.21312,-1.596 1.08528,-0.97888 1.65984,-2.0216 0.0851,-0.17024 0.19152,-0.17024 0.1064,0 0.1064,0.19152 0,0.1064 -0.0638,0.27664 -0.55328,1.1704 -1.65984,2.21312 -1.10656,1.02144 -2.3408,1.65984 -1.21296,0.61712 -2.04288,0.61712 z"
               id="path757" />
            <path
               d="m 148.80284,68.006437 q 0.12768,-0.19152 0.2128,-0.19152 0.0851,0 0.0851,0.19152 0,0.12768 -0.0638,0.29792 -0.532,1.12784 -1.72368,2.89408 -1.19168,1.74496 -2.70256,3.12816 -1.51088,1.3832 -2.8728,1.3832 -1.36192,0 -2.14928,-1.04272 -0.78736,-1.04272 -0.78736,-2.91536 0,-1.53216 0.65968,-2.89408 0.6384,-1.36192 1.68112,-2.17056 1.064,-0.82992 2.2344,-0.82992 0.70224,0 1.12784,0.34048 0.4256,0.3192 0.4256,0.8512 0,0.70224 -0.68096,1.25552 -0.68096,0.532 -1.72368,0.82992 -1.04272,0.29792 -2.10672,0.29792 -0.46816,1.34064 -0.46816,2.7664 0,1.44704 0.46816,2.21312 0.46816,0.76608 1.31936,0.76608 1.7024,0 3.38352,-1.95776 1.68112,-1.97904 3.34096,-4.66032 0.27664,-0.46816 0.34048,-0.55328 z m -5.4264,-1.76624 q -0.80864,0 -1.57472,0.76608 -0.7448,0.76608 -1.23424,2.0216 0.91504,-0.04256 1.74496,-0.3192 0.8512,-0.27664 1.36192,-0.72352 0.532,-0.44688 0.532,-0.9576 0,-0.36176 -0.2128,-0.57456 -0.2128,-0.2128 -0.61712,-0.2128 z"
               id="path759" />
            <path
               d="m 148.80286,74.135077 q -0.44688,0 -0.76608,-0.19152 -0.3192,-0.2128 -0.4256,-0.44688 -0.12768,-0.23408 0,-0.23408 0.0851,0 0.3192,0.17024 0.2128,0.17024 0.72352,0.17024 0.44688,0 0.68096,-0.34048 0.25536,-0.34048 0.25536,-0.91504 0,-0.65968 -0.12768,-1.14912 -0.1064,-0.51072 -0.36176,-1.23424 -0.2128,-0.57456 -0.3192,-0.97888 -0.0851,-0.40432 -0.0851,-0.91504 0,-0.532 0.3192,-1.00016 0.34048,-0.48944 0.82992,-0.78736 0.51072,-0.29792 0.97888,-0.29792 0.3192,0 0.3192,0.1064 0,0.04256 -0.12768,0.1064 -0.7448,0.3192 -1.00016,0.78736 -0.23408,0.46816 -0.23408,1.08528 0,0.3192 0.14896,0.76608 0.17024,0.4256 0.46816,1.064 0.36176,0.78736 0.532,1.25552 0.17024,0.46816 0.17024,0.91504 0,0.89376 -0.6384,1.4896 -0.61712,0.57456 -1.65984,0.57456 z"
               id="path761" />
          </g>
        </g>
      </g>
    </g>
  </g>
</svg>
